<svg width="189" height="164" viewBox="0 0 189 164" fill="none" xmlns="http://www.w3.org/2000/svg">
<path d="M182.401 4.75519C181.788 3.7598 180.928 2.93893 179.904 2.37088C178.88 1.80282 177.726 1.50652 176.552 1.51024C171.334 1.51028 166.137 2.28962 160.667 3.89396C155.936 5.28128 151.116 7.25651 145.931 9.93227C136.619 14.7392 127.576 21.0993 118.831 27.2504C117.759 28.0044 116.678 28.7632 115.589 29.5268C115.539 29.562 115.48 29.5838 115.419 29.59C115.358 29.5962 115.296 29.5866 115.24 29.5622C115.184 29.5377 115.135 29.4993 115.098 29.4505C115.062 29.4017 115.038 29.3442 115.03 29.2835C114.266 23.5436 113.401 17.0374 112.572 10.6348C112.365 9.0565 111.616 7.6012 110.452 6.51541C109.289 5.42961 107.783 4.78005 106.189 4.67673C101.489 4.38146 96.8306 4.88988 91.9461 6.23243C87.7589 7.38234 83.5195 9.12206 78.9808 11.5441C70.9303 15.8455 63.2094 21.6704 55.7494 27.3002C49.4171 32.0756 42.8979 36.9951 36.4927 40.6931C35.7733 41.1085 35.0559 41.5076 34.3405 41.8904C30.7267 43.8213 27.4264 45.1835 24.2501 46.0559C23.4481 46.272 22.6502 46.4652 21.8741 46.6202C21.7872 46.6375 21.697 46.6222 21.6211 46.5771C21.5452 46.532 21.4889 46.4603 21.4631 46.376C21.0834 45.1328 20.4313 43.9906 19.5538 43.0317C18.6764 42.0727 17.5954 41.3209 16.3888 40.8303C15.1823 40.3398 13.8801 40.1228 12.5762 40.1949C11.2723 40.267 9.9991 40.6265 8.84837 41.2474C7.69764 41.8683 6.69803 42.7352 5.92156 43.7857C5.14508 44.8361 4.61109 46.0439 4.35805 47.3221C4.10501 48.6002 4.13923 49.9169 4.45824 51.1772C4.77725 52.4374 5.37311 53.61 6.20288 54.6103C6.24759 54.6635 6.27546 54.7287 6.28298 54.7978L16.7984 149.605L16.8029 149.644C16.8383 149.945 16.8924 150.244 16.9648 150.538C17.3831 152.242 18.3251 153.77 19.6592 154.909C20.9934 156.048 22.6533 156.742 24.4073 156.894C26.1613 157.045 27.9219 156.647 29.4437 155.754C30.9655 154.862 32.1724 153.52 32.8962 151.915C33.5871 150.369 33.8032 148.656 33.5171 146.992L33.5147 146.98L27.1092 99.5894C27.0967 99.4965 27.1216 99.4021 27.1782 99.3269C27.2349 99.2516 27.319 99.2015 27.4121 99.1874C29.2515 98.9058 31.073 98.516 32.8673 98.0199C37.0564 96.8689 41.2983 95.1277 45.842 92.7044C46.6814 92.256 47.5465 91.7747 48.4124 91.2747C54.1561 87.9586 59.7392 83.9327 64.4437 80.4321C64.494 80.3947 64.5531 80.3711 64.6152 80.3636C64.6774 80.356 64.7403 80.3648 64.7978 80.3891C64.8552 80.4133 64.9053 80.4522 64.9429 80.5018C64.9805 80.5515 65.0043 80.6101 65.012 80.6719L67.0317 96.9238C67.2407 98.5854 68.0483 100.111 69.3044 101.218C70.5604 102.325 72.1794 102.937 73.8603 102.941C79.0787 102.942 84.2757 102.162 89.7462 100.558C94.4772 99.1703 99.2974 97.1957 104.482 94.5193C113.794 89.7123 122.837 83.3523 131.582 77.2011C139.947 71.3181 148.593 65.24 157.059 60.8675C161.445 58.6034 165.458 56.9517 169.327 55.8169C173.506 54.5923 177.427 53.9948 181.307 53.9952C182.592 53.9946 183.854 53.6366 184.95 52.9615C186.046 52.2864 186.934 51.3209 187.512 50.1735C188.091 49.0262 188.338 47.7424 188.226 46.4665C188.113 45.1906 187.646 43.9731 186.876 42.9509C183.093 37.9256 179.159 32.9881 175.184 28.2751C175.141 28.2248 175.114 28.1637 175.104 28.0985C175.094 28.0333 175.103 27.9667 175.129 27.9059C177.693 21.9132 180.24 16.3705 182.702 11.4339C183.228 10.3846 183.477 9.21987 183.424 8.05075C183.371 6.88163 183.019 5.74706 182.401 4.75519ZM181.663 47.2687C181.633 47.3281 181.587 47.3781 181.53 47.4131C181.474 47.4481 181.408 47.4666 181.342 47.4667C176.828 47.4664 172.305 48.1497 167.512 49.5546C163.234 50.8087 158.841 52.613 154.074 55.0734C145.204 59.6518 136.371 65.865 127.826 71.8735C119.263 77.8965 110.408 84.1252 101.495 88.7224C96.6884 91.2034 92.2506 93.0255 87.9283 94.293C83.0691 95.718 78.4784 96.4103 73.8964 96.4102C73.8075 96.4066 73.7227 96.3723 73.6565 96.3132C73.5904 96.2541 73.547 96.1739 73.5338 96.0862L70.0476 68.0683C68.4093 69.285 66.781 70.5132 65.1647 71.732C58.6534 76.6436 51.9421 81.7037 45.1505 85.6248C44.3578 86.0825 43.5636 86.524 42.7678 86.9494C38.6649 89.1421 34.8659 90.7033 31.1563 91.7223C27.1744 92.8162 23.3924 93.2622 19.6121 93.0856L27.0452 148.059C27.1318 148.455 27.0895 148.869 26.9244 149.241C26.7593 149.614 26.4799 149.924 26.1268 150.129C25.8703 150.276 25.5835 150.362 25.2888 150.38C24.9941 150.398 24.6996 150.348 24.4284 150.233C24.1572 150.119 23.9166 149.943 23.7256 149.72C23.5347 149.496 23.3985 149.232 23.3278 148.946C23.3197 148.914 23.3139 148.882 23.3103 148.849L12.4972 51.3442C12.4908 51.2945 12.4895 51.2442 12.4934 51.1941C11.9793 51.0748 11.524 50.7803 11.2059 50.3613C10.8878 49.9423 10.7269 49.4251 10.7508 48.8986C10.7747 48.3722 10.9821 47.8696 11.337 47.4774C11.692 47.0852 12.1724 46.8279 12.6955 46.7499C13.2185 46.6719 13.7515 46.7781 14.2026 47.0501C14.6537 47.3222 14.9947 47.743 15.1668 48.2402C15.3389 48.7374 15.3313 49.2798 15.1454 49.7739C14.9595 50.2681 14.6068 50.6831 14.1483 50.9474C14.0743 50.99 13.9981 51.0285 13.92 51.0627C13.929 51.0942 13.9358 51.1262 13.9406 51.1586L14.2803 53.6722C18.1031 53.8925 21.9245 53.4616 25.9561 52.3547C29.6113 51.3506 33.3576 49.81 37.4092 47.6461C44.955 43.6139 52.4434 37.9644 59.6801 32.503C66.9421 27.0238 74.4498 21.359 82.0458 17.3003C86.1449 15.1098 89.9399 13.5501 93.6482 12.5318C97.8201 11.3867 101.774 10.9512 105.736 11.1994C105.819 11.2046 105.897 11.2382 105.957 11.2945C106.018 11.3508 106.056 11.4263 106.067 11.5082C106.902 17.9536 107.772 24.4975 108.614 30.8254C109.07 34.2531 109.534 37.7442 109.994 41.25C114.239 38.453 118.444 35.4957 122.58 32.5842C131.144 26.5608 139.999 20.3331 148.913 15.735C153.719 13.254 158.156 11.4322 162.478 10.1648C167.342 8.73523 171.933 8.04362 176.516 8.04811C176.577 8.04816 176.637 8.06364 176.69 8.09308C176.743 8.12252 176.787 8.16495 176.819 8.21639C176.851 8.26782 176.869 8.32656 176.872 8.38708C176.874 8.44759 176.862 8.50789 176.835 8.56228C173.781 14.6937 170.621 21.6783 167.441 29.3242C172.273 34.9 177.046 40.812 181.627 46.8978C181.667 46.9504 181.691 47.013 181.697 47.0787C181.703 47.1444 181.691 47.2105 181.661 47.2698L181.663 47.2687Z" fill="#F9F4DA"/>
<path d="M183.012 4.37988C182.336 3.28101 181.387 2.37494 180.257 1.7482C179.126 1.12147 177.852 0.795001 176.556 0.799998C171.268 0.799304 166.006 1.58851 160.471 3.21092C155.695 4.61095 150.834 6.60287 145.606 9.3008C136.248 14.1276 127.186 20.5051 118.422 26.67C117.509 27.3123 116.59 27.958 115.664 28.6071C114.919 23.0122 114.084 16.7286 113.284 10.5423C113.055 8.80039 112.228 7.19422 110.944 5.9958C109.661 4.79738 107.998 4.08037 106.239 3.96616C101.459 3.66634 96.7231 4.18312 91.7599 5.54561C87.5212 6.70962 83.2311 8.46625 78.6456 10.9162C70.5434 15.2458 62.8051 21.0848 55.3189 26.7338C48.3039 32.0269 41.0515 37.4997 34.0074 41.2605C30.4419 43.1659 27.1872 44.5108 24.0661 45.367C23.3887 45.5523 22.7124 45.7164 22.0506 45.8557C21.8532 45.2837 21.6015 44.7319 21.2989 44.208C18.6803 39.6724 12.8374 38.1269 8.27408 40.7615C6.96 41.5205 5.84456 42.5797 5.02014 43.8514C4.19573 45.1231 3.68607 46.5707 3.53339 48.0743C1.94381 49.752 1.01564 51.9444 0.921128 54.2446C0.826622 56.5447 1.57219 58.7965 3.01948 60.5819L13.52 155.285L13.5252 155.326C13.5633 155.657 13.6224 155.985 13.702 156.308C14.156 158.155 15.1776 159.811 16.6243 161.047C18.071 162.282 19.8707 163.034 21.7726 163.199C23.6744 163.363 25.5836 162.932 27.2338 161.965C28.8841 160.997 30.1933 159.542 30.9788 157.803C31.4008 156.865 31.6629 155.864 31.7542 154.842C32.5005 154.073 33.1067 153.181 33.5454 152.206C34.2954 150.532 34.5318 148.677 34.2247 146.875L28.5363 104.806C29.1842 104.655 29.8343 104.49 30.4865 104.31C34.7275 103.146 39.0197 101.387 43.6093 98.9355C44.4555 98.4831 45.3284 97.9981 46.2019 97.4938C51.7778 94.2746 57.1945 90.3965 61.8099 86.9713L63.7554 102.618C63.9852 104.453 64.8763 106.138 66.2627 107.36C67.6492 108.582 69.4366 109.257 71.2922 109.261C76.5809 109.262 81.8434 108.472 87.3815 106.848C92.1564 105.448 97.0185 103.456 102.245 100.758C111.603 95.9318 120.665 89.5539 129.43 83.3887C137.773 77.5212 146.398 71.4527 154.822 67.1065C159.167 64.8638 163.138 63.2282 166.961 62.1071C171.076 60.9009 174.929 60.3147 178.739 60.315C180.751 60.3142 182.684 59.5216 184.12 58.1095C185.555 56.6974 186.376 54.7802 186.404 52.7753C187.835 51.5027 188.737 49.743 188.931 47.845C189.126 45.9471 188.598 44.0496 187.453 42.5285C183.707 37.5524 179.813 32.6616 175.877 27.9893C176.654 26.1792 177.427 24.4135 178.196 22.6922C179.065 20.8443 179.926 19.0642 180.778 17.3517C181.009 16.8881 181.192 16.4027 181.325 15.9029C182.004 14.4776 182.677 13.0948 183.344 11.7545C183.926 10.596 184.201 9.30992 184.143 8.01886C184.085 6.72781 183.696 5.47494 183.012 4.37988ZM182.706 11.4375C180.245 16.3766 177.698 21.9193 175.133 27.9095C175.107 27.9703 175.098 28.0369 175.108 28.1021C175.117 28.1673 175.145 28.2284 175.188 28.2787C179.163 32.9917 183.097 37.9292 186.88 42.9545C187.649 43.9768 188.116 45.1942 188.229 46.47C188.341 47.7458 188.094 49.0295 187.515 50.1767C186.937 51.324 186.049 52.2895 184.953 52.9646C183.857 53.6398 182.596 53.9979 181.31 53.9988C177.431 53.9984 173.512 54.5948 169.33 55.8205C165.461 56.9553 161.449 58.607 157.062 60.8711C148.595 65.2418 139.949 71.3228 131.586 77.2047C122.841 83.3559 113.796 89.717 104.486 94.5229C99.3005 97.1996 94.4803 99.1743 89.7499 100.561C84.2794 102.166 79.0831 102.945 73.864 102.945C72.1832 102.941 70.5642 102.329 69.3081 101.222C68.0521 100.115 67.2445 98.589 67.0355 96.9274L65.0158 80.6755C65.008 80.6137 64.9842 80.5551 64.9466 80.5054C64.909 80.4558 64.859 80.4169 64.8015 80.3927C64.744 80.3684 64.6811 80.3596 64.619 80.3672C64.5568 80.3747 64.4977 80.3984 64.4474 80.4357C59.7429 83.9363 54.1598 87.9622 48.4162 91.2783C47.5465 91.7804 46.6845 92.26 45.8457 92.708C41.3038 95.1344 37.0612 96.8743 32.871 98.0235C31.0768 98.5196 29.2552 98.9094 27.4159 99.191C27.3227 99.2051 27.2387 99.2552 27.182 99.3305C27.1253 99.4057 27.1005 99.5001 27.113 99.593L33.5185 146.983L33.5208 146.996C33.8052 148.659 33.5877 150.372 32.8956 151.917C32.1716 153.521 30.9646 154.863 29.4429 155.755C27.9213 156.647 26.1609 157.045 24.4072 156.893C22.6535 156.742 20.994 156.048 19.66 154.909C18.326 153.77 17.384 152.243 16.9655 150.54C16.8931 150.245 16.839 149.947 16.8036 149.645L16.7991 149.606L6.28334 54.7984C6.27581 54.7293 6.24794 54.6641 6.20323 54.6109C5.37548 53.6105 4.78146 52.4385 4.46391 51.1791C4.14637 49.9197 4.11319 48.6042 4.36677 47.3275C4.62035 46.0507 5.15439 44.8443 5.93045 43.7951C6.70651 42.7458 7.7053 41.8799 8.85495 41.2596C10.0046 40.6392 11.2765 40.2799 12.5792 40.2074C13.8818 40.135 15.1828 40.3512 16.3886 40.8406C17.5943 41.3299 18.6748 42.0802 19.5524 43.0374C20.4299 43.9947 21.0826 45.1351 21.4635 46.3766C21.4893 46.4609 21.5456 46.5326 21.6215 46.5777C21.6974 46.6228 21.7875 46.6382 21.8745 46.6208C22.6505 46.4658 23.4502 46.2757 24.2505 46.0565C27.4268 45.1841 30.727 43.8219 34.3408 41.8911C35.0582 41.5076 35.7756 41.1085 36.493 40.6938C42.8982 36.9957 49.4207 32.0776 55.7466 27.301C63.2097 21.6694 70.9275 15.8463 78.978 11.5449C83.5152 9.12041 87.7563 7.38219 91.9433 6.23325C96.8295 4.89379 101.487 4.38351 106.186 4.67754C107.78 4.78086 109.286 5.43042 110.449 6.51622C111.613 7.60201 112.362 9.05731 112.569 10.6356C113.398 17.0382 114.263 23.5444 115.027 29.2843C115.035 29.345 115.059 29.4025 115.095 29.4513C115.132 29.5001 115.181 29.5386 115.237 29.563C115.294 29.5874 115.355 29.597 115.416 29.5908C115.478 29.5846 115.536 29.5628 115.587 29.5276C116.674 28.7651 117.755 28.0064 118.828 27.2513C127.573 21.1001 136.618 14.739 145.928 9.93309C151.114 7.25698 155.933 5.28174 160.664 3.89478C166.134 2.29044 171.331 1.5111 176.549 1.51106C177.723 1.50735 178.878 1.80364 179.902 2.3717C180.925 2.93975 181.785 3.76062 182.398 4.75601C183.017 5.74785 183.37 6.88262 183.423 8.05208C183.476 9.22155 183.228 10.3867 182.702 11.4364L182.706 11.4375Z" fill="#231F20"/>
<path d="M166.755 29.6227C166.712 29.5729 166.683 29.5121 166.673 29.447C166.662 29.3819 166.67 29.315 166.695 29.2539C169.82 21.7274 172.928 14.8363 175.935 8.76247C171.615 8.81986 167.271 9.5005 162.684 10.8488C158.407 12.1031 154.013 13.9072 149.246 16.3681C140.376 20.9466 131.54 27.161 122.999 33.1683C118.762 36.1474 114.457 39.1756 110.104 42.0353C110.46 44.7347 110.814 47.4405 111.162 50.1288C111.181 50.2196 111.164 50.3144 111.114 50.3931C111.064 50.4718 110.986 50.5282 110.895 50.5504C110.794 50.5753 100.622 53.1068 91.069 59.9657C88.3064 61.9492 85.8614 64.0983 83.7485 66.3965C84.3782 66.219 85.0123 66.029 85.6432 65.8277L85.6618 65.8227C86.4216 65.6252 87.0761 65.5824 87.6583 65.6842C88.2502 65.7808 88.7879 66.0823 89.1771 66.5358C89.5609 66.9826 89.8339 67.6506 90.0108 68.5782C90.0127 68.5855 90.014 68.593 90.0147 68.6006L90.1788 69.9192C90.1805 69.9298 90.1815 69.9405 90.1816 69.9513C90.2203 71.0813 89.6713 71.5752 89.206 71.7921L89.1771 71.8038C88.4689 72.062 87.7546 72.3081 87.0493 72.5384C88.1619 72.5545 88.982 72.7297 89.5515 73.0791C90.1918 73.4708 90.62 74.2311 90.8208 75.3408C90.824 75.3463 90.8225 75.3538 90.8239 75.3604C90.9136 76.0897 90.8728 76.9932 90.7003 78.0443C90.5371 79.0841 90.1498 80.0774 89.5652 80.9559C89.1317 81.5996 88.6327 82.0852 88.0755 82.4069C87.8673 82.5282 87.6472 82.6277 87.4187 82.7038C86.5752 82.9644 85.7232 83.2102 84.8945 83.4261L84.8749 83.4309C84.1383 83.5812 83.4593 83.5699 82.8578 83.3961C82.2565 83.2265 81.7264 82.8691 81.3454 82.3761C80.9669 81.8926 80.6865 81.1803 80.5109 80.2594L80.5077 80.2365L80.3433 78.9189C80.3417 78.9075 80.3414 78.897 80.3408 78.8858C80.3052 77.754 80.8883 77.3351 81.3813 77.1805L81.4129 77.1721C82.1076 77.0254 82.8145 76.8609 83.5198 76.6825C82.4316 76.598 81.57 76.3266 80.9647 75.8851C80.3265 75.4181 79.9071 74.6141 79.7185 73.4956L79.7143 73.4882C79.6343 72.8479 79.6383 72.1995 79.7262 71.5593C79.2206 72.3353 78.7478 73.1246 78.3079 73.9273C74.7701 80.3883 73.3936 87.7121 74.2108 95.6994L74.2154 95.7074C78.624 95.6768 83.0493 94.9936 87.7308 93.6209C92.0077 92.3666 96.4012 90.5625 101.168 88.1016C110.038 83.5238 118.874 77.3087 127.416 71.3014C134.431 66.3679 141.641 61.2964 148.919 57.0948C150.525 56.1674 152.134 55.286 153.746 54.4507C158.553 51.9697 162.99 50.1475 167.313 48.8801C171.917 47.5305 176.283 46.8369 180.628 46.7684C176.141 40.8241 171.475 35.0621 166.755 29.6227ZM147.248 30.6447L147.441 32.1959C147.486 32.5943 147.431 32.9981 147.28 33.371C147.142 33.755 146.889 34.0878 146.555 34.324L146.531 34.338C145.144 35.1385 143.685 36.0087 142.197 36.932L142.383 38.4017C143.461 37.7354 144.518 37.0984 145.531 36.5019L145.556 36.4876C145.945 36.2995 146.328 36.3283 146.632 36.5713C146.902 36.7882 147.065 37.1086 147.117 37.5256L147.214 38.3012C147.259 38.6999 147.204 39.1041 147.054 39.4776C146.917 39.8632 146.664 40.1979 146.33 40.4362C146.323 40.4414 146.315 40.4459 146.307 40.4498C145.21 41.0921 144.063 41.7849 142.893 42.5101L143.079 43.9792C144.477 43.1153 145.847 42.2989 147.153 41.5447C147.161 41.5392 147.17 41.5343 147.179 41.53C147.569 41.3457 147.951 41.3791 148.253 41.6224C148.522 41.84 148.685 42.1618 148.737 42.5778L148.93 44.129C148.975 44.527 148.92 44.9306 148.77 45.3031C148.633 45.6878 148.379 46.021 148.044 46.2564L148.02 46.27C145.719 47.5927 143.331 49.06 140.715 50.7478L140.682 50.7668C140.077 51.1165 139.535 50.8078 139.264 50.5907C138.834 50.2459 138.553 49.6673 138.428 48.8712L138.427 48.8604L137.063 37.9256C137.063 37.9223 137.062 37.9188 137.063 37.9154C136.987 37.1456 137.08 36.3676 137.336 35.6356C137.603 34.8747 137.924 34.3733 138.317 34.1022L138.326 34.0968C140.951 32.4002 143.35 30.9297 145.663 29.5989L145.689 29.5838C146.08 29.4001 146.462 29.4335 146.763 29.6775C147.033 29.9069 147.195 30.2281 147.248 30.6447ZM99.1661 77.8607C99.1269 77.8833 99.0878 77.9059 99.048 77.9289C98.5302 78.1883 98.0104 78.4456 97.4987 78.6884C96.8198 79.0145 96.3406 78.8344 96.0606 78.6248C95.8767 78.4892 95.7235 78.3168 95.6107 78.1184C95.4979 77.9201 95.428 77.7002 95.4054 77.4729L94.1771 67.5984C93.7066 67.8108 93.2353 68.0187 92.7705 68.2179L92.7413 68.229C92.562 68.2966 92.3675 68.3127 92.18 68.2754C91.9925 68.2381 91.8196 68.1489 91.6811 68.018C91.4103 67.7608 91.2427 67.4139 91.2093 67.0417L91.0155 65.4909C90.9689 65.0996 91.0275 64.7025 91.1852 64.3402C91.3296 63.9685 91.6013 63.6594 91.9521 63.4677L91.9775 63.453C94.5438 62.3517 97.1426 61.0801 99.9213 59.5664L99.948 59.5509C100.339 59.3794 100.719 59.4192 101.018 59.6635C101.286 59.884 101.448 60.2052 101.499 60.62L101.693 62.1701C101.738 62.568 101.683 62.9714 101.532 63.3437C101.394 63.7277 101.137 64.0584 100.797 64.2873L100.774 64.3009C100.236 64.5943 99.6959 64.8829 99.166 65.1601L100.427 75.2669C100.483 75.7195 100.394 76.2137 100.158 76.7392C99.9563 77.2091 99.6085 77.6024 99.1661 77.8607ZM110.073 70.8558C109.688 70.6202 109.465 70.2331 109.396 69.7129L109.169 68.1914L108.777 68.4359L108.968 70.3332C109.026 70.8058 108.939 71.321 108.71 71.8656C108.5 72.3949 108.123 72.8431 107.637 73.1435C107.127 73.452 106.624 73.7534 106.141 74.0384L106.12 74.051C105.436 74.4455 104.956 74.3115 104.672 74.1261C104.286 73.8711 104.07 73.4682 104.034 72.931L103.17 63.002C103.17 62.9965 103.169 62.991 103.169 62.9855C103.098 61.2031 103.361 59.6999 103.95 58.5172C104.538 57.3345 105.46 56.3593 106.692 55.6104C107.027 55.4023 107.363 55.192 107.7 54.9797C108.992 54.1515 110.04 53.9277 110.902 54.2966C111.765 54.6654 112.369 55.6722 112.74 57.3667L112.744 57.3859L114.304 66.8885C114.388 67.3489 114.314 67.8703 114.084 68.4306C113.867 68.9771 113.486 69.444 112.993 69.7672C112.49 70.0958 111.99 70.42 111.507 70.7296C110.84 71.1539 110.358 71.0311 110.073 70.8558ZM123.695 62.4585C122.994 62.9507 122.517 62.8251 122.24 62.6332C121.901 62.3995 121.671 62.049 121.557 61.593C121.409 61.0113 121.231 60.438 121.022 59.8755L120.801 60.1529L121.066 62.2822C121.147 62.7441 121.075 63.2651 120.847 63.8278C120.64 64.3692 120.276 64.8375 119.801 65.1725C119.308 65.512 118.816 65.8512 118.324 66.19C118.264 66.2302 118.208 66.2657 118.153 66.2976C117.554 66.6437 117.125 66.5458 116.862 66.3918C116.477 66.1667 116.247 65.7842 116.18 65.2562L114.701 53.3916L114.7 53.3808C114.624 52.6081 114.717 51.8274 114.972 51.0919C115.237 50.3247 115.554 49.8146 115.942 49.5332L115.951 49.5282C117.18 48.6857 118.525 47.7538 120.062 46.6797L120.078 46.6704C121.113 46.0249 122.091 45.92 122.974 46.3534C123.791 46.7421 124.434 47.4207 124.775 48.2575C125.105 49.055 125.325 49.9847 125.431 51.0238C125.593 52.5942 125.383 54.0215 124.804 55.2721C125.555 56.008 126.102 57.0906 126.43 58.4958C126.433 58.5007 126.432 58.5075 126.433 58.5135C126.518 58.9777 126.444 59.5023 126.216 60.0711C126.01 60.6148 125.646 61.086 125.172 61.4249L123.695 62.4585ZM134.381 54.3716C134.174 54.9121 133.809 55.3792 133.333 55.7126C132.83 56.0579 132.328 56.4057 131.827 56.756C131.768 56.7968 131.707 56.8351 131.654 56.8659C131.081 57.1966 130.66 57.1014 130.4 56.952C130.139 56.8026 129.799 56.4849 129.721 55.8623L128.503 46.0953L127.203 47.0103L127.161 47.0351C126.65 47.3299 126.278 47.1635 126.101 47.0371C125.822 46.8409 125.657 46.5243 125.605 46.1003L125.411 44.5495C125.367 44.1444 125.42 43.7342 125.564 43.3522C125.697 42.9545 125.937 42.601 126.259 42.331L126.281 42.3185C128.609 40.6849 131.354 38.768 134.076 36.9306C134.084 36.9254 134.092 36.9207 134.101 36.9166C134.623 36.6198 135.001 36.7954 135.179 36.9263C135.454 37.1282 135.62 37.4446 135.673 37.8677L135.866 39.4185C135.91 39.822 135.857 40.2306 135.711 40.6105C135.577 41.0051 135.334 41.3543 135.01 41.617L134.988 41.6295C134.448 41.9936 133.908 42.361 133.377 42.7239L134.641 52.8593C134.696 53.2985 134.61 53.8086 134.383 54.3684L134.381 54.3716ZM158.844 27.4536C159.236 28.394 159.509 29.3797 159.658 30.3882C159.658 30.3882 159.66 30.3925 159.662 30.395L159.991 33.0317L159.994 33.0379C160.098 34.1208 160.084 35.2124 159.955 36.2938C159.822 37.4486 159.451 38.5649 158.866 39.5728C158.351 40.4792 157.603 41.2324 156.698 41.7538C156.597 41.8119 156.497 41.87 156.39 41.9196L156.379 41.9257C155.071 42.53 153.717 43.1961 152.344 43.9104L152.333 43.9168C152.008 44.0721 151.493 44.1475 150.895 43.6175C150.469 43.2412 150.191 42.6481 150.066 41.8563L150.065 41.8449L148.702 30.9107C148.701 30.9072 148.7 30.9036 148.7 30.8999C148.623 30.1443 148.72 29.3801 148.984 28.6659C149.261 27.93 149.594 27.4617 150.004 27.2308L150.014 27.225C151.391 26.5083 152.759 25.8356 154.079 25.2266L154.09 25.2202C155.183 24.7614 156.166 24.7757 157.013 25.2613C157.818 25.7303 158.432 26.4681 158.844 27.4536Z" fill="#7B5EA7"/>
<path d="M120.616 54.3093L120.497 53.3541C120.409 52.7964 120.269 52.3472 120.079 52.0128C119.985 52.0624 119.896 52.1181 119.81 52.1796L120.207 55.359C120.495 54.9495 120.635 54.5921 120.616 54.3093Z" fill="#7B5EA7"/>
<path d="M108.393 64.1553L108.497 64.0893L108.284 62.8038L108.393 64.1553Z" fill="#7B5EA7"/>
<path d="M85.4227 77.7519C85.4277 77.7606 85.4269 77.7734 85.4281 77.7842C85.4529 77.9806 85.5023 78.1307 85.5676 78.2108C85.6474 77.9704 85.6685 77.6496 85.6291 77.2558C85.6203 77.1859 85.5976 77.1186 85.5624 77.0577C85.5272 76.9968 85.4802 76.9434 85.4242 76.9008C85.3739 76.8698 85.2363 76.8307 84.9093 76.7866C85.1261 76.9684 85.3153 77.2674 85.4227 77.7519Z" fill="#7B5EA7"/>
<path d="M85.1038 71.5256C85.0995 71.5182 85.1008 71.5076 85.0997 71.4984C85.0627 71.202 85.0121 71.0872 84.9915 71.0514C84.9241 71.2919 84.911 71.6164 84.9511 72.0172C84.9599 72.0874 84.9827 72.1551 85.0181 72.2163C85.0535 72.2776 85.1007 72.3312 85.1571 72.374C85.1592 72.3777 85.2504 72.4279 85.5921 72.4718C85.3545 72.2698 85.1944 71.9508 85.1038 71.5256Z" fill="#7B5EA7"/>
<path d="M154.157 30.3662C154.067 30.372 153.979 30.395 153.897 30.434L154.78 37.5119C154.839 37.4644 154.894 37.4105 154.941 37.3511C155.001 37.2342 155.088 36.9374 155.064 36.2021C155.046 35.554 155.018 35.0932 154.987 34.8374L154.687 32.4333C154.655 32.1763 154.57 31.7454 154.435 31.1516C154.315 30.6234 154.205 30.4301 154.157 30.3662Z" fill="#7B5EA7"/>
<path d="M167.442 29.3201C170.621 21.6742 173.781 14.6895 176.835 8.55811C176.861 8.50388 176.873 8.44403 176.87 8.38409C176.866 8.32416 176.848 8.26609 176.816 8.21524C176.785 8.1644 176.74 8.12243 176.688 8.09321C176.636 8.064 176.576 8.04849 176.516 8.04811C171.933 8.04779 167.343 8.74062 162.483 10.1651C158.162 11.4318 153.724 13.2543 148.918 15.7353C140.006 20.3359 131.15 26.564 122.585 32.5845C118.448 35.4941 114.243 38.4515 109.999 41.2503C109.537 37.746 109.072 34.2549 108.619 30.8257C107.781 24.496 106.907 17.9539 106.072 11.5085C106.061 11.4266 106.023 11.3511 105.962 11.2949C105.902 11.2386 105.824 11.2049 105.741 11.1997C101.779 10.9515 97.8252 11.387 93.6534 12.5321C89.9451 13.5504 86.1501 15.1101 82.0509 17.3006C74.4539 21.3575 66.9466 27.0245 59.6853 32.5034C52.4461 37.9661 44.9602 43.6142 37.4144 47.6464C33.3631 49.8109 29.6146 51.352 25.9612 52.355C21.9245 53.4616 18.1056 53.891 14.2827 53.6708L13.9431 51.1572C13.9383 51.1248 13.9314 51.0928 13.9225 51.0613C14.0006 51.027 14.0768 50.9885 14.1507 50.9459C14.6107 50.6814 14.9646 50.2656 15.1513 49.7703C15.338 49.275 15.3459 48.7313 15.1736 48.2327C15.0013 47.7342 14.6596 47.3122 14.2074 47.0394C13.7552 46.7665 13.2209 46.6601 12.6965 46.7382C12.1721 46.8164 11.6905 47.0744 11.3347 47.4677C10.9789 47.861 10.7712 48.3649 10.7475 48.8927C10.7237 49.4204 10.8853 49.9389 11.2045 50.3588C11.5236 50.7786 11.9803 51.0736 12.4959 51.1927C12.492 51.2427 12.4933 51.293 12.4997 51.3428L23.3111 148.851C23.3147 148.884 23.3205 148.917 23.3286 148.949C23.399 149.235 23.5351 149.499 23.726 149.723C23.9169 149.946 24.1575 150.122 24.4288 150.237C24.7001 150.352 24.9948 150.402 25.2895 150.384C25.5843 150.365 25.8712 150.279 26.1276 150.132C26.4807 149.927 26.7601 149.617 26.9252 149.244C27.0903 148.872 27.1326 148.458 27.046 148.061L19.6129 93.0885C23.3932 93.265 27.1752 92.8191 31.1571 91.7252C34.8667 90.7062 38.6657 89.1449 42.7686 86.9523C43.5638 86.5277 44.3581 86.0862 45.1513 85.6277C51.9429 81.7065 58.6535 76.6452 65.1655 71.7348C66.7812 70.5164 68.409 69.286 70.0484 68.0712L73.5368 96.0886C73.55 96.1763 73.5934 96.2565 73.6596 96.3156C73.7257 96.3747 73.8105 96.409 73.8994 96.4126C78.4815 96.4126 83.0721 95.7204 87.9313 94.2953C92.2524 93.0286 96.6914 91.2057 101.498 88.7248C110.41 84.1251 119.265 77.8961 127.829 71.8759C136.371 65.8686 145.207 59.6535 154.077 55.0757C158.842 52.6168 163.237 50.8111 167.515 49.557C172.308 48.1521 176.83 47.4715 181.345 47.469C181.411 47.4689 181.477 47.4503 181.533 47.4154C181.59 47.3803 181.636 47.3303 181.666 47.2709C181.696 47.2114 181.709 47.1449 181.703 47.0789C181.697 47.0128 181.673 46.9497 181.633 46.8968C177.043 40.8092 172.273 34.8958 167.442 29.3201ZM64.7346 71.1679C57.4852 76.6358 49.9877 82.2896 42.4338 86.3249C38.3782 88.4919 34.629 90.0334 30.9709 91.0383C26.9773 92.1349 23.19 92.5674 19.407 92.3645L14.4918 54.3987C18.3089 54.5902 22.1262 54.1453 26.1448 53.0417C29.8531 52.0234 33.6481 50.4637 37.7473 48.2732C38.5415 47.8509 39.3321 47.4126 40.1189 46.9583C46.9043 43.0407 53.6084 37.9824 60.1135 33.0743C67.3527 27.6115 74.8379 21.9639 82.3843 17.9312C86.4356 15.7667 90.1841 14.2256 93.8379 13.2232C97.8283 12.1269 101.613 11.6926 105.399 11.8988C106.222 18.2513 107.079 24.6937 107.908 30.9274C108.732 37.1189 109.582 43.5145 110.4 49.8247C106.583 49.6332 102.762 50.0803 98.7431 51.1832C95.0329 52.2026 91.2348 53.7641 87.1309 55.9565C86.3357 56.381 85.5415 56.8226 84.7483 57.2811C77.9575 61.1951 71.2463 66.2568 64.7343 71.1672L64.7346 71.1679ZM87.5294 66.3833C87.9587 66.4512 88.349 66.6695 88.6302 66.9989C88.9247 67.3425 89.1514 67.9146 89.3026 68.7014L89.4665 69.9896C89.4879 70.7625 89.1686 71.0144 88.9194 71.1336C88.0886 71.4362 87.2514 71.7221 86.4289 71.9846C86.2119 72.0275 86.1213 71.9696 86.0903 71.9504C85.966 71.8699 85.8686 71.6768 85.8088 71.3911C85.7598 71.0078 85.6602 70.5599 85.3187 70.413C84.9638 70.2187 84.592 70.3264 84.3639 70.6918C84.3481 70.7159 84.3352 70.7418 84.3257 70.769C84.2084 71.1182 84.179 71.555 84.2353 72.1044L84.2385 72.1273C84.2613 72.2892 84.3159 72.445 84.3992 72.5856C84.4825 72.7262 84.5929 72.8489 84.724 72.9466C84.8353 73.0289 85.1299 73.2465 86.8764 73.2473C87.9386 73.2465 88.6894 73.3892 89.173 73.6845C89.6323 73.9651 89.9483 74.5613 90.1135 75.457C90.1947 76.1171 90.154 76.9489 89.9931 77.9283C89.8468 78.8665 89.4977 79.7628 88.9703 80.5552C88.4653 81.3061 87.8694 81.7975 87.2051 82.0155C86.3785 82.2722 85.5446 82.5108 84.7268 82.7253C84.1082 82.8504 83.5512 82.8411 83.0604 82.6997C82.602 82.5733 82.1983 82.3008 81.9109 81.9238C81.6025 81.533 81.3705 80.9261 81.2165 80.1228L81.0522 78.834C81.0341 78.1299 81.3166 77.9406 81.5711 77.8578C82.3954 77.6831 83.2367 77.4847 84.0723 77.2665C84.5522 77.1952 84.6564 77.624 84.7165 77.893C84.774 78.3355 84.9331 78.6512 85.1883 78.8322C85.1923 78.8344 85.196 78.8369 85.1994 78.8398C85.2734 78.8931 85.3577 78.9306 85.447 78.9498C85.5363 78.969 85.6288 78.9697 85.7186 78.9516C85.8159 78.9264 85.9071 78.8815 85.9864 78.8197C86.0657 78.7579 86.1315 78.6805 86.1797 78.5924C86.1907 78.5743 86.2003 78.5553 86.2082 78.5356C86.3523 78.1742 86.395 77.7273 86.3382 77.1699C86.3346 77.1637 86.3367 77.1543 86.3356 77.1467C86.2892 76.8207 86.1149 76.527 85.8509 76.3301C85.6353 76.169 85.23 76.0639 83.7133 75.9732C82.6934 75.911 81.9108 75.6845 81.3875 75.3018C80.9051 74.9482 80.5805 74.2985 80.4235 73.371C80.3321 72.7191 80.3699 71.9153 80.5355 70.9826C80.5946 70.648 80.6814 70.3186 80.7953 69.998C81.4175 69.14 82.0807 68.2999 82.785 67.4779C82.9723 67.3785 83.1693 67.2985 83.3727 67.239C84.1859 67.0164 85.0191 66.7725 85.8458 66.51C86.4924 66.3417 87.0574 66.3003 87.5294 66.3833ZM85.5903 72.4687C85.2486 72.4249 85.1593 72.3735 85.1553 72.3709C85.0989 72.3281 85.0517 72.2745 85.0163 72.2132C84.9809 72.152 84.9582 72.0843 84.9493 72.0141C84.9092 71.6133 84.9223 71.2888 84.9897 71.0483C85.0104 71.0841 85.0609 71.1989 85.0979 71.4953C85.1022 71.5027 85.1002 71.5137 85.102 71.5226C85.1943 71.9508 85.3545 72.2698 85.5891 72.4694L85.5903 72.4687ZM84.9103 76.7884C85.2363 76.8307 85.3721 76.8708 85.4252 76.9027C85.4813 76.9453 85.5283 76.9986 85.5635 77.0595C85.5986 77.1205 85.6213 77.1878 85.6302 77.2576C85.6695 77.6514 85.6485 77.9723 85.5686 78.2126C85.5034 78.1326 85.454 77.9825 85.4292 77.7861C85.4279 77.7753 85.4257 77.7642 85.4238 77.7538C85.3153 77.2674 85.1261 76.9684 84.9091 76.7891L84.9103 76.7884ZM167.313 48.8702C162.992 50.1369 158.553 51.9598 153.747 54.4407C152.135 55.2726 150.525 56.154 148.919 57.0849C141.641 61.2865 134.43 66.3555 127.416 71.2915C118.875 77.2994 110.039 83.5145 101.168 88.0917C96.4037 90.5512 92.0077 92.3566 87.7308 93.611C83.0493 94.9837 78.6241 95.6669 74.2155 95.6975L74.2109 95.6895C73.3937 87.7021 74.7702 80.3784 78.308 73.9174C78.7475 73.1149 79.2203 72.3256 79.7263 71.5494C79.6384 72.1896 79.6344 72.838 79.7143 73.4783L79.7186 73.4857C79.9071 74.6041 80.3266 75.4081 80.9648 75.8751C81.5719 76.3198 82.4334 76.5912 83.5199 76.6726C82.8145 76.851 82.1077 77.0154 81.413 77.1622L81.3814 77.1706C80.8888 77.3216 80.3036 77.7426 80.3409 78.8759C80.3415 78.8871 80.3418 78.8976 80.3434 78.909L80.5078 80.2266L80.511 80.2494C80.6866 81.1704 80.9655 81.8802 81.3455 82.3662C81.7265 82.8591 82.2565 83.2166 82.8579 83.3862C83.4562 83.5618 84.1384 83.5713 84.8749 83.4209L84.8946 83.4162C85.7264 83.1985 86.5734 82.9556 87.4187 82.6939C87.6473 82.6178 87.8674 82.5183 88.0756 82.397C88.6347 82.0742 89.1318 81.5896 89.5652 80.9459C90.1499 80.0675 90.5372 79.0742 90.7004 78.0344C90.8729 76.9833 90.9143 76.0794 90.8239 75.3505C90.8207 75.3449 90.8222 75.3375 90.8209 75.3309C90.62 74.2212 90.1931 73.4602 89.5516 73.0692C88.9814 72.7201 88.1613 72.5434 87.0494 72.5285C87.7547 72.2982 88.469 72.0521 89.1772 71.7938L89.206 71.7821C89.6714 71.5653 90.2193 71.0696 90.1816 69.9414C90.1815 69.9306 90.1806 69.9199 90.1788 69.9093L90.0147 68.5907C90.014 68.5831 90.0127 68.5756 90.0109 68.5682C89.834 67.6407 89.561 66.9727 89.1771 66.5259C88.788 66.0724 88.2503 65.7708 87.6584 65.6742C87.0747 65.57 86.4217 65.6153 85.6619 65.8128L85.6433 65.8178C85.0129 66.0171 84.3783 66.2091 83.7486 66.3866C85.8615 64.0884 88.3046 61.9403 91.0691 59.9558C100.622 53.0972 110.793 50.5657 110.895 50.5405C110.986 50.5183 111.064 50.4619 111.114 50.3832C111.164 50.3045 111.181 50.2097 111.162 50.1189C110.814 47.4306 110.46 44.7248 110.104 42.0254C114.455 39.1671 118.763 36.1374 122.999 33.1584C131.54 27.1504 140.376 20.936 149.246 16.3582C154.011 13.8983 158.407 12.0932 162.684 10.8389C167.273 9.49366 171.617 8.80921 175.938 8.75491C172.93 14.8294 169.822 21.7206 166.697 29.247C166.672 29.3082 166.664 29.375 166.674 29.4401C166.685 29.5053 166.714 29.5661 166.757 29.6159C171.477 35.0553 176.141 40.818 180.627 46.7534C176.282 46.8277 171.917 47.5205 167.312 48.8709L167.313 48.8702Z" fill="#231F20"/>
<path d="M83.3748 67.237C83.1714 67.2964 82.9745 67.3765 82.7872 67.4758C82.0827 68.2985 81.4194 69.1386 80.7974 69.996C80.6836 70.3166 80.5967 70.6459 80.5376 70.9806C80.3721 71.9133 80.3342 72.7171 80.4256 73.3689C80.5826 74.2965 80.9072 74.9462 81.3896 75.2998C81.9129 75.6825 82.6955 75.9089 83.7154 75.9712C85.2322 76.0618 85.6374 76.167 85.853 76.3281C86.117 76.525 86.2913 76.8187 86.3377 77.1447C86.3413 77.1508 86.3399 77.1599 86.3403 77.1678C86.3971 77.7252 86.3545 78.1721 86.2103 78.5336C86.2024 78.5533 86.1929 78.5723 86.1818 78.5904C86.1337 78.6785 86.0679 78.7558 85.9886 78.8176C85.9092 78.8794 85.8181 78.9244 85.7207 78.9496C85.6309 78.9676 85.5385 78.967 85.4491 78.9478C85.3598 78.9285 85.2755 78.8911 85.2015 78.8378C85.1981 78.8349 85.1944 78.8323 85.1905 78.8302C84.9348 78.6485 84.7762 78.3335 84.7186 77.891C84.6585 77.6219 84.5543 77.1932 84.0745 77.2644C83.2388 77.4827 82.3976 77.6811 81.5732 77.8557C81.3183 77.9379 81.0363 78.1279 81.0543 78.832L81.2186 80.1208C81.3726 80.9241 81.6058 81.5303 81.913 81.9217C82.2004 82.2988 82.6041 82.5712 83.0625 82.6976C83.5498 82.8386 84.1092 82.8465 84.7289 82.7233C85.5468 82.5087 86.3806 82.2702 87.2073 82.0135C87.8712 81.7948 88.4675 81.304 88.9724 80.5532C89.4999 79.7608 89.8489 78.8644 89.9952 77.9263C90.1561 76.9468 90.1969 76.115 90.1156 75.4549C89.9538 74.5606 89.6363 73.9619 89.1751 73.6825C88.6908 73.3859 87.94 73.2432 86.8785 73.2453C85.1321 73.2445 84.8364 73.025 84.7262 72.9446C84.595 72.8468 84.4846 72.7241 84.4013 72.5835C84.318 72.4429 84.2634 72.2872 84.2407 72.1252L84.2374 72.1024C84.1811 71.553 84.2106 71.1162 84.3278 70.767C84.3374 70.7398 84.3502 70.7138 84.3661 70.6897C84.5941 70.3243 84.9659 70.2166 85.3208 70.411C85.6605 70.5589 85.7619 71.0057 85.8109 71.389C85.8707 71.6747 85.9681 71.8679 86.0925 71.9483C86.1234 71.9675 86.2151 72.0274 86.4311 71.9825C87.2529 71.7204 88.0908 71.4358 88.9215 71.1315C89.1707 71.0123 89.49 70.7605 89.4687 69.9876L89.3047 68.6994C89.1536 67.9125 88.9268 67.3405 88.6324 66.9969C88.3511 66.6674 87.9609 66.4492 87.5315 66.3813C87.0607 66.2975 86.4957 66.3389 85.8513 66.5052C85.02 66.7711 84.1891 67.0163 83.3748 67.237Z" fill="#FCBA28"/>
<path d="M98.4206 65.0052C98.4116 64.9328 98.4251 64.8593 98.4592 64.7945C98.4934 64.7298 98.5465 64.6769 98.6116 64.6431C99.2036 64.3342 99.8111 64.0106 100.417 63.683C100.624 63.5366 100.78 63.3287 100.861 63.0892C100.969 62.8276 101.009 62.5438 100.98 62.2633L100.786 60.7125C100.758 60.4818 100.683 60.3186 100.558 60.2164C100.499 60.1679 100.422 60.1251 100.244 60.1999C97.4556 61.7184 94.8465 62.9951 92.2694 64.1019C92.0713 64.2173 91.9195 64.3978 91.8401 64.6123C91.7301 64.8588 91.6889 65.13 91.721 65.3972L91.9148 66.948C91.9442 67.187 92.0247 67.3636 92.1615 67.4887C92.205 67.5324 92.2606 67.5622 92.3212 67.5742C92.3818 67.5862 92.4448 67.58 92.502 67.5563C93.1034 67.2981 93.7151 67.0264 94.3229 66.752C94.374 66.7286 94.4299 66.7175 94.486 66.7195C94.5421 66.7215 94.5968 66.7367 94.6458 66.7638C94.6949 66.7908 94.7367 66.829 94.7681 66.8753C94.7994 66.9216 94.8194 66.9746 94.8263 67.0301L96.1137 77.3784C96.125 77.5104 96.1642 77.6384 96.2287 77.7539C96.2933 77.8694 96.3817 77.9699 96.4883 78.0486C96.6042 78.1347 96.8031 78.2282 97.1888 78.0426C97.6957 77.8001 98.2125 77.5462 98.7262 77.2883C99.0757 77.109 99.3498 76.8112 99.4988 76.4487C99.6804 76.0459 99.7511 75.6792 99.7115 75.358L98.4206 65.0052Z" fill="#FCBA28"/>
<path d="M100.423 75.2659L99.1633 65.1583C99.6933 64.8812 100.233 64.5925 100.771 64.2992L100.795 64.2856C101.134 64.0566 101.391 63.726 101.53 63.3419C101.68 62.9697 101.736 62.5663 101.69 62.1684L101.497 60.6182C101.445 60.2034 101.283 59.8822 101.015 59.6617C100.717 59.4175 100.337 59.3776 99.9453 59.5492L99.9186 59.5646C97.1393 61.0787 94.5405 62.3503 91.9749 63.4513L91.9494 63.466C91.5987 63.6576 91.3269 63.9668 91.1825 64.3384C91.0248 64.7008 90.9662 65.0979 91.0128 65.4891L91.2067 67.0399C91.24 67.4122 91.4076 67.759 91.6784 68.0163C91.8169 68.1472 91.9898 68.2364 92.1773 68.2737C92.3648 68.311 92.5593 68.2949 92.7386 68.2272L92.7678 68.2161C93.2326 68.0169 93.704 67.809 94.1744 67.5967L95.4028 77.4711C95.4253 77.6984 95.4952 77.9183 95.608 78.1167C95.7208 78.315 95.874 78.4875 96.0579 78.623C96.3392 78.8319 96.8171 79.0128 97.496 78.6866C98.0067 78.442 98.5276 78.1866 99.0454 77.9271C99.0851 77.9042 99.1243 77.8816 99.1634 77.859C99.6045 77.5993 99.9507 77.2052 100.15 76.7352C100.388 76.2134 100.479 75.7184 100.423 75.2659ZM99.4995 76.4484C99.3504 76.8108 99.0763 77.1087 98.7269 77.2879C98.2131 77.5458 97.6973 77.8 97.1894 78.0422C96.8037 78.2278 96.6042 78.1332 96.4889 78.0483C96.3823 77.9695 96.2939 77.8691 96.2293 77.7535C96.1648 77.638 96.1256 77.51 96.1143 77.378L94.8235 67.0252C94.8165 66.9697 94.7966 66.9167 94.7652 66.8704C94.7339 66.8241 94.692 66.7859 94.643 66.7588C94.594 66.7318 94.5392 66.7166 94.4831 66.7146C94.427 66.7125 94.3711 66.7237 94.32 66.7471C93.714 67.0245 93.1023 67.2962 92.4992 67.5514C92.4419 67.5751 92.379 67.5813 92.3183 67.5693C92.2577 67.5572 92.2021 67.5275 92.1587 67.4838C92.0218 67.3587 91.9414 67.182 91.9119 66.9431L91.7181 65.3923C91.6861 65.1251 91.7273 64.8539 91.8373 64.6074C91.9166 64.3929 92.0684 64.2124 92.2665 64.097C94.8436 62.9902 97.4527 61.7134 100.241 60.1949C100.42 60.1198 100.497 60.1642 100.555 60.2115C100.68 60.3137 100.755 60.4762 100.783 60.7076L100.977 62.2584C101.007 62.5389 100.966 62.8226 100.858 63.0842C100.777 63.3237 100.621 63.5317 100.414 63.678C99.8093 64.0075 99.2018 64.3311 98.6087 64.6381C98.5437 64.672 98.4905 64.7248 98.4564 64.7896C98.4222 64.8543 98.4087 64.9279 98.4178 65.0003L99.7114 75.3564C99.7517 75.6788 99.6804 76.0459 99.4995 76.4484Z" fill="#231F20"/>
<path d="M113.419 68.1578C113.597 67.7258 113.656 67.3383 113.596 67.0082L112.036 57.5088C111.721 56.0782 111.243 55.2168 110.615 54.9475C109.986 54.6781 109.143 54.8917 108.079 55.5768C107.739 55.7912 107.401 56.0029 107.062 56.2125C105.93 56.9015 105.121 57.756 104.588 58.8272C104.054 59.8983 103.816 61.2826 103.881 62.9394L104.743 72.8655C104.765 73.182 104.872 73.3986 105.067 73.5271C105.13 73.5683 105.321 73.6906 105.776 73.4223C106.256 73.1387 106.757 72.8394 107.264 72.5316C107.62 72.3096 107.894 71.978 108.044 71.5874C108.223 71.155 108.295 70.7639 108.251 70.4151C108.251 70.4151 108.249 70.4108 108.247 70.4083L108.034 68.2854C108.026 68.2184 108.038 68.1507 108.068 68.0899C108.097 68.0291 108.143 67.9778 108.201 67.942C108.549 67.7264 108.896 67.5094 109.243 67.2909C109.293 67.2592 109.351 67.2404 109.41 67.2363C109.47 67.2322 109.529 67.2429 109.583 67.2674C109.637 67.2919 109.684 67.3295 109.72 67.3767C109.755 67.424 109.779 67.4794 109.787 67.538L110.103 69.6038C110.103 69.6038 110.105 69.6081 110.107 69.6106C110.146 69.9174 110.258 70.1218 110.453 70.243C110.513 70.2798 110.696 70.3937 111.12 70.1209C111.604 69.8106 112.1 69.4895 112.602 69.1619C112.972 68.9202 113.258 68.569 113.419 68.1578ZM108.271 65.0708L108.26 65.0769C108.208 65.1071 108.149 65.1236 108.089 65.125C108.028 65.1264 107.969 65.1126 107.916 65.0848C107.862 65.0571 107.817 65.0164 107.784 64.9664C107.75 64.9164 107.73 64.8588 107.726 64.7989L107.478 61.7317L107.475 61.7261C107.442 61.1934 107.415 60.7627 107.397 60.4447C107.376 60.0552 107.424 59.7634 107.544 59.5503C107.574 59.4971 107.617 59.4522 107.669 59.4197L107.731 59.3838C107.779 59.354 107.833 59.3359 107.889 59.3308C107.945 59.3257 108.001 59.3339 108.054 59.3547C108.335 59.4663 108.445 59.8086 108.509 60.0934C108.575 60.3902 108.657 60.7894 108.751 61.2805C108.751 61.2805 108.755 61.286 108.756 61.2885L109.239 64.204C109.251 64.2736 109.241 64.3451 109.212 64.4095C109.183 64.4739 109.135 64.5284 109.075 64.5661C108.809 64.7352 108.541 64.9034 108.271 65.0708Z" fill="#FCBA28"/>
<path d="M114.082 68.4253C114.312 67.8644 114.386 67.3442 114.302 66.8832L112.742 57.3806L112.738 57.3614C112.366 55.6656 111.765 54.6613 110.9 54.2913C110.035 53.9213 108.993 54.1444 107.698 54.9744C107.361 55.1867 107.025 55.397 106.69 55.6051C105.458 56.354 104.538 57.3303 103.947 58.5119C103.357 59.6934 103.096 61.1978 103.167 62.9802C103.167 62.9857 103.167 62.9912 103.168 62.9967L104.031 72.9257C104.069 73.466 104.285 73.8689 104.67 74.1208C104.952 74.3063 105.43 74.4427 106.117 74.0457L106.14 74.0328C106.622 73.7477 107.126 73.446 107.636 73.1378C108.122 72.8375 108.498 72.3893 108.709 71.8599C108.938 71.316 109.024 70.8001 108.966 70.3276L108.775 68.4303L109.167 68.1857L109.395 69.7072C109.461 70.2289 109.689 70.6134 110.071 70.8501C110.357 71.0273 110.838 71.1482 111.505 70.7205C111.988 70.4102 112.487 70.0866 112.991 69.7581C113.483 69.436 113.864 68.9704 114.082 68.4253ZM111.119 70.1248C110.697 70.3969 110.512 70.2837 110.452 70.2469C110.257 70.1257 110.144 69.9195 110.106 69.6145C110.106 69.6145 110.103 69.6095 110.102 69.6077L109.793 67.5437C109.784 67.4851 109.761 67.4297 109.725 67.3824C109.69 67.3352 109.643 67.2976 109.589 67.2731C109.535 67.2486 109.475 67.2379 109.416 67.242C109.357 67.2461 109.299 67.2649 109.249 67.2967C108.902 67.5151 108.554 67.7322 108.207 67.9477C108.149 67.9836 108.103 68.0348 108.074 68.0956C108.044 68.1564 108.032 68.2241 108.04 68.2911L108.253 70.4141C108.253 70.4141 108.256 70.4184 108.257 70.4209C108.3 70.7696 108.231 71.1638 108.05 71.5931C107.9 71.9837 107.626 72.3153 107.27 72.5374C106.763 72.8451 106.261 73.1444 105.782 73.428C105.327 73.6963 105.135 73.574 105.073 73.5328C104.878 73.4043 104.772 73.1896 104.749 72.8712L103.886 62.9451C103.821 61.2871 104.059 59.9034 104.593 58.8329C105.127 57.7624 105.935 56.9059 107.068 56.2182C107.406 56.0087 107.745 55.7969 108.085 55.5825C109.148 54.9 110 54.6897 110.62 54.9532C111.24 55.2166 111.727 56.0839 112.042 57.5146L113.597 67.0101C113.657 67.3402 113.597 67.7271 113.42 68.1597C113.26 68.5724 112.973 68.9251 112.602 69.1677C112.102 69.4919 111.6 69.8159 111.119 70.1248Z" fill="#231F20"/>
<path d="M109.243 64.2035L108.76 61.2879C108.76 61.2879 108.757 61.283 108.755 61.2799C108.66 60.7888 108.579 60.3897 108.513 60.0929C108.449 59.8081 108.339 59.4657 108.057 59.3541C108.005 59.3334 107.949 59.3252 107.893 59.3302C107.837 59.3353 107.783 59.3535 107.735 59.3832L107.673 59.4191C107.621 59.4516 107.578 59.4965 107.548 59.5497C107.429 59.7621 107.383 60.0564 107.401 60.4441C107.42 60.7628 107.443 61.1947 107.478 61.7256L107.482 61.7311L107.729 64.7983C107.734 64.8582 107.754 64.9158 107.787 64.9658C107.821 65.0158 107.866 65.0566 107.919 65.0843C107.973 65.112 108.032 65.1258 108.093 65.1244C108.153 65.1231 108.212 65.1065 108.264 65.0764L108.275 65.0703C108.544 64.9031 108.814 64.7347 109.083 64.565C109.142 64.5268 109.189 64.4722 109.217 64.4079C109.246 64.3436 109.255 64.2725 109.243 64.2035ZM108.393 64.1553L108.284 62.8038L108.497 64.0893L108.393 64.1553Z" fill="#231F20"/>
<path d="M124.131 55.6228C124.07 55.5707 124.029 55.4998 124.013 55.4213C123.998 55.3428 124.01 55.2613 124.047 55.1899C124.651 54.0068 124.878 52.629 124.72 51.097C124.621 50.1259 124.417 49.2621 124.115 48.5294C123.84 47.8505 123.319 47.301 122.655 46.9903C122.001 46.6682 121.284 46.7594 120.465 47.267C118.93 48.3396 117.589 49.2687 116.361 50.1105C116.182 50.2426 115.914 50.5593 115.651 51.3203C115.43 51.9576 115.35 52.6342 115.415 53.3038L116.89 65.1616C116.928 65.4624 117.038 65.6625 117.227 65.7722C117.384 65.865 117.617 65.8063 117.92 65.599C118.411 65.2609 118.902 64.9223 119.395 64.5832C119.755 64.3292 120.03 63.9728 120.184 63.561C120.362 63.1194 120.421 62.7287 120.362 62.3986C120.36 62.3921 120.359 62.3855 120.358 62.3789L120.073 60.0916C120.067 60.0444 120.071 59.9964 120.084 59.9505C120.097 59.9046 120.119 59.8617 120.148 59.8243L120.827 58.9724C120.863 58.9265 120.911 58.8901 120.965 58.8666C121.019 58.8431 121.077 58.8331 121.136 58.8375C121.194 58.8419 121.251 58.8606 121.3 58.892C121.35 58.9233 121.391 58.9664 121.419 59.0173C121.67 59.4612 121.942 60.243 122.252 61.4082C122.325 61.7027 122.457 61.9065 122.65 62.0428C122.783 62.1304 122.995 62.0759 123.285 61.872L124.758 60.8371C125.119 60.5792 125.395 60.2194 125.549 59.8045C125.724 59.3657 125.785 58.9762 125.727 58.6478C125.407 57.2722 124.869 56.2553 124.131 55.6228ZM119.8 56.4941C119.744 56.4694 119.695 56.4306 119.659 56.3815C119.622 56.3324 119.599 56.2747 119.591 56.2139L119.075 52.0672C119.067 52.0058 119.076 51.9435 119.1 51.8863C119.124 51.8291 119.163 51.7791 119.212 51.7411C119.617 51.4251 119.931 51.2644 120.193 51.2365C120.255 51.2299 120.317 51.2395 120.374 51.2644C120.431 51.2893 120.481 51.3285 120.517 51.3784C120.857 51.8234 121.082 52.4378 121.208 53.2521C121.208 53.2521 121.212 53.2583 121.21 53.2625L121.331 54.2323C121.332 54.2378 121.332 54.2433 121.332 54.2489C121.38 54.8488 121.066 55.5199 120.375 56.2999C120.355 56.321 120.334 56.34 120.311 56.3567L120.153 56.4657C120.145 56.4713 120.136 56.4763 120.127 56.4807C120.077 56.5087 120.022 56.5245 119.965 56.5268C119.908 56.5291 119.852 56.5179 119.8 56.4941Z" fill="#FCBA28"/>
<path d="M126.433 58.5081C126.43 58.5031 126.427 58.4982 126.429 58.4904C126.101 57.0855 125.554 56.0026 124.803 55.2667C125.382 54.0161 125.593 52.5881 125.431 51.0184C125.327 49.9778 125.103 49.0483 124.775 48.2521C124.433 47.4153 123.791 46.7367 122.973 46.348C122.088 45.9121 121.113 46.0223 120.077 46.665L120.061 46.6743C118.527 47.747 117.18 48.6803 115.95 49.5228L115.941 49.5278C115.554 49.8092 115.238 50.3182 114.971 51.0865C114.716 51.822 114.624 52.6027 114.699 53.3754L114.7 53.3862L116.18 65.2508C116.246 65.7788 116.476 66.1613 116.862 66.3864C117.124 66.5404 117.553 66.6383 118.153 66.2922C118.208 66.2603 118.266 66.2266 118.323 66.1847C118.815 65.8458 119.308 65.5066 119.801 65.1671C120.275 64.8321 120.64 64.3639 120.846 63.8224C121.073 63.2585 121.147 62.7387 121.066 62.2768L120.8 60.1475L121.021 59.8701C121.23 60.4326 121.409 61.0059 121.556 61.5876C121.669 62.0447 121.898 62.3952 122.24 62.6278C122.516 62.8197 122.993 62.9453 123.694 62.4531L125.168 61.4181C125.642 61.0792 126.006 60.608 126.212 60.0643C126.444 59.4969 126.518 58.9741 126.433 58.5081ZM125.551 59.8041C125.397 60.219 125.122 60.5787 124.761 60.8366L123.287 61.8715C122.997 62.0755 122.783 62.133 122.652 62.0423C122.457 61.9081 122.327 61.7022 122.254 61.4078C121.944 60.2426 121.672 59.4607 121.421 59.0168C121.393 58.9659 121.352 58.9229 121.302 58.8915C121.253 58.8602 121.197 58.8415 121.138 58.837C121.08 58.8326 121.021 58.8426 120.967 58.8661C120.913 58.8897 120.866 58.926 120.829 58.972L120.151 59.8238C120.121 59.8613 120.099 59.9042 120.086 59.9501C120.073 59.996 120.069 60.0439 120.075 60.0911L120.361 62.3785C120.361 62.3851 120.362 62.3916 120.364 62.3981C120.423 62.7283 120.365 63.1182 120.187 63.5605C120.033 63.9724 119.757 64.3288 119.397 64.5827C118.905 64.9216 118.414 65.2602 117.923 65.5985C117.619 65.8059 117.386 65.8646 117.229 65.7717C117.04 65.662 116.93 65.462 116.892 65.1612L115.414 53.302C115.349 52.6323 115.429 51.9558 115.65 51.3184C115.913 50.5575 116.181 50.2407 116.36 50.1087C117.588 49.2669 118.931 48.337 120.463 47.2651C121.283 46.7575 122 46.6663 122.654 46.9884C123.318 47.2992 123.839 47.8487 124.114 48.5275C124.415 49.259 124.621 50.1237 124.719 51.0952C124.878 52.6296 124.652 54.0074 124.046 55.188C124.009 55.2594 123.997 55.3409 124.012 55.4194C124.028 55.4979 124.069 55.5689 124.13 55.6209C124.868 56.2534 125.406 57.271 125.73 58.648C125.787 58.9757 125.727 59.3652 125.551 59.8041Z" fill="#231F20"/>
<path d="M120.149 56.4605L120.307 56.3515C120.33 56.3348 120.351 56.3158 120.371 56.2947C121.062 55.5147 121.376 54.8436 121.329 54.2437C121.328 54.2381 121.328 54.2326 121.327 54.2271L121.206 53.2573C121.206 53.2573 121.203 53.2518 121.204 53.2469C121.078 52.4326 120.852 51.8189 120.514 51.3731C120.477 51.3233 120.427 51.2841 120.37 51.2592C120.314 51.2343 120.251 51.2247 120.189 51.2313C119.925 51.2603 119.613 51.4205 119.208 51.7359C119.159 51.7739 119.12 51.8239 119.096 51.8811C119.072 51.9383 119.064 52.0006 119.071 52.062L119.587 56.2087C119.595 56.267 119.616 56.3225 119.65 56.3703C119.685 56.4181 119.73 56.4568 119.783 56.4827C119.836 56.5087 119.894 56.5212 119.953 56.5192C120.012 56.5172 120.07 56.5007 120.121 56.4712C120.13 56.4683 120.14 56.4647 120.149 56.4605ZM119.809 52.18C119.895 52.1184 119.985 52.0627 120.078 52.0132C120.271 52.3465 120.409 52.7968 120.496 53.3545L120.615 54.3097C120.635 54.5925 120.495 54.9498 120.206 55.3593L119.809 52.18Z" fill="#231F20"/>
<path d="M132.638 42.591C132.631 42.5262 132.641 42.4605 132.669 42.4011C132.696 42.3417 132.74 42.2909 132.794 42.2541C133.379 41.8536 133.979 41.4454 134.578 41.0411C134.792 40.8621 134.951 40.6275 135.039 40.3637C135.146 40.0898 135.186 39.7949 135.157 39.5031L134.963 37.9523C134.935 37.7305 134.864 37.5769 134.754 37.4965C134.718 37.4703 134.652 37.422 134.465 37.5251C131.757 39.3527 129.024 41.2618 126.705 42.8894C126.49 43.0753 126.33 43.3166 126.243 43.5867C126.136 43.8638 126.096 44.1616 126.126 44.4562L126.319 46.007C126.346 46.226 126.415 46.3771 126.524 46.4545C126.556 46.4771 126.621 46.5242 126.807 46.4169C127.399 46.0008 127.992 45.5857 128.585 45.1717L128.611 45.1563C128.662 45.1268 128.72 45.1103 128.779 45.1083C128.838 45.1063 128.896 45.1188 128.949 45.1448C129.002 45.1708 129.047 45.2094 129.081 45.2572C129.116 45.305 129.137 45.3605 129.145 45.4188L130.432 55.7651C130.477 56.1288 130.641 56.2612 130.759 56.3306C130.816 56.3641 130.992 56.465 131.419 56.1684C131.922 55.8195 132.424 55.4713 132.927 55.1239C133.287 54.8715 133.563 54.5165 133.717 54.1059C133.898 53.6599 133.968 53.2695 133.928 52.9445L132.638 42.591Z" fill="#FCBA28"/>
<path d="M133.376 42.7157C133.906 42.3528 134.446 41.9861 134.986 41.6213L135.008 41.6088C135.333 41.3461 135.576 40.9969 135.709 40.6023C135.855 40.2224 135.909 39.8138 135.865 39.4102L135.671 37.8594C135.618 37.4364 135.452 37.12 135.177 36.9181C134.999 36.7872 134.622 36.6116 134.099 36.9084C134.091 36.9124 134.083 36.9171 134.075 36.9224C131.354 38.7594 128.607 40.6766 126.28 42.3102L126.258 42.3228C125.936 42.5927 125.695 42.9463 125.563 43.3439C125.418 43.726 125.366 44.1362 125.409 44.5413L125.603 46.0921C125.656 46.5161 125.823 46.8312 126.099 47.0288C126.277 47.1553 126.649 47.3217 127.159 47.0269L127.202 47.0021L128.502 46.0871L129.719 55.8541C129.798 56.4789 130.132 56.7929 130.398 56.9438C130.664 57.0947 131.079 57.1884 131.652 56.8577C131.708 56.8254 131.768 56.791 131.826 56.7477C132.328 56.3987 132.83 56.0509 133.332 55.7044C133.807 55.3709 134.172 54.9039 134.38 54.3634C134.607 53.8037 134.693 53.2936 134.637 52.8468L133.376 42.7157ZM133.93 52.9435C133.97 53.2684 133.9 53.6589 133.719 54.1048C133.565 54.5154 133.289 54.8704 132.929 55.1229C132.426 55.4684 131.923 55.8165 131.421 56.1673C130.994 56.4639 130.818 56.363 130.761 56.3295C130.639 56.2622 130.479 56.1277 130.434 55.764L129.143 45.4109C129.135 45.3526 129.114 45.2971 129.079 45.2493C129.045 45.2015 129 45.1629 128.947 45.1369C128.894 45.111 128.836 45.0984 128.777 45.1004C128.718 45.1024 128.66 45.1189 128.609 45.1484L128.582 45.1639C127.99 45.5779 127.397 45.9929 126.805 46.4091C126.619 46.5166 126.555 46.4711 126.522 46.4466C126.413 46.3692 126.345 46.2194 126.317 45.9992L126.124 44.4484C126.094 44.1537 126.134 43.8559 126.241 43.5788C126.328 43.3087 126.488 43.0674 126.703 42.8815C129.022 41.2539 131.755 39.3448 134.463 37.5173C134.652 37.4134 134.716 37.4624 134.752 37.4887C134.863 37.5709 134.934 37.7245 134.961 37.9445L135.154 39.4953C135.184 39.787 135.143 40.0819 135.037 40.3559C134.949 40.6196 134.79 40.8542 134.576 41.0332C133.98 41.4357 133.379 41.845 132.792 42.2462C132.738 42.283 132.694 42.3338 132.667 42.3932C132.639 42.4526 132.629 42.5183 132.636 42.5832L133.93 52.9435Z" fill="#231F20"/>
<path d="M146.007 30.2349C143.712 31.5543 141.329 33.0184 138.721 34.7015C138.545 34.8258 138.278 35.1322 138.015 35.8791C137.794 36.5119 137.713 37.1842 137.778 37.8495L139.141 48.7735C139.237 49.387 139.431 49.8139 139.718 50.0435C140.019 50.2854 140.198 50.2371 140.336 50.1558C142.954 48.4641 145.349 46.9948 147.655 45.6692C147.864 45.5159 148.021 45.3027 148.104 45.0585C148.213 44.7958 148.254 44.5105 148.223 44.2288L148.029 42.6777C148.001 42.4473 147.927 42.2859 147.804 42.1865C147.745 42.138 147.67 42.0989 147.497 42.1775C146.053 43.011 144.533 43.919 142.983 44.8852C142.932 44.9169 142.873 44.9354 142.813 44.9389C142.754 44.9424 142.694 44.9309 142.64 44.9054C142.586 44.8799 142.539 44.8412 142.504 44.7929C142.468 44.7446 142.446 44.6882 142.439 44.6288L142.158 42.3793C142.149 42.3115 142.161 42.2426 142.19 42.1808C142.22 42.1191 142.267 42.067 142.325 42.0308C143.562 41.2607 144.777 40.5263 145.937 39.8467C146.146 39.6913 146.303 39.4762 146.388 39.2301C146.496 38.966 146.537 38.6794 146.506 38.3963L146.409 37.6207C146.381 37.3903 146.307 37.2312 146.185 37.133C146.142 37.0986 146.069 37.0401 145.881 37.1274C144.727 37.8037 143.518 38.5345 142.287 39.3014C142.236 39.3331 142.177 39.3517 142.117 39.3552C142.057 39.3588 141.998 39.3473 141.943 39.3218C141.889 39.2962 141.843 39.2575 141.807 39.2091C141.772 39.1608 141.75 39.1043 141.743 39.045L141.462 36.796C141.454 36.7283 141.465 36.6594 141.494 36.5976C141.524 36.5358 141.57 36.4836 141.629 36.4472C143.187 35.4777 144.714 34.5616 146.165 33.7266C146.374 33.5732 146.531 33.3603 146.615 33.1164C146.724 32.8535 146.764 32.5679 146.733 32.2858L146.54 30.735C146.512 30.5043 146.437 30.343 146.314 30.2445C146.255 30.1999 146.179 30.1579 146.007 30.2349Z" fill="#FCBA28"/>
<path d="M145.69 29.5965L145.664 29.6116C143.35 30.9425 140.952 32.4142 138.327 34.1096L138.317 34.115C137.925 34.3861 137.604 34.8875 137.337 35.6484C137.081 36.3804 136.987 37.1583 137.063 37.9281C137.063 37.9316 137.063 37.935 137.064 37.9383L138.428 48.8731L138.429 48.8839C138.557 49.6787 138.835 50.2586 139.264 50.6034C139.536 50.8206 140.077 51.1292 140.683 50.7795L140.716 50.7605C143.33 49.0709 145.721 47.6051 148.021 46.2828L148.045 46.2692C148.38 46.0337 148.633 45.7005 148.771 45.3158C148.921 44.9433 148.976 44.5397 148.931 44.1417L148.738 42.5905C148.686 42.1745 148.523 41.8527 148.254 41.6351C147.949 41.3933 147.57 41.3584 147.179 41.5427C147.171 41.547 147.162 41.5519 147.154 41.5574C145.849 42.3106 144.477 43.1269 143.08 43.992L142.894 42.5229C144.063 41.7977 145.21 41.1036 146.307 40.4626C146.316 40.4587 146.323 40.4541 146.331 40.4489C146.665 40.2107 146.918 39.8759 147.055 39.4903C147.205 39.1169 147.26 38.7127 147.215 38.314L147.118 37.5384C147.066 37.122 146.903 36.8015 146.632 36.584C146.327 36.3422 145.947 36.3116 145.557 36.5003L145.532 36.5147C144.518 37.1087 143.46 37.7457 142.384 38.4145L142.198 36.9447C143.686 36.0215 145.144 35.1494 146.532 34.3507L146.556 34.3367C146.89 34.1005 147.143 33.7677 147.281 33.3837C147.432 33.0109 147.487 32.607 147.442 32.2086L147.249 30.6575C147.196 30.2408 147.034 29.9197 146.764 29.7024C146.463 29.4459 146.081 29.4128 145.69 29.5965ZM146.536 30.7368L146.73 32.2876C146.761 32.5697 146.721 32.8553 146.612 33.1182C146.527 33.3621 146.371 33.575 146.162 33.7284C144.712 34.5659 143.184 35.4795 141.625 36.449C141.567 36.4854 141.521 36.5376 141.491 36.5994C141.462 36.6612 141.45 36.7301 141.459 36.7978L141.74 39.0468C141.747 39.1061 141.769 39.1626 141.804 39.2109C141.839 39.2593 141.886 39.298 141.94 39.3236C141.995 39.3491 142.054 39.3606 142.114 39.357C142.174 39.3535 142.232 39.3349 142.283 39.3031C143.515 38.5363 144.724 37.8055 145.878 37.1292C146.066 37.0419 146.139 37.1004 146.182 37.1348C146.302 37.2299 146.378 37.3921 146.406 37.6225L146.503 38.3981C146.534 38.6811 146.493 38.9678 146.385 39.2319C146.3 39.478 146.143 39.693 145.934 39.8485C144.774 40.528 143.559 41.2625 142.322 42.0326C142.264 42.0688 142.217 42.1208 142.187 42.1826C142.158 42.2444 142.146 42.3133 142.155 42.3811L142.436 44.6306C142.443 44.69 142.465 44.7464 142.5 44.7947C142.536 44.843 142.582 44.8817 142.637 44.9072C142.691 44.9327 142.75 44.9442 142.81 44.9407C142.87 44.9372 142.928 44.9187 142.979 44.887C144.53 43.9208 146.049 43.0104 147.494 42.1793C147.668 42.1003 147.743 42.1423 147.801 42.1883C147.924 42.2877 147.997 42.4485 148.026 42.6795L148.219 44.2306C148.251 44.5123 148.21 44.7976 148.101 45.0603C148.018 45.3045 147.861 45.5177 147.652 45.671C145.346 46.9966 142.952 48.4671 140.333 50.1576C140.195 50.2376 140.016 50.2872 139.715 50.0453C139.428 49.8157 139.234 49.3888 139.137 48.7753L137.775 37.8513C137.71 37.186 137.791 36.5137 138.012 35.8809C138.275 35.134 138.54 34.8283 138.718 34.7033C141.325 33.019 143.709 31.5561 146.004 30.2367C146.179 30.1579 146.255 30.1999 146.311 30.2463C146.434 30.3447 146.508 30.5055 146.536 30.7368Z" fill="#231F20"/>
<path d="M154.368 25.877C153.06 26.4813 151.706 27.1474 150.345 27.8558C150.172 27.9555 149.913 28.2202 149.653 28.9138C149.427 29.5245 149.345 30.1777 149.412 30.8235L150.774 41.7469C150.872 42.3685 151.073 42.8178 151.371 43.0818C151.733 43.4024 151.931 43.3167 152.019 43.2748C153.397 42.5618 154.759 41.8878 156.074 41.2811C156.988 40.8269 157.745 40.1083 158.244 39.2199C158.784 38.2983 159.124 37.2751 159.243 36.2164C159.367 35.1874 159.38 34.1488 159.282 33.1182L158.954 30.4891C158.814 29.5399 158.556 28.6123 158.188 27.7271C157.838 26.8887 157.322 26.2673 156.654 25.8802C155.999 25.5093 155.254 25.5094 154.368 25.877ZM155.135 30.9927C155.277 31.618 155.364 32.06 155.399 32.3434L155.699 34.7475C155.734 35.0293 155.761 35.4974 155.781 36.1815C155.804 36.9266 155.731 37.4172 155.553 37.7264C155.546 37.7393 155.537 37.7518 155.528 37.7638C155.382 37.9551 155.199 38.1151 154.989 38.234C154.867 38.3035 154.74 38.3618 154.607 38.4082C154.557 38.4261 154.503 38.4326 154.45 38.4271C154.397 38.4216 154.346 38.4043 154.3 38.3765C154.255 38.3487 154.216 38.311 154.187 38.2663C154.158 38.2215 154.14 38.1709 154.133 38.118L153.157 30.2858C153.149 30.2175 153.16 30.1482 153.191 30.0861C153.221 30.024 153.268 29.9718 153.327 29.9358C153.733 29.6892 154.08 29.6064 154.391 29.6813C154.418 29.688 154.444 29.6978 154.469 29.7103C154.764 29.8585 154.963 30.2423 155.135 30.9927Z" fill="#FCBA28"/>
<path d="M154.087 25.2216L154.076 25.2281C152.755 25.8377 151.388 26.5104 150.012 27.2264L150.002 27.2322C149.592 27.4631 149.259 27.9314 148.982 28.6673C148.717 29.3815 148.62 30.1458 148.698 30.9014C148.698 30.905 148.698 30.9086 148.699 30.9121L150.059 41.8434L150.061 41.8548C150.186 42.6458 150.463 43.2396 150.889 43.616C151.487 44.1459 152.001 44.0713 152.327 43.9153L152.338 43.9092C153.708 43.1964 155.065 42.5288 156.373 41.9245L156.383 41.9184C156.489 41.8658 156.591 41.8107 156.692 41.7526C157.596 41.2313 158.345 40.478 158.86 39.5716C159.445 38.5637 159.815 37.4474 159.948 36.2926C160.078 35.2112 160.091 34.1197 159.988 33.0367L159.984 33.0305L159.655 30.3938C159.655 30.3938 159.653 30.3894 159.651 30.387C159.503 29.3785 159.229 28.3928 158.838 27.4524C158.426 26.4669 157.809 25.7306 157.003 25.2635C156.163 24.7771 155.18 24.7628 154.087 25.2216ZM158.182 27.7304C158.551 28.6155 158.808 29.5432 158.949 30.4923L159.276 33.1215C159.374 34.152 159.361 35.1906 159.238 36.2196C159.119 37.2783 158.778 38.3015 158.239 39.2231C157.739 40.1116 156.983 40.8301 156.068 41.2844C154.754 41.8911 153.39 42.5626 152.014 43.278C151.925 43.32 151.727 43.4056 151.366 43.085C151.067 42.821 150.866 42.3718 150.768 41.7501L149.412 30.8235C149.345 30.1776 149.427 29.5241 149.652 28.9132C149.914 28.2195 150.172 27.9549 150.344 27.8552C151.707 27.1461 153.061 26.4803 154.368 25.8763C155.252 25.5063 155.999 25.5105 156.648 25.8828C157.316 26.2705 157.832 26.892 158.182 27.7304Z" fill="#231F20"/>
<path d="M154.391 29.6787C154.081 29.6038 153.733 29.6866 153.327 29.9333C153.268 29.9692 153.221 30.0214 153.191 30.0835C153.161 30.1456 153.149 30.2149 153.157 30.2832L154.134 38.1155C154.14 38.1683 154.159 38.219 154.187 38.2637C154.216 38.3084 154.255 38.3461 154.3 38.3739C154.346 38.4018 154.397 38.419 154.45 38.4245C154.503 38.43 154.557 38.4236 154.608 38.4056C154.74 38.3593 154.867 38.301 154.989 38.2315C155.199 38.1125 155.382 37.9526 155.528 37.7612C155.537 37.7492 155.546 37.7367 155.553 37.7238C155.731 37.4147 155.802 36.9215 155.781 36.1789C155.761 35.4968 155.733 35.0287 155.699 34.745L155.399 32.3408C155.364 32.0574 155.277 31.6154 155.135 30.9901C154.964 30.2397 154.764 29.8559 154.47 29.7051C154.445 29.6935 154.418 29.6846 154.391 29.6787ZM154.689 32.4358L154.988 34.8399C155.02 35.0957 155.046 35.5546 155.065 36.2045C155.088 36.938 155.002 37.236 154.943 37.3536C154.895 37.4129 154.841 37.4669 154.781 37.5143L153.899 30.4364C153.98 30.3975 154.068 30.3745 154.159 30.3687C154.206 30.4326 154.316 30.6259 154.438 31.1565C154.571 31.7478 154.656 32.1787 154.689 32.4358Z" fill="#231F20"/>
<path d="M30.1178 68.9124C30.1248 69.4023 30.15 69.8964 30.1903 70.3794L30.2067 70.5024C30.3479 69.9163 30.7027 69.6399 31.0293 69.5114L31.0424 69.5038L31.1113 69.4797C31.02 69.4552 30.9328 69.4181 30.852 69.3693C30.5532 69.1887 30.3455 68.8477 30.2341 68.3564C30.2304 68.3426 30.2281 68.3285 30.2272 68.3143C30.2135 68.1814 30.1986 68.0797 30.1849 68.0029C30.1309 68.3031 30.1084 68.6079 30.1178 68.9124Z" fill="#7B5EA7"/>
<path d="M94.0741 29.6957C94.071 29.6818 94.0687 29.6678 94.0672 29.6536C94.0536 29.5182 94.0387 29.4149 94.0243 29.3368C93.9714 29.6366 93.9497 29.941 93.9597 30.2449C93.9679 30.734 93.9918 31.2273 94.0326 31.7141L94.0472 31.8283C94.1901 31.2379 94.5521 30.9713 94.8832 30.8518L94.8981 30.8432L94.9442 30.8297C94.5968 30.7331 94.2406 30.4317 94.0741 29.6957Z" fill="#7B5EA7"/>
<path d="M31.183 73.4773C31.0149 73.4488 30.8579 73.3753 30.7288 73.2646C30.6618 73.2101 30.6042 73.1449 30.5586 73.0715C30.6287 73.4368 30.71 73.8015 30.7995 74.1589C30.8631 74.4488 30.9667 74.7283 31.1076 74.9893C31.1985 74.9988 31.2906 74.9898 31.3782 74.9631L31.183 73.4773Z" fill="#7B5EA7"/>
<path d="M87.1303 55.9511C91.2342 53.7587 95.0323 52.1972 98.7425 51.1779C102.764 50.0735 106.582 49.6278 110.4 49.8193C109.582 43.5091 108.731 37.1123 107.908 30.922C107.078 24.6883 106.221 18.2459 105.398 11.8934C101.614 11.6909 97.8281 12.1237 93.8372 13.2178C90.1816 14.2213 86.4357 15.7626 82.3837 17.9258C74.8373 21.9585 67.3495 27.6076 60.1128 33.0689C53.6078 37.977 46.9006 43.0371 40.1183 46.9529C39.3281 47.4091 38.5376 47.8488 37.7466 48.272C33.6474 50.4625 29.8524 52.0222 26.1441 53.0405C22.1255 54.144 18.3082 54.589 14.4911 54.3975L19.407 92.3645C23.19 92.5674 26.977 92.1343 30.9709 91.0383C34.629 90.0334 38.3775 88.4907 42.4338 86.3249C49.9892 82.2921 57.4852 76.6358 64.7346 71.1679C71.2459 66.2562 77.9579 61.1958 84.7495 57.2746C85.5419 56.8166 86.3355 56.3754 87.1303 55.9511ZM87.3375 44.5548C86.8485 44.8025 86.3463 45.0645 85.8457 45.3337C85.0362 45.7879 84.4567 45.4945 84.1142 45.1679C84.0916 45.1464 84.072 45.122 84.0558 45.0954C83.7317 44.5615 83.4022 44.0208 83.0701 43.4758L83.24 44.7886C83.3012 45.2619 83.2162 45.776 82.987 46.3158C82.7756 46.8396 82.4003 47.2821 81.9171 47.5772C81.4299 47.8725 80.9319 48.179 80.4363 48.4898C79.7676 48.9096 79.2908 48.7882 79.007 48.6137C78.6232 48.3793 78.3925 47.9956 78.3245 47.4718L76.6679 34.6822C76.6069 34.2079 76.6903 33.6881 76.9174 33.1388C77.1239 32.6053 77.496 32.1508 77.9792 31.8418C78.4785 31.5289 78.9803 31.2202 79.4706 30.9231C80.0924 30.5312 80.7112 30.5657 81.2046 31.0258C81.2282 31.0477 81.2488 31.0726 81.2656 31.1C81.5898 31.6298 81.9198 32.1685 82.2505 32.7111L82.0816 31.4043C82.0202 30.9278 82.1056 30.4159 82.3369 29.884C82.5483 29.3641 82.9339 28.9326 83.4277 28.6632C83.9414 28.388 84.4496 28.1234 84.9375 27.8738C85.6047 27.5347 86.1053 27.7001 86.4068 27.8996C86.4163 27.9056 86.4254 27.9121 86.434 27.9194C86.7731 28.1911 86.9787 28.586 87.0437 29.0917L88.7004 41.8813C88.7621 42.3585 88.674 42.8629 88.4393 43.3803C88.2378 43.8456 87.8921 44.235 87.4532 44.4913C87.4167 44.5156 87.3785 44.5369 87.3375 44.5548ZM35.0538 65.2346C35.0573 65.2408 35.0566 65.2495 35.0576 65.2571L35.2274 66.574C35.2289 66.5844 35.2297 66.595 35.2299 66.6055C35.2741 67.7323 34.7468 68.245 34.2969 68.4784L34.2701 68.4939L34.0394 68.5892C34.3228 68.5918 34.5994 68.6733 34.8379 68.8246C35.3313 69.1397 35.6307 69.674 35.726 70.4116L36.3275 75.0614C36.4461 75.9897 36.279 76.9334 35.8484 77.7679L35.838 77.7871C35.6606 78.1052 35.4019 78.371 35.0883 78.5574L35.0728 78.5663C35.0599 78.575 35.0464 78.5828 35.0324 78.5897C33.654 79.146 32.2769 79.6357 30.9405 80.0467L30.9184 80.0529C29.8534 80.3056 28.8976 80.1265 28.0778 79.5199C27.3071 78.9483 26.7016 78.1405 26.2865 77.1159C25.8904 76.15 25.6097 75.1404 25.4502 74.1079C25.4487 74.106 25.4475 74.104 25.4466 74.1018L25.1054 71.4664C25.1043 71.4643 25.1031 71.4623 25.1018 71.4603C24.9933 70.4032 25.005 69.3368 25.1365 68.2811C25.2571 67.21 25.622 66.1794 26.2033 65.2683C26.7771 64.3745 27.6305 63.6937 28.6304 63.332L28.6517 63.3246C29.3247 63.1187 30.0134 62.8899 30.6983 62.6459L30.7173 62.6399C31.4616 62.4184 32.1056 62.3504 32.6855 62.4295C33.2747 62.4992 33.8171 62.7807 34.2111 63.2213C34.5962 63.6459 34.8725 64.3095 35.0538 65.2346ZM99.7285 39.5138L99.7147 39.5357C99.5642 39.7581 99.3656 39.9442 99.1337 40.0802C99.0584 40.1238 98.9799 40.1614 98.8988 40.1928C98.8836 40.199 98.8679 40.204 98.8519 40.2076C97.5214 40.5213 96.1543 40.9164 94.7882 41.3808L94.7664 41.3876C93.6921 41.6786 92.7504 41.5769 91.9658 41.0858C91.1907 40.6041 90.5923 39.8704 90.1825 38.9052C89.7877 37.9699 89.5114 36.9887 89.3599 35.984C89.3589 35.9818 89.3577 35.9798 89.3563 35.9779L89.0151 33.3425L89.0115 33.3364C88.9008 32.251 88.9074 31.1563 89.0313 30.0711C89.1468 28.935 89.4961 27.8335 90.0574 26.8357C90.6358 25.8177 91.4431 25.0899 92.4542 24.6749L92.4752 24.6669C93.1733 24.4284 93.8741 24.2091 94.5578 24.0118L94.5765 24.0068C95.3078 23.8389 95.9874 23.8367 96.5938 24.0019C97.1974 24.1638 97.7309 24.517 98.1141 25.0083C98.4943 25.4876 98.7782 26.1987 98.9583 27.1203C98.9618 27.1265 98.961 27.1352 98.9621 27.1428L99.1329 28.46C99.1345 28.4714 99.1348 28.4819 99.1354 28.493C99.1759 29.622 98.6076 30.0464 98.1217 30.2019C98.1114 30.2054 98.1008 30.2082 98.0901 30.2102L97.9216 30.2483C98.2277 30.2966 98.5155 30.4234 98.7569 30.6163C99.242 31.0046 99.5336 31.5671 99.6295 32.297L100.239 36.9412C100.366 37.8301 100.186 38.7373 99.7285 39.5138ZM48.0441 71.0988C47.9121 71.4913 47.6654 71.8361 47.3359 72.0887C47.3289 72.0936 47.3214 72.098 47.3136 72.1017C46.0624 72.8956 44.8571 73.6269 43.6824 74.3051C42.4065 75.0418 41.167 75.7154 39.9441 76.3375L39.9342 76.3432C39.6079 76.4954 39.0925 76.5625 38.4904 76.0145C38.063 75.6242 37.7814 75.0246 37.6548 74.2343L37.6531 74.2228L36.2384 63.2954L36.2372 63.2846C36.1548 62.537 36.2498 61.7796 36.5143 61.0734C36.7896 60.3523 37.125 59.8903 37.5326 59.6623L37.5432 59.6562C39.8732 58.4756 42.2617 57.0966 44.853 55.4548L44.8778 55.4405C45.403 55.1637 45.7774 55.3459 45.9532 55.4782C46.2259 55.6837 46.3924 56.0008 46.4467 56.4205L46.6475 57.9705C46.6955 58.3724 46.6452 58.7804 46.5009 59.1598C46.3684 59.5521 46.1219 59.8967 45.7928 60.1498C45.7855 60.1548 45.7778 60.1592 45.7698 60.163C44.2816 61.1045 42.8254 61.9823 41.4349 62.7687L41.6283 64.2514C42.6475 63.6712 43.7012 63.0431 44.7677 62.3812L44.7926 62.3669C45.3165 62.0965 45.6911 62.2819 45.8679 62.4161C46.1405 62.6242 46.3063 62.9416 46.3606 63.3597L46.4613 64.1354C46.5071 64.5365 46.455 64.9433 46.3094 65.3211C46.1764 65.7123 45.9282 66.055 45.5973 66.3043L45.5744 66.3176C44.4115 67.0392 43.2636 67.7208 42.1578 68.3461L42.3512 69.8288C43.6603 69.0837 45.0179 68.2645 46.4062 67.3839L46.4304 67.3699C46.9533 67.0935 47.3286 67.2744 47.5057 67.4076C47.7801 67.6146 47.9466 67.9317 48.0006 68.3508L48.2014 69.9008C48.247 70.3064 48.193 70.7175 48.0441 71.0988ZM56.9475 63.4816C57.0055 63.9264 56.9215 64.4408 56.7004 65.0104C56.4972 65.5589 56.1377 66.0368 55.6662 66.3854C55.1745 66.7417 54.6725 67.1031 54.1651 67.4652C54.0982 67.5129 54.0329 67.5547 53.9689 67.5916C53.4099 67.9144 52.9977 67.8231 52.7372 67.6747C52.4768 67.5263 52.134 67.2123 52.0541 66.5875L50.79 56.8234C50.3444 57.1334 49.9074 57.4351 49.4864 57.7217L49.4622 57.7357C48.9417 58.0363 48.5619 57.8604 48.382 57.7297C48.1066 57.5282 47.9392 57.2124 47.8845 56.7905L47.6836 55.2404C47.6379 54.8374 47.6893 54.4287 47.8336 54.0484C47.9654 53.6537 48.2071 53.304 48.5305 53.0403L48.5528 53.0274C50.8107 51.4867 53.2712 49.7229 56.284 47.4814L56.3076 47.4678C56.825 47.1402 57.2038 47.2985 57.3864 47.4211C57.6635 47.6142 57.8364 47.9251 57.8911 48.3512L58.0916 49.9006C58.1372 50.3075 58.0872 50.7199 57.9455 51.1052C57.8159 51.5075 57.5798 51.8679 57.2623 52.1483L57.2418 52.1601C56.6623 52.591 56.1334 52.982 55.6349 53.348L56.9475 63.4816ZM68.0502 56.5134C67.8474 57.0641 67.4908 57.5462 67.0227 57.9026L65.5304 59.0235C65.4518 59.0835 65.3696 59.1384 65.284 59.1879C64.7548 59.4935 64.3588 59.4159 64.1082 59.2832C63.8385 59.1401 63.4995 58.837 63.4176 58.2061L62.1566 48.4673L60.8759 49.4339L60.8542 49.4465C60.3397 49.7805 59.9556 49.6245 59.7736 49.5016C59.4931 49.3112 59.3227 48.9989 59.2677 48.5722L59.0672 47.0227C59.0218 46.6157 59.0717 46.2032 59.2129 45.8175C59.3419 45.4148 59.577 45.0533 59.8934 44.7711L59.9127 44.7558L61.1246 43.8421C63.2594 42.2318 65.4613 40.5696 67.6353 38.9711L67.6589 38.9575C68.1756 38.6345 68.5583 38.7938 68.7379 38.9198C69.0151 39.1129 69.1864 39.4255 69.2417 39.8512L69.4426 41.4013C69.488 41.8075 69.4375 42.2191 69.2951 42.6034C69.1651 43.0038 68.9283 43.3619 68.6101 43.6392L68.5896 43.6511C68.0743 44.0309 67.5465 44.418 66.984 44.8382L68.2972 54.9772C68.3552 55.4319 68.2735 55.9318 68.0502 56.5134ZM74.0961 52.7223C73.5246 53.0523 73.1075 52.9639 72.8481 52.8173C72.4555 52.5979 72.228 52.2139 72.1718 51.676L70.5139 38.8756C70.4435 38.4223 70.5206 37.9045 70.7442 37.3392C70.9514 36.7892 71.3188 36.3128 71.799 35.9713C72.3033 35.6168 72.8023 35.2702 73.2764 34.9438C73.9482 34.4819 74.4336 34.5852 74.7218 34.753C74.9911 34.9111 75.3243 35.2357 75.3918 35.8848L77.0471 48.6851C77.1189 49.1523 77.0399 49.6769 76.8164 50.2308C76.6057 50.7741 76.2364 51.2425 75.7564 51.5753C75.2818 51.9011 74.7891 52.2441 74.2873 52.5972C74.2212 52.6435 74.1564 52.6851 74.0926 52.7219L74.0961 52.7223Z" fill="#7B5EA7"/>
<path d="M95.0253 34.8121C94.8558 34.7821 94.6979 34.7069 94.5683 34.5944C94.5017 34.5394 94.4444 34.4741 94.3986 34.4009C94.4706 34.7709 94.5513 35.1359 94.6404 35.4911C94.7039 35.78 94.8073 36.0585 94.9476 36.3187C95.0388 36.3291 95.1311 36.3221 95.2199 36.2982L95.0253 34.8121Z" fill="#7B5EA7"/>
<path d="M34.5164 66.6552L34.3514 65.3652C34.1973 64.5833 33.9705 64.0212 33.679 63.6956C33.3978 63.3804 33.009 63.1806 32.5874 63.1348C32.1197 63.0706 31.5623 63.1324 30.9306 63.3193C30.2434 63.5637 29.5488 63.7952 28.8736 64.0015C27.981 64.3391 27.3081 64.8765 26.8093 65.6493C26.2838 66.4679 25.956 67.3961 25.8516 68.3605C25.7266 69.3613 25.7152 70.3724 25.8177 71.3746L26.1574 74.0017C26.3088 74.9775 26.5745 75.9316 26.949 76.8446C27.3163 77.7462 27.8406 78.4534 28.5063 78.9465C29.1546 79.4266 29.8867 79.5628 30.7438 79.3618C32.0501 78.9616 33.3954 78.4829 34.7428 77.9403C34.9411 77.8191 35.1044 77.6485 35.2166 77.4454C35.5786 76.7391 35.718 75.9411 35.6164 75.1568L35.0149 70.5069C34.9467 69.9799 34.7608 69.6263 34.4483 69.4265C34.1564 69.2394 33.7037 69.2687 33.1025 69.5129C32.4891 69.7502 31.8774 69.9732 31.2824 70.1793C31.1475 70.2325 30.768 70.4014 30.8786 71.4109C30.999 72.5045 31.162 72.6935 31.1803 72.7109C31.2718 72.7848 31.297 72.7695 31.3128 72.7612C31.3639 72.7317 31.4214 72.7152 31.4802 72.7131C31.5391 72.711 31.5974 72.7234 31.6502 72.7492C31.7029 72.775 31.7484 72.8134 31.7825 72.861C31.8167 72.9086 31.8386 72.9639 31.8461 73.022L32.1224 75.1533C32.1322 75.2293 32.1172 75.3066 32.0796 75.3737C32.0419 75.4408 31.9837 75.4941 31.9134 75.5258C31.454 75.7343 31.0575 75.7648 30.7268 75.6224C30.6691 75.5969 30.6193 75.5567 30.5824 75.5057C30.3876 75.2371 30.2296 74.8559 30.1 74.3388C29.9809 73.8627 29.8748 73.3749 29.7906 72.8877C29.7878 72.8827 29.7853 72.8784 29.7878 72.8712L29.4772 70.4684L29.4757 70.4528C29.4343 69.9507 29.4081 69.4391 29.4017 68.9316C29.3926 68.3879 29.4407 67.9518 29.5488 67.5997C29.5575 67.5714 29.5696 67.5442 29.5849 67.5188C29.8184 67.137 30.1906 67.0242 30.5586 67.2298C30.5721 67.2375 30.5852 67.2459 30.5979 67.2549C30.7837 67.3945 30.8742 67.6559 30.9347 68.2227C31.0013 68.5044 31.1013 68.692 31.2236 68.7662C31.2529 68.7839 31.3407 68.8369 31.5432 68.7875C32.345 68.5007 33.1636 68.1812 33.9806 67.8445C34.3583 67.638 34.5352 67.2486 34.5164 66.6552Z" fill="#FCBA28"/>
<path d="M32.6845 62.4235C32.1056 62.3462 31.4606 62.4124 30.7163 62.6339L30.6974 62.6399C30.0106 62.8849 29.3238 63.1127 28.6508 63.3186L28.6294 63.326C27.6295 63.6877 26.7761 64.3685 26.2023 65.2623C25.621 66.1734 25.2561 67.204 25.1356 68.2751C25.004 69.3308 24.9923 70.3972 25.1008 71.4542C25.1021 71.4562 25.1033 71.4583 25.1044 71.4604L25.4456 74.0958C25.4466 74.0979 25.4477 74.1 25.4492 74.1019C25.6087 75.1344 25.8894 76.144 26.2855 77.1099C26.7031 78.1331 27.3061 78.9423 28.0768 79.5139C28.8966 80.1205 29.8549 80.2982 30.9174 80.0469L30.9395 80.0407C32.277 79.6315 33.6516 79.1432 35.0314 78.5836C35.0454 78.5768 35.0589 78.569 35.0718 78.5603L35.0855 78.5524C35.4001 78.3658 35.6596 78.0992 35.8373 77.7801L35.8477 77.7609C36.2783 76.9264 36.4454 75.9827 36.3268 75.0544L35.7253 70.4046C35.6306 69.6666 35.3306 69.1328 34.8372 68.8176C34.5986 68.6663 34.3221 68.5848 34.0387 68.5822L34.2694 68.4869L34.2961 68.4715C34.7461 68.238 35.2723 67.7235 35.2291 66.5985C35.229 66.588 35.2281 66.5774 35.2267 66.567L35.0562 65.2488C35.0526 65.2427 35.054 65.2336 35.0523 65.2264C34.8704 64.3001 34.5945 63.6387 34.2087 63.2071C33.8137 62.7698 33.2721 62.4913 32.6845 62.4235ZM31.5433 68.7833C31.3407 68.8328 31.253 68.7797 31.2237 68.7621C31.0989 68.6893 31.0013 68.5003 30.9348 68.2185C30.8742 67.6518 30.7858 67.3867 30.598 67.2507C30.5853 67.2417 30.5722 67.2334 30.5587 67.2257C30.1912 67.0197 29.8174 67.131 29.5849 67.5146C29.5697 67.54 29.5576 67.5672 29.5488 67.5955C29.4407 67.9477 29.3926 68.3837 29.4018 68.9275C29.4092 69.4368 29.4348 69.9488 29.4758 70.4486L29.4773 70.4642L29.7878 72.8671C29.7903 72.8714 29.7928 72.8757 29.7907 72.8835C29.8761 73.37 29.9809 73.8586 30.1001 74.3347C30.2321 74.8503 30.3876 75.2329 30.5825 75.5016C30.6194 75.5525 30.6692 75.5928 30.7269 75.6182C31.0521 75.7597 31.4541 75.7301 31.9135 75.5216C31.9837 75.4899 32.042 75.4366 32.0796 75.3695C32.1173 75.3024 32.1323 75.2251 32.1225 75.1491L31.8462 73.0179C31.8386 72.9597 31.8168 72.9044 31.7826 72.8568C31.7484 72.8092 31.703 72.7709 31.6502 72.7451C31.5975 72.7193 31.5391 72.7069 31.4803 72.7089C31.4215 72.711 31.364 72.7275 31.3129 72.757C31.298 72.7656 31.2719 72.7807 31.1804 72.7068C31.162 72.6894 30.9991 72.5003 30.8787 71.4067C30.7695 70.3997 31.1463 70.2291 31.2825 70.1751C31.8789 69.97 32.4892 69.746 33.1026 69.5087C33.7062 69.2631 34.1565 69.2353 34.4484 69.4223C34.7609 69.6222 34.9468 69.9758 35.015 70.5027L35.6164 75.1568C35.716 75.9405 35.5751 76.7372 35.2122 77.4421C35.1001 77.6452 34.9367 77.8158 34.7385 77.9371C33.391 78.4796 32.0457 78.9584 30.7395 79.3586C29.8823 79.5596 29.1502 79.4234 28.5019 78.9433C27.8362 78.4502 27.3119 77.7429 26.9446 76.8413C26.5701 75.9284 26.3044 74.9742 26.1531 73.9984L25.8133 71.3713C25.7108 70.3692 25.7222 69.358 25.8473 68.3572C25.9515 67.3925 26.2795 66.4639 26.8052 65.6451C27.3009 64.8741 27.9769 64.3348 28.8695 63.9973C29.546 63.7903 30.2381 63.5602 30.9265 63.3151C31.5582 63.1281 32.1156 63.0664 32.5833 63.1306C33.0049 63.1764 33.3937 63.3762 33.6749 63.6914C33.9664 64.0169 34.195 64.5822 34.3473 65.361L34.5123 66.651C34.5321 67.2462 34.3552 67.6356 33.9792 67.8379C33.1637 68.177 32.3449 68.4975 31.5433 68.7833ZM30.2252 68.3179C30.226 68.3321 30.2283 68.3463 30.2321 68.36C30.3434 68.8513 30.548 69.1942 30.85 69.3729C30.9307 69.4217 31.018 69.4589 31.1092 69.4834L31.0403 69.5075L31.0273 69.515C30.701 69.6442 30.349 69.9182 30.2047 70.5061L30.1883 70.383C30.148 69.9 30.1223 69.4079 30.1158 68.9161C30.1061 68.613 30.1281 68.3096 30.1812 68.0108C30.2001 68.0822 30.2118 68.1857 30.2255 68.3185L30.2252 68.3179ZM30.7974 74.1609C30.7068 73.8017 30.6273 73.436 30.5564 73.0736C30.6021 73.1469 30.6596 73.2121 30.7267 73.2666C30.8558 73.3774 31.0127 73.4509 31.1809 73.4794L31.3761 74.9652C31.2884 74.9919 31.1964 75.0008 31.1054 74.9914C30.9644 74.7301 30.8606 74.4504 30.7971 74.1603L30.7974 74.1609Z" fill="#231F20"/>
<path d="M47.0671 67.9893C47.0292 67.9609 46.9588 67.9078 46.7695 68.0047C45.214 68.9916 43.689 69.9051 42.2359 70.7209C42.1848 70.7497 42.1274 70.7656 42.0688 70.7671C42.0102 70.7687 41.9523 70.7559 41.8999 70.7298C41.8476 70.7038 41.8026 70.6653 41.7688 70.6178C41.735 70.5703 41.7134 70.5152 41.706 70.4573L41.4157 68.2099C41.4065 68.1392 41.4187 68.0672 41.4509 68.0033C41.4831 67.9393 41.5337 67.8864 41.5963 67.8513C42.7537 67.202 43.9568 66.4884 45.1848 65.7276C45.3953 65.5622 45.5518 65.3383 45.6344 65.0844C45.7405 64.8148 45.7797 64.5238 45.7486 64.2365L45.6482 63.4615C45.6171 63.2325 45.5467 63.0806 45.4282 62.9901C45.3869 62.9588 45.3185 62.9061 45.1277 62.999C43.8954 63.7639 42.6792 64.4834 41.5128 65.1388C41.4616 65.1675 41.4042 65.1834 41.3457 65.1849C41.2871 65.1865 41.2291 65.1737 41.1768 65.1477C41.1245 65.1216 41.0794 65.0832 41.0456 65.0356C41.0118 64.9881 40.9903 64.933 40.9829 64.8751L40.6919 62.6281C40.6828 62.5581 40.6947 62.4868 40.7262 62.4234C40.7577 62.3599 40.8073 62.3071 40.8687 62.2716L40.8725 62.2695C42.3112 61.4618 43.8264 60.5541 45.3742 59.5725C45.5856 59.4038 45.7428 59.1771 45.8261 58.9206C45.9326 58.6497 45.9716 58.3574 45.9398 58.0688L45.7389 56.5188C45.7078 56.2898 45.6385 56.1397 45.5215 56.0517C45.4832 56.0228 45.4141 55.9705 45.2239 56.0671C42.6212 57.7179 40.2168 59.0995 37.874 60.2908L37.8684 60.2941C37.6957 60.3938 37.4395 60.6545 37.1837 61.3232C36.9597 61.9244 36.8796 62.5688 36.9498 63.2049L38.3651 74.1204C38.4666 74.7467 38.6727 75.2055 38.9776 75.4839C39.345 75.8191 39.5491 75.735 39.6294 75.6977C41.9529 74.5159 44.338 73.1438 46.9219 71.5064C47.1334 71.3379 47.2907 71.1111 47.3738 70.8545C47.4794 70.5833 47.5184 70.2913 47.4875 70.0027L47.2866 68.4527C47.2552 68.2305 47.1845 68.0779 47.0671 67.9893Z" fill="#FCBA28"/>
<path d="M47.9951 68.3614C47.9412 67.9423 47.7747 67.6252 47.5002 67.4182C47.3231 67.285 46.9479 67.1041 46.4249 67.3805L46.4007 67.3945C45.0169 68.2758 43.6548 69.0942 42.3457 69.8394L42.1523 68.3567C43.2581 67.7314 44.406 67.0497 45.5689 66.3281L45.5918 66.3149C45.9227 66.0656 46.1709 65.7229 46.3039 65.3317C46.4495 64.9539 46.5016 64.5471 46.4558 64.1459L46.3608 63.3645C46.3066 62.9464 46.1407 62.6289 45.8682 62.4208C45.6914 62.2867 45.3168 62.1013 44.7929 62.3717L44.768 62.386C43.7015 63.0478 42.6478 63.676 41.6286 64.2562L41.4351 62.7735C42.8257 61.9871 44.2852 61.1107 45.7701 60.1678C45.7781 60.164 45.7858 60.1596 45.793 60.1546C46.1228 59.9002 46.3693 59.5538 46.5009 59.1598C46.6464 58.7815 46.6982 58.3743 46.6521 57.9728L46.4513 56.4228C46.397 56.0031 46.2305 55.686 45.9578 55.4804C45.7813 55.3469 45.4069 55.1647 44.8825 55.4428L44.8576 55.4571C42.267 57.1001 39.876 58.4748 37.5478 59.6585L37.5373 59.6646C37.1282 59.8901 36.7928 60.3521 36.519 61.0756C36.2544 61.7819 36.1594 62.5393 36.2418 63.2869L36.243 63.2977L37.6553 74.2266L37.6569 74.238C37.7827 75.0296 38.0651 75.6279 38.4926 76.0182C39.0947 76.5662 39.6101 76.4991 39.9363 76.3469L39.9463 76.3412C41.1684 75.7179 42.4086 75.0455 43.6845 74.3088C44.8592 73.6306 46.0646 72.8993 47.3157 72.1054C47.3235 72.1017 47.331 72.0974 47.3381 72.0924C47.6676 71.8398 47.9142 71.495 48.0462 71.1025C48.1916 70.7241 48.2437 70.3168 48.1981 69.9151L47.9951 68.3614ZM47.4854 70.0064C47.5164 70.2949 47.4774 70.587 47.3717 70.8581C47.2886 71.1147 47.1314 71.3415 46.9198 71.51C44.3367 73.1487 41.949 74.5206 39.6274 75.7013C39.5471 75.7387 39.343 75.8227 38.9755 75.4875C38.6707 75.2092 38.4664 74.7493 38.3631 74.1241L36.9478 63.2085C36.879 62.5725 36.9604 61.9285 37.1856 61.3279C37.4414 60.6591 37.6976 60.3985 37.8702 60.2988L37.8758 60.2955C40.2201 59.1067 42.6217 57.7201 45.2258 56.0718C45.4178 55.9741 45.4851 56.0275 45.5233 56.0564C45.6404 56.1444 45.7115 56.2976 45.7408 56.5235L45.9416 58.0735C45.9735 58.3621 45.9345 58.6543 45.8279 58.9253C45.7446 59.1818 45.5875 59.4085 45.376 59.5771C43.8282 60.5588 42.3137 61.4662 40.8743 62.2741L40.8706 62.2763C40.8092 62.3118 40.7596 62.3646 40.7281 62.4281C40.6966 62.4915 40.6846 62.5627 40.6938 62.6327L40.9847 64.8798C40.9921 64.9377 41.0137 64.9928 41.0475 65.0403C41.0813 65.0878 41.1263 65.1263 41.1787 65.1523C41.231 65.1784 41.289 65.1912 41.3475 65.1896C41.4061 65.188 41.4635 65.1722 41.5146 65.1434C42.681 64.4881 43.897 63.768 45.1296 63.0037C45.3193 62.909 45.3878 62.9616 45.4301 62.9948C45.5486 63.0852 45.6204 63.2397 45.6501 63.4662L45.7505 64.2412C45.7815 64.5285 45.7423 64.8194 45.6362 65.0891C45.5537 65.3429 45.3971 65.5669 45.1867 65.7322C43.9622 66.4919 42.7555 67.2067 41.5981 67.856C41.5356 67.8911 41.485 67.944 41.4528 68.0079C41.4206 68.0719 41.4083 68.1438 41.4175 68.2146L41.7079 70.462C41.7153 70.5199 41.7368 70.575 41.7707 70.6225C41.8045 70.67 41.8495 70.7085 41.9018 70.7345C41.9541 70.7605 42.0121 70.7733 42.0707 70.7718C42.1293 70.7702 42.1867 70.7544 42.2378 70.7256C43.6908 69.9097 45.2153 68.9967 46.7714 68.0093C46.9631 67.911 47.0311 67.9656 47.069 67.9939C47.1864 68.0825 47.2571 68.2351 47.2865 68.461L47.4854 70.0064Z" fill="#231F20"/>
<path d="M56.8038 51.5924C57.019 51.3963 57.1784 51.1469 57.2654 50.8698C57.3707 50.5887 57.4093 50.2875 57.3785 49.9897L57.1777 48.4396C57.1495 48.223 57.0823 48.0765 56.9771 48.0048C56.9487 47.9857 56.8834 47.9428 56.6971 48.0578C53.6839 50.2987 51.2238 52.0631 48.9616 53.6063C48.7482 53.7854 48.5898 54.021 48.5048 54.2856C48.3989 54.5594 48.3597 54.854 48.3906 55.1451L48.5918 56.6957C48.6202 56.9172 48.6917 57.071 48.8021 57.1505C48.838 57.1767 48.9046 57.2247 49.0903 57.1216C49.6594 56.7329 50.2547 56.3209 50.86 55.8974C50.9105 55.862 50.9691 55.8402 51.0304 55.8339C51.0916 55.8277 51.1534 55.8373 51.2096 55.8618C51.2659 55.8864 51.3148 55.9249 51.3516 55.9739C51.3885 56.0228 51.412 56.0804 51.4199 56.1412L52.7626 66.4921C52.8084 66.8583 52.9738 66.9883 53.0932 67.056C53.1519 67.0888 53.3274 67.1891 53.7507 66.8879C54.2531 66.5287 54.7563 66.1666 55.2468 65.811C55.6061 65.5434 55.8792 65.1771 56.0324 64.7573C56.2103 64.3007 56.279 63.9046 56.2368 63.5792L54.9007 53.2311C54.8924 53.1677 54.9014 53.1032 54.9267 53.0443C54.952 52.9854 54.9927 52.9342 55.0444 52.8962C55.5846 52.4963 56.1618 52.07 56.8038 51.5924Z" fill="#FCBA28"/>
<path d="M57.2406 52.1567L57.2611 52.1449C57.5787 51.8644 57.8148 51.504 57.9443 51.1018C58.086 50.7165 58.136 50.3041 58.0904 49.8972L57.8899 48.3478C57.8353 47.9217 57.6649 47.6093 57.3852 47.4176C57.2042 47.295 56.8242 47.1374 56.3064 47.4643L56.2828 47.4779C53.2656 49.722 50.8096 51.4833 48.5517 53.0239L48.5293 53.0368C48.2059 53.3005 47.9642 53.6502 47.8325 54.045C47.6881 54.4253 47.6367 54.8339 47.6825 55.237L47.8833 56.787C47.9381 57.209 48.1055 57.5247 48.3808 57.7262C48.5601 57.8574 48.9395 58.0326 49.4611 57.7323L49.4853 57.7183C49.9081 57.4306 50.3451 57.1288 50.7889 56.82L52.0529 66.5841C52.1342 67.2113 52.4708 67.5232 52.7361 67.6713C53.0013 67.8194 53.41 67.9103 53.9678 67.5882C54.0299 67.5523 54.0971 67.5094 54.164 67.4617C54.6683 67.1014 55.1734 66.7382 55.665 66.3819C56.1365 66.0334 56.496 65.5554 56.6992 65.007C56.9209 64.437 57.0054 63.9248 56.9463 63.4782L55.6338 53.3404C56.1322 52.9785 56.6599 52.5883 57.2406 52.1567ZM54.8965 53.231L56.2326 63.5791C56.2748 63.9046 56.2061 64.3007 56.0283 64.7573C55.875 65.177 55.6019 65.5434 55.2426 65.8109C54.7522 66.1665 54.2489 66.5287 53.7465 66.8879C53.3232 67.1891 53.1477 67.0887 53.089 67.056C52.9677 66.9893 52.8079 66.8561 52.7584 66.492L51.4186 56.1461C51.4106 56.0853 51.3871 56.0277 51.3503 55.9787C51.3135 55.9298 51.2646 55.8912 51.2083 55.8667C51.152 55.8422 51.0903 55.8326 51.0291 55.8388C50.9678 55.845 50.9091 55.8669 50.8587 55.9022C50.2534 56.3258 49.658 56.7378 49.0889 57.1265C48.9008 57.231 48.8367 57.1816 48.8008 57.1554C48.6886 57.0728 48.6171 56.919 48.5905 56.7006L48.3893 55.15C48.3584 54.8589 48.3976 54.5643 48.5035 54.2905C48.5885 54.0259 48.7468 53.7903 48.9602 53.6111C51.2219 52.0683 53.6782 50.3061 56.6958 48.0626C56.8789 47.9495 56.9474 47.9906 56.9758 48.0096C57.081 48.0814 57.1481 48.2278 57.1763 48.4445L57.3772 49.9946C57.408 50.2923 57.3693 50.5936 57.2641 50.8747C57.177 51.1518 57.0177 51.4011 56.8025 51.5972C56.1605 52.0749 55.5845 52.5004 55.0389 52.901C54.9882 52.9388 54.9483 52.9892 54.9232 53.0472C54.8982 53.1051 54.889 53.1686 54.8965 53.231Z" fill="#231F20"/>
<path d="M66.247 44.7279C66.2387 44.6653 66.2472 44.6016 66.2717 44.5432C66.2962 44.4848 66.3358 44.4338 66.3864 44.3955C67.0111 43.9311 67.5888 43.5029 68.1535 43.088C68.3684 42.8943 68.5276 42.6471 68.6149 42.3722C68.7203 42.0925 68.759 41.7926 68.7279 41.4962L68.5274 39.9468C68.4991 39.7285 68.4307 39.5812 68.3244 39.5076C68.2936 39.4858 68.2307 39.4415 68.0437 39.5552C65.8768 41.1487 63.678 42.8075 61.5515 44.4122L60.3539 45.3176C60.1376 45.5156 59.9778 45.7673 59.891 46.0467C59.786 46.3284 59.7474 46.6301 59.7781 46.9284L59.9789 48.4784C60.0067 48.6945 60.0741 48.84 60.179 48.9111C60.2064 48.9299 60.2705 48.9735 60.4557 48.8567L62.2178 47.5274C62.2678 47.4898 62.3269 47.4658 62.3889 47.4579C62.451 47.45 62.514 47.4584 62.5716 47.4823C62.6293 47.5063 62.6795 47.5448 62.7174 47.5943C62.7553 47.6437 62.7794 47.7022 62.7875 47.764L64.1278 58.1105C64.1737 58.4684 64.3322 58.5908 64.4477 58.6517C64.5973 58.73 64.8189 58.6663 65.1006 58.4542C65.5983 58.0796 66.0963 57.7054 66.5944 57.3317C66.9555 57.0569 67.2294 56.6841 67.3828 56.2583C67.5602 55.7995 67.6322 55.3991 67.5869 55.0754L66.247 44.7279Z" fill="#FCBA28"/>
<path d="M66.9829 44.8405C67.546 44.4215 68.0728 44.0326 68.5885 43.6534L68.609 43.6415C68.9272 43.3643 69.164 43.0061 69.2939 42.6057C69.4364 42.2214 69.4869 41.8098 69.4414 41.4036L69.2406 39.8536C69.1853 39.4278 69.0158 39.1141 68.7368 38.9221C68.556 38.7968 68.1745 38.6368 67.6578 38.9598L67.6342 38.9734C65.4601 40.5719 63.2552 42.2359 61.1235 43.8444L59.9116 44.7581L59.8922 44.7734C59.5758 45.0557 59.3408 45.4171 59.2118 45.8198C59.0705 46.2055 59.0206 46.618 59.0661 47.025L59.2665 48.5745C59.3216 49.0012 59.492 49.3135 59.7725 49.5039C59.9545 49.6268 60.3386 49.7829 60.853 49.4488L60.8748 49.4362L62.1555 48.4696L63.4151 58.2017C63.497 58.8327 63.836 59.1358 64.1057 59.2788C64.3563 59.4116 64.7523 59.4892 65.2816 59.1836C65.3671 59.1341 65.4493 59.0791 65.5279 59.0192L67.0202 57.8983C67.4883 57.5419 67.8449 57.0598 68.0477 56.5091C68.2721 55.9293 68.3527 55.4276 68.2947 54.9771L66.9829 44.8405ZM67.5831 55.0759C67.6252 55.4014 67.5564 55.8001 67.379 56.2589C67.2255 56.6846 66.9517 57.0575 66.5906 57.3322C66.0922 57.7056 65.5943 58.0798 65.0968 58.4548C64.8151 58.6668 64.5952 58.7337 64.4439 58.6523C64.3265 58.5925 64.1717 58.4678 64.1239 58.111L62.7837 47.7645C62.7756 47.7027 62.7514 47.6442 62.7136 47.5948C62.6757 47.5454 62.6254 47.5068 62.5678 47.4829C62.5102 47.459 62.4472 47.4505 62.3851 47.4585C62.323 47.4664 62.264 47.4903 62.214 47.528L60.4519 48.8573C60.2698 48.9723 60.2026 48.9304 60.1752 48.9117C60.0703 48.8405 60.0029 48.695 59.9751 48.479L59.7743 46.929C59.7436 46.6307 59.7822 46.329 59.8872 46.0472C59.974 45.7679 60.1337 45.5162 60.3501 45.3182L61.5496 44.4133C63.6761 42.8086 65.8768 41.1487 68.0419 39.5562C68.2257 39.4443 68.2917 39.4869 68.3225 39.5086C68.4288 39.5823 68.4973 39.7296 68.5256 39.9478L68.726 41.4973C68.7571 41.7937 68.7184 42.0936 68.6131 42.3732C68.5258 42.6482 68.3665 42.8954 68.1517 43.089C67.587 43.504 67.0093 43.9322 66.3845 44.3966C66.3339 44.4349 66.2944 44.4858 66.2699 44.5442C66.2454 44.6026 66.2368 44.6664 66.2451 44.729L67.5831 55.0759Z" fill="#231F20"/>
<path d="M76.1523 49.9672C76.3289 49.5286 76.3916 49.1335 76.3384 48.7946C76.337 48.7919 76.3355 48.7892 76.3338 48.7866L74.6789 35.9771C74.677 35.9746 74.6754 35.9719 74.6743 35.969C74.6346 35.5804 74.4711 35.4435 74.3515 35.3726C74.299 35.342 74.1479 35.2539 73.8006 35.4544C73.7615 35.477 73.7187 35.5017 73.6759 35.5338C73.2014 35.8596 72.7086 36.2026 72.2068 36.5557C71.8408 36.8154 71.5619 37.1793 71.4071 37.5993C71.2303 38.0463 71.1669 38.4401 71.2185 38.7676C71.2204 38.7703 71.2221 38.7732 71.2235 38.7762L72.8821 51.5836L72.8826 51.5932C72.9237 51.9942 73.0835 52.1275 73.2005 52.1925C73.3564 52.2803 73.5826 52.2188 73.8764 52.0146C74.3807 51.6601 74.8796 51.3135 75.3538 50.9871C75.7171 50.7352 75.9956 50.3795 76.1523 49.9672Z" fill="#FCBA28"/>
<path d="M75.7564 51.5753C76.2364 51.2425 76.6057 50.7741 76.8164 50.2308C77.0413 49.6721 77.1182 49.1511 77.0471 48.6851L75.3891 35.8872C75.3216 35.2381 74.9915 34.9117 74.719 34.7554C74.4308 34.5876 73.9454 34.4843 73.2737 34.9462C72.7995 35.2726 72.303 35.6177 71.7963 35.9737C71.3176 36.316 70.9519 36.7926 70.746 37.3423C70.5224 37.9076 70.4435 38.4223 70.5157 38.8787L72.1721 51.6766C72.2284 52.2145 72.4559 52.5985 72.8485 52.8179C73.1071 52.9633 73.525 53.0529 74.0965 52.723C74.1586 52.6871 74.2227 52.646 74.2887 52.5997C74.7891 52.2441 75.2831 51.9004 75.7564 51.5753ZM73.8764 52.0146C73.5818 52.2217 73.3564 52.2803 73.2005 52.1925C73.081 52.1289 72.9212 51.9956 72.8826 51.5932L72.8821 51.5836L71.2239 38.7768C71.2225 38.7738 71.2208 38.7709 71.2189 38.7682C71.1673 38.4407 71.2307 38.0469 71.4074 37.6C71.5631 37.1782 71.8438 36.8132 72.2121 36.5534C72.7139 36.2003 73.2086 35.8563 73.6812 35.5316C73.7251 35.5013 73.7669 35.4747 73.806 35.4521C74.1532 35.2516 74.3043 35.3397 74.3568 35.3704C74.4795 35.4394 74.6425 35.5783 74.6796 35.9668C74.6808 35.9696 74.6823 35.9723 74.6842 35.9748L76.3418 48.7819C76.3435 48.7845 76.3451 48.7872 76.3465 48.79C76.3997 49.1288 76.337 49.5239 76.1604 49.9625C76.0033 50.3756 75.7239 50.7319 75.3594 50.9839C74.8772 51.315 74.3807 51.6601 73.8764 52.0146Z" fill="#231F20"/>
<path d="M87.7889 43.0916C87.9716 42.6906 88.0367 42.3271 87.9913 41.9788L86.3347 29.1891C86.2944 28.8741 86.1855 28.6439 85.9976 28.489C85.8611 28.4032 85.6384 28.3203 85.2605 28.5121C84.7768 28.7576 84.273 29.0197 83.765 29.2932C83.414 29.4859 83.1413 29.7948 82.9943 30.1662C82.8174 30.577 82.7478 30.9629 82.7928 31.3106L83.1802 34.2971C83.1908 34.3783 83.173 34.4609 83.1297 34.5309C83.0865 34.6009 83.0205 34.6541 82.9428 34.6814C82.8651 34.7088 82.7805 34.7087 82.7031 34.6812C82.6258 34.6537 82.5605 34.6004 82.5181 34.5304C81.9024 33.517 81.2848 32.5047 80.6828 31.5222C80.5065 31.3704 80.2658 31.269 79.8471 31.5338C79.3559 31.8306 78.8569 32.1384 78.3607 32.4496C78.0042 32.6781 77.7309 33.0152 77.5819 33.4104C77.4027 33.8431 77.3354 34.2416 77.3809 34.5916L79.0375 47.3812C79.0782 47.6869 79.1907 47.8903 79.3859 48.0089C79.4474 48.0466 79.6304 48.1599 80.0622 47.8892C80.5605 47.576 81.0623 47.2674 81.553 46.9709C81.9067 46.7539 82.1805 46.4283 82.3327 46.0433C82.512 45.6221 82.5798 45.2331 82.5348 44.887L82.1474 41.9006C82.1373 41.8196 82.1552 41.7375 82.1984 41.668C82.2415 41.5984 82.3072 41.5455 82.3844 41.5181C82.4617 41.4907 82.5459 41.4905 82.623 41.5175C82.7001 41.5445 82.7655 41.597 82.8082 41.6664C83.4287 42.6795 84.0473 43.6936 84.6468 44.6818C84.8267 44.8413 85.0726 44.9545 85.5032 44.7117L85.5094 44.7081C86.0156 44.4372 86.5247 44.1713 87.0191 43.9187C87.3652 43.7418 87.6379 43.4488 87.7889 43.0916Z" fill="#FCBA28"/>
<path d="M88.4408 43.3828C88.6754 42.8654 88.7623 42.3616 88.7018 41.8838L87.0452 29.0942C86.9802 28.5885 86.7739 28.1939 86.4354 27.9218C86.4268 27.9146 86.4178 27.908 86.4083 27.9021C86.1067 27.7025 85.6062 27.5371 84.9389 27.8763C84.45 28.124 83.9418 28.3886 83.4292 28.6656C82.9354 28.9351 82.5498 29.3666 82.3383 29.8864C82.107 30.4183 82.0216 30.9303 82.083 31.4068L82.2531 32.7128C81.9225 32.1703 81.5924 31.6316 81.2683 31.1018C81.2514 31.0744 81.2309 31.0494 81.2073 31.0275C80.7139 30.5675 80.0938 30.5337 79.4732 30.9249C78.9823 31.2223 78.4811 31.5306 77.9818 31.8436C77.4987 32.1526 77.1266 32.6071 76.9201 33.1406C76.6933 33.6905 76.61 34.2102 76.6706 34.6839L78.3272 47.4735C78.3952 47.9973 78.6252 48.3814 79.0097 48.6155C79.2934 48.7899 79.7721 48.9103 80.4389 48.4916C80.9345 48.1807 81.4326 47.8742 81.9198 47.579C82.4012 47.2834 82.7749 46.8413 82.9853 46.3185C83.2145 45.7787 83.2995 45.2646 83.2382 44.7912L83.0684 43.4785C83.4004 44.0235 83.73 44.5641 84.054 45.0981C84.0703 45.1247 84.0899 45.149 84.1124 45.1706C84.455 45.4971 85.0344 45.7906 85.844 45.3364C86.3449 45.0678 86.8471 44.8058 87.3357 44.5574C87.3742 44.5352 87.4139 44.5164 87.4518 44.4945C87.8919 44.2386 88.2386 43.8488 88.4408 43.3828ZM87.017 43.9208C86.5221 44.1711 86.0143 44.4363 85.5072 44.7101L85.501 44.7137C85.0705 44.9565 84.8246 44.8433 84.6447 44.6838C84.0452 43.6956 83.4266 42.6815 82.8061 41.6684C82.7633 41.5991 82.698 41.5465 82.6209 41.5195C82.5438 41.4925 82.4596 41.4928 82.3823 41.5201C82.305 41.5475 82.2394 41.6004 82.1962 41.67C82.1531 41.7396 82.1351 41.8217 82.1453 41.9026L82.5327 44.8891C82.5776 45.2352 82.5098 45.6242 82.3306 46.0454C82.1783 46.4303 81.9046 46.756 81.5509 46.973C81.0596 47.2698 80.5584 47.5781 80.0601 47.8913C79.6308 48.1605 79.4478 48.0473 79.3837 48.011C79.1885 47.8924 79.075 47.6871 79.0354 47.3832L77.3788 34.5936C77.3333 34.2437 77.4013 33.8464 77.5798 33.4124C77.7288 33.0172 78.002 32.6801 78.3586 32.4516C78.8548 32.1405 79.3525 31.8334 79.845 31.5358C80.264 31.2717 80.5044 31.3724 80.6806 31.5242C81.2827 32.5068 81.9003 33.519 82.516 34.5324C82.5583 34.6025 82.6237 34.6557 82.701 34.6833C82.7784 34.7108 82.863 34.7108 82.9407 34.6835C83.0184 34.6561 83.0844 34.603 83.1276 34.533C83.1709 34.463 83.1887 34.3804 83.1781 34.2991L82.7907 31.3126C82.7456 30.9649 82.8134 30.5801 82.9922 30.1682C83.1392 29.7968 83.4119 29.4879 83.7629 29.2953C84.2687 29.0238 84.7782 28.7584 85.2583 28.5142C85.6363 28.3223 85.8579 28.405 85.9954 28.4911C86.1816 28.647 86.2923 28.8761 86.3326 29.1912L87.9892 41.9808C88.0345 42.3291 87.9682 42.6934 87.7868 43.0936C87.6358 43.4508 87.3631 43.7438 87.017 43.9208Z" fill="#231F20"/>
<path d="M98.3147 31.1687C97.9904 30.9098 97.5226 30.8614 96.9245 31.0248C96.3264 31.1882 95.7187 31.3464 95.1134 31.5288C94.9763 31.5783 94.6093 31.7301 94.7217 32.7427C94.8423 33.8394 95.0061 34.0272 95.026 34.0486C95.1249 34.1281 95.1557 34.1112 95.1691 34.1043C95.2202 34.0766 95.2772 34.0617 95.3353 34.0609C95.3933 34.0601 95.4506 34.0733 95.5022 34.0995C95.5538 34.1256 95.5982 34.1639 95.6316 34.2111C95.6649 34.2583 95.6862 34.3128 95.6937 34.3702L95.9693 36.5018C95.9787 36.5795 95.9621 36.6583 95.9222 36.726C95.8822 36.7937 95.8211 36.8465 95.7483 36.8763C95.2803 37.07 94.8951 37.0957 94.5727 36.9533C94.515 36.9279 94.4652 36.8877 94.4283 36.8367C94.2329 36.5684 94.0752 36.1878 93.9461 35.673C93.8276 35.2023 93.7238 34.714 93.6368 34.2234C93.6357 34.2182 93.6348 34.2129 93.6343 34.2076L93.3212 31.7988L93.3197 31.7833C93.2765 31.2781 93.2518 30.7647 93.2438 30.2574C93.2343 29.713 93.283 29.2766 93.391 28.9229C93.3998 28.8947 93.4121 28.8678 93.4275 28.8426C93.6585 28.4623 94.0409 28.3485 94.4059 28.5575C94.4186 28.5651 94.4306 28.5729 94.442 28.5812C94.624 28.7172 94.7193 28.9898 94.7792 29.5512C94.9365 30.2226 95.2287 30.1864 95.4138 30.1511C96.2556 29.9121 97.1002 29.6936 97.9307 29.5096C98.1782 29.426 98.4515 29.2352 98.4299 28.5308L98.2649 27.2407C98.1064 26.4367 97.8707 25.832 97.5596 25.4453C97.2709 25.0719 96.8666 24.8041 96.409 24.6831C95.9202 24.5538 95.3633 24.5534 94.7523 24.693C94.0862 24.885 93.4029 25.1001 92.7199 25.3331C91.8629 25.6879 91.1782 26.3096 90.6825 27.181C90.1701 28.094 89.8512 29.1014 89.7455 30.1403C89.6259 31.1744 89.6174 32.2177 89.7201 33.2524L90.0599 35.8795C90.204 36.8241 90.4653 37.7465 90.8378 38.6257C91.1938 39.4647 91.6857 40.0713 92.3427 40.4805C92.9586 40.8658 93.6849 40.9403 94.5659 40.7016C95.9422 40.2363 97.3178 39.8372 98.6586 39.5199C98.8431 39.4411 99.0008 39.3106 99.1126 39.1442C99.4866 38.5082 99.6318 37.7651 99.5242 37.0381L98.9217 32.388C98.8573 31.849 98.6508 31.4381 98.3147 31.1687Z" fill="#FCBA28"/>
<path d="M99.6376 32.2924C99.5435 31.5656 99.2501 30.9999 98.765 30.6116C98.5236 30.4187 98.2357 30.2919 97.9296 30.2436L98.0982 30.2056C98.1089 30.2035 98.1195 30.2007 98.1298 30.1972C98.6188 30.04 99.1851 29.6192 99.1435 28.4884C99.1428 28.4772 99.1426 28.4667 99.1409 28.4553L98.9702 27.1381C98.9666 27.1319 98.968 27.1229 98.9663 27.1156C98.7862 26.194 98.5024 25.4829 98.1221 25.0036C97.7392 24.5123 97.2059 24.159 96.6025 23.9969C95.9961 23.8317 95.3171 23.8336 94.5852 24.0018L94.5665 24.0068C93.8828 24.204 93.1824 24.424 92.4839 24.6618L92.4629 24.6699C91.4487 25.0867 90.6396 25.8156 90.066 26.8307C89.5048 27.8285 89.1555 28.93 89.04 30.0661C88.9161 31.1513 88.9095 32.246 89.0202 33.3313L89.0238 33.3375L89.3577 35.9803C89.3592 35.9822 89.3604 35.9843 89.3613 35.9865C89.5141 36.9911 89.7917 37.9722 90.1878 38.9072C90.5969 39.8711 91.1964 40.604 91.971 41.0878C92.7526 41.5806 93.6979 41.6802 94.7717 41.3895L94.7934 41.3827C96.1595 40.9183 97.5273 40.5229 98.8571 40.2095C98.8731 40.2059 98.8889 40.201 98.9041 40.1947C98.9851 40.1633 99.0637 40.1257 99.1389 40.0822C99.3709 39.9461 99.5694 39.7601 99.7199 39.5376L99.7337 39.5157C100.191 38.7394 100.372 37.8325 100.245 36.9438L99.6376 32.2924ZM99.1198 39.1425C99.0081 39.3088 98.8504 39.4394 98.6659 39.5182C97.325 39.8355 95.9484 40.2327 94.5732 40.6999C93.6927 40.9366 92.9658 40.864 92.35 40.4788C91.693 40.0696 91.2011 39.463 90.8451 38.624C90.4726 37.7448 90.2113 36.8224 90.0671 35.8778L89.7273 33.2507C89.6247 32.216 89.6332 31.1727 89.7528 30.1386C89.8585 29.0996 90.1774 28.0923 90.6897 27.1793C91.1855 26.3079 91.8702 25.6862 92.7272 25.3313C93.4091 25.1023 94.091 24.8847 94.7596 24.6913C95.3706 24.5517 95.9279 24.5485 96.4163 24.6814C96.8739 24.8024 97.2782 25.0702 97.5669 25.4435C97.8743 25.8324 98.1106 26.4368 98.2722 27.239L98.4372 28.529C98.4588 29.2335 98.1855 29.4243 97.938 29.5078C97.1075 29.6919 96.2633 29.9068 95.4211 30.1494C95.2366 30.1843 94.9438 30.2208 94.7865 29.5495C94.7266 28.9881 94.6313 28.7155 94.4492 28.5794C94.4379 28.5712 94.4258 28.5633 94.4132 28.5558C94.0451 28.3486 93.6647 28.4587 93.4348 28.8408C93.4194 28.866 93.4071 28.893 93.3983 28.9212C93.2903 29.2749 93.2416 29.7113 93.2511 30.2557C93.2591 30.763 93.2844 31.276 93.3269 31.7815L93.3285 31.7971L93.639 34.1999C93.6395 34.2053 93.6404 34.2106 93.6415 34.2158C93.7279 34.7067 93.8323 35.1946 93.9508 35.6653C94.0818 36.1791 94.2376 36.5608 94.433 36.829C94.4699 36.88 94.5197 36.9203 94.5774 36.9457C94.9001 37.0886 95.2844 37.0627 95.753 36.8687C95.8258 36.8389 95.8869 36.786 95.9269 36.7183C95.9668 36.6507 95.9834 36.5719 95.9741 36.4941L95.6984 34.3625C95.6909 34.3052 95.6696 34.2506 95.6363 34.2034C95.6029 34.1563 95.5585 34.118 95.5069 34.0918C95.4553 34.0656 95.398 34.0524 95.34 34.0533C95.2819 34.0541 95.2249 34.069 95.1738 34.0966C95.1607 34.1042 95.1303 34.1217 95.0307 34.041C95.0126 34.0226 94.8487 33.8349 94.7264 32.735C94.6172 31.7281 94.9847 31.5727 95.1181 31.5212C95.7224 31.3369 96.3308 31.17 96.9292 31.0171C97.5276 30.8642 97.9951 30.9022 98.3194 31.1611C98.6562 31.4317 98.862 31.8413 98.9318 32.3797L99.5343 37.0298C99.6423 37.7598 99.4953 38.506 99.118 39.1435L99.1198 39.1425ZM94.9489 30.8336L94.9028 30.847L94.8879 30.8556C94.5558 30.9733 94.1937 31.24 94.0519 31.8322L94.0373 31.7179C93.9965 31.2312 93.9692 30.7391 93.9644 30.2488C93.9544 29.9448 93.9761 29.6405 94.029 29.3407C94.0434 29.4187 94.0583 29.5221 94.0719 29.6575C94.0734 29.6716 94.0757 29.6857 94.0788 29.6996C94.2406 30.4317 94.5968 30.7331 94.947 30.8347L94.9489 30.8336ZM95.2187 36.3005C95.13 36.3244 95.0376 36.3314 94.9465 36.3211C94.8062 36.0608 94.7028 35.7823 94.6393 35.4934C94.548 35.1345 94.4692 34.7685 94.3975 34.4033C94.4433 34.4764 94.5005 34.5417 94.5671 34.5967C94.6967 34.7092 94.8546 34.7844 95.0241 34.8144L95.2187 36.3005Z" fill="#231F20"/>
</svg>
