<svg xmlns="http://www.w3.org/2000/svg" width="99" height="149" viewBox="0 0 99 149" fill="none">
<path d="M65.2674 44.8292C69.6552 44.8292 73.2122 41.2742 73.2122 36.889C73.2122 32.5037 69.6552 28.9487 65.2674 28.9487C60.8796 28.9487 57.3225 32.5037 57.3225 36.889C57.3225 41.2742 60.8796 44.8292 65.2674 44.8292Z" fill="#231F20"/>
<path d="M65.2674 21.1445C56.5879 21.1445 49.5137 28.2009 49.5137 36.889C49.5137 43.4559 53.6494 49.3839 59.7985 51.6545C60.1114 51.7769 60.3018 52.1032 60.2338 52.4295C60.1658 52.7286 60.1386 53.0141 60.1386 53.3132C60.057 60.1386 60.0298 66.7599 59.9889 73.1638C59.9481 82.1509 59.9073 90.635 59.7441 99.7037C59.7033 102.015 59.404 105.536 58.1932 109.18C57.0504 112.647 55.3771 115.312 53.2413 117.093C50.6701 119.228 47.5275 120.017 43.8952 119.432C38.5623 118.562 34.2634 115.013 32.9302 110.377C32.3044 108.188 32.1548 105.713 32.5357 103.415C32.9438 100.846 33.9505 98.6432 35.447 97.0388C35.651 96.8213 35.9911 96.7533 36.2632 96.9029C37.3244 97.4467 38.2903 98.2761 39.2153 99.1326C38.2086 95.3529 36.7938 87.7662 39.1473 80.8321C40.3445 77.3378 40.3717 74.5778 40.2085 72.9734C38.0182 76.0598 34.726 80.2746 34.6851 80.3154C34.1546 80.9952 33.624 81.6614 33.0935 82.3413C29.8012 86.5153 26.6995 90.4582 24.482 95.1761C22.1285 100.193 21.285 105.904 22.1149 111.261C22.9991 116.903 25.6248 121.811 29.7196 125.441C34.4267 129.602 40.4261 131.655 46.4256 131.655C53.4861 131.655 60.5467 128.827 65.485 123.293C66.6006 122.042 67.5937 120.696 68.4371 119.269C72.3824 112.62 72.1919 104.598 72.0151 96.8349L71.947 93.7077C71.7566 85.346 71.5661 76.6852 71.1988 68.1876C71.0083 63.8096 70.7635 58.6294 70.3826 53.3948C70.3553 53.0957 70.3145 52.8102 70.2465 52.5111C70.1649 52.1712 70.3417 51.8312 70.6682 51.7089C76.8445 49.4519 81.0074 43.5103 81.0074 36.9297C81.0074 28.2009 73.9469 21.1445 65.2674 21.1445ZM65.2674 46.1752C60.1386 46.1752 55.9621 42.0012 55.9621 36.8754C55.9621 31.7496 60.1386 27.5755 65.2674 27.5755C70.3962 27.5755 74.5726 31.7496 74.5726 36.8754C74.5726 42.0012 70.3962 46.1752 65.2674 46.1752Z" fill="#231F20"/>
<path d="M65.2674 19.7849C55.8397 19.7849 48.1533 27.4531 48.1533 36.889C48.1533 40.4512 49.2416 43.8638 51.2959 46.7734C53.2005 49.4519 55.7853 51.5049 58.8054 52.7286C58.7782 52.9189 58.7782 53.1093 58.7646 53.2996C58.6829 60.125 58.6557 66.7463 58.6149 73.1502C58.5741 82.1373 58.5333 90.6214 58.37 99.6765C58.2204 108.174 55.1595 113.708 52.357 116.046C50.1123 117.923 47.3234 118.602 44.0993 118.086C39.2834 117.297 35.4062 114.129 34.2226 109.996C32.8486 105.21 34.1682 100.723 36.0728 98.3577C37.0115 98.9423 37.9366 99.8125 38.8344 100.642C39.2562 101.036 39.6915 101.444 40.1268 101.811C40.3581 102.001 40.6846 102.029 40.9431 101.865C41.2152 101.689 41.324 101.362 41.2152 101.063C41.1743 100.955 37.3244 90.3087 40.4125 81.2536C42.494 75.1488 41.2696 71.1651 41.2152 71.002C41.1335 70.7572 40.9159 70.5669 40.6574 70.5397C40.3989 70.4989 40.1404 70.6213 39.9908 70.8388C38.0182 73.7892 33.624 79.4181 33.5832 79.486C33.0526 80.1659 32.5221 80.8321 32.0051 81.4983C28.8081 85.55 25.5023 89.7376 23.2304 94.6051C20.7545 99.8668 19.8702 105.863 20.7408 111.464C21.6659 117.42 24.4548 122.613 28.7945 126.448C33.7601 130.839 40.086 132.987 46.3984 132.987C53.8399 132.987 61.2677 130.01 66.4781 124.191C67.6481 122.872 68.6956 121.444 69.5935 119.949C73.7428 112.974 73.5387 104.367 73.3619 96.7941L73.2939 93.6669C73.1034 85.2916 72.9129 76.6308 72.5456 68.1196C72.3552 63.728 72.1103 58.5342 71.7158 53.2724C71.7022 53.0957 71.6886 52.9325 71.6613 52.7558C78.0689 50.1589 82.3406 43.8638 82.3406 36.9026C82.3678 27.4531 74.6951 19.7849 65.2674 19.7849ZM70.6682 51.6681C70.3417 51.7905 70.1513 52.1304 70.2465 52.4703C70.3145 52.7558 70.3689 53.0549 70.3826 53.354C70.7771 58.5886 71.0219 63.7688 71.1988 68.1468C71.5661 76.6444 71.7566 85.2916 71.947 93.6669L72.0151 96.7941C72.1919 104.558 72.3824 112.579 68.4371 119.228C67.5937 120.656 66.6006 122.015 65.485 123.252C60.5331 128.786 53.4861 131.614 46.4256 131.614C40.4261 131.614 34.4131 129.575 29.7196 125.401C25.6248 121.77 22.9855 116.876 22.1149 111.22C21.285 105.876 22.1285 100.166 24.482 95.1353C26.6995 90.4174 29.8148 86.4745 33.0935 82.3005C33.624 81.6343 34.1546 80.9544 34.6851 80.2746C34.726 80.2202 38.0182 76.0054 40.2085 72.9326C40.3581 74.537 40.3445 77.297 39.1473 80.7913C36.7802 87.7254 38.2086 95.2985 39.2153 99.0919C38.2767 98.2353 37.3108 97.4059 36.2632 96.8621C35.9911 96.7261 35.6646 96.7805 35.447 96.998C33.9505 98.6024 32.9438 100.819 32.5357 103.375C32.1684 105.686 32.3044 108.161 32.9302 110.336C34.2634 114.972 38.5623 118.535 43.8952 119.391C47.5275 119.989 50.6837 119.201 53.2413 117.053C55.3771 115.271 57.0504 112.607 58.1932 109.139C59.3904 105.496 59.7033 101.974 59.7441 99.6629C59.9073 90.5942 59.9481 82.1101 59.9889 73.123C60.0162 66.7192 60.057 60.0978 60.1386 53.2724C60.1386 52.9869 60.1794 52.6878 60.2338 52.3887C60.3018 52.0624 60.125 51.7225 59.7985 51.6137C53.6494 49.3431 49.5137 43.4016 49.5137 36.8482C49.5137 28.1738 56.5743 21.1037 65.2674 21.1037C73.9605 21.1037 81.021 28.1602 81.021 36.8482C81.0074 43.4695 76.8581 49.4111 70.6682 51.6681Z" fill="#231F20"/>
<path d="M65.2674 27.5891C60.1386 27.5891 55.9621 31.7632 55.9621 36.889C55.9621 42.0147 60.1386 46.1888 65.2674 46.1888C70.3962 46.1888 74.5726 42.0147 74.5726 36.889C74.5726 31.7632 70.3962 27.5891 65.2674 27.5891ZM65.2674 44.8156C60.8868 44.8156 57.3225 41.2534 57.3225 36.8754C57.3225 32.4974 60.8868 28.9351 65.2674 28.9351C69.6479 28.9351 73.2122 32.4974 73.2122 36.8754C73.1986 41.267 69.6479 44.8156 65.2674 44.8156Z" fill="#231F20"/>
<path d="M92.7362 33.0933C92.7362 28.8105 91.8928 24.6636 90.2331 20.7343C88.6278 16.9545 86.3423 13.5691 83.431 10.6595C80.5197 7.74987 77.1322 5.4657 73.3503 3.86134C69.4323 2.20259 65.2694 1.35963 60.9977 1.35963C56.7123 1.35963 52.5631 2.20259 48.6314 3.86134C44.8495 5.4657 41.462 7.74987 38.5507 10.6595C35.6394 13.5691 33.3539 16.9545 31.7486 20.7343C30.0889 24.65 29.2455 28.8105 29.2455 33.0933C29.2455 34.7113 29.3679 36.3292 29.6128 37.9064C30.7011 45.0716 28.7965 52.3184 24.3888 57.7977C24.1031 58.1512 23.831 58.5183 23.5861 58.899C22.3618 60.7345 19.396 64.623 17.818 66.6489L17.8043 66.6625C17.301 67.3151 16.7976 67.9541 16.2671 68.6203C12.73 73.1071 8.73035 78.1785 5.73743 84.5552C3.88726 88.4845 2.63567 92.6449 2.00988 96.9413C1.35688 101.292 1.37048 105.643 2.02348 109.899C2.7173 114.372 4.11853 118.641 6.18636 122.557C8.39024 126.744 11.3015 130.456 14.8386 133.583C18.9879 137.254 23.7766 140.001 29.0958 141.727C33.2995 143.101 37.6801 143.794 42.1286 143.794C42.9857 143.794 43.87 143.767 44.727 143.712C50.0599 143.386 55.1887 142.095 59.9909 139.865C65.0517 137.513 69.4731 134.236 73.1598 130.116C74.9692 128.104 76.5745 125.901 77.9485 123.59C80.887 118.641 82.6827 113.012 83.4174 106.404C83.9615 101.482 83.8663 96.7782 83.7711 92.6313L83.7031 89.5042C83.5126 81.0473 83.3221 72.3185 82.9412 63.6713C82.914 63.1138 82.8868 62.5292 82.8596 61.9446C82.71 58.6679 83.7575 55.4456 85.7981 52.8895C86.1654 52.4272 86.5327 51.9513 86.8728 51.4619C90.7092 46.0777 92.7362 39.7147 92.7362 33.0933ZM67.4188 48.9329C67.446 49.1097 67.4597 49.2729 67.4733 49.4496C67.8678 54.6978 68.1127 59.9051 68.3031 64.2967C68.6704 72.808 68.8609 81.4688 69.0513 89.8441L69.1194 92.9712C69.2962 100.558 69.4867 109.151 65.351 116.126C64.4531 117.635 63.4056 119.062 62.2356 120.368C57.0252 126.187 49.5837 129.164 42.1559 129.164C35.8299 129.164 29.504 127.016 24.552 122.625C20.2123 118.777 17.437 113.597 16.4983 107.642C15.6277 102.026 16.5119 96.044 18.9879 90.7822C21.2734 85.9148 24.5792 81.7271 27.7626 77.6754C28.2932 77.0092 28.8237 76.3294 29.3407 75.6632C29.3815 75.6088 33.7893 69.98 35.7483 67.016C35.8979 66.7984 36.1564 66.6897 36.4149 66.7169C36.6734 66.7576 36.891 66.9344 36.9727 67.1791C37.0271 67.3423 38.2378 71.3396 36.17 77.4307C33.0819 86.4994 36.9318 97.1317 36.9727 97.2405C37.0815 97.5396 36.9727 97.8795 36.7006 98.0426C36.4421 98.2058 36.1156 98.1786 35.8843 97.9883C35.4626 97.6212 35.0137 97.2133 34.5919 96.819C33.694 95.976 32.769 95.1194 31.8303 94.5348C29.9257 96.9142 28.5925 101.387 29.9801 106.173C31.1637 110.306 35.0409 113.488 39.8567 114.263C43.0809 114.793 45.8698 114.1 48.1145 112.224C50.917 109.885 53.9643 104.351 54.1275 95.8536C54.2908 86.7985 54.3316 78.3145 54.3724 69.3273C54.3996 62.9235 54.4404 56.2885 54.5221 49.4768C54.5221 49.2864 54.5357 49.0961 54.5629 48.9058C51.5427 47.6821 48.958 45.6291 47.0534 42.9506C44.9991 40.0546 43.9108 36.6419 43.9108 33.0661C43.9108 23.6439 51.5836 15.962 61.0249 15.962C70.4662 15.962 78.0981 23.6575 78.0981 33.0933C78.0981 40.041 73.8264 46.3361 67.4188 48.9329Z" fill="#7B5EA7"/>
<path d="M60.9977 41.0335C65.3855 41.0335 68.9425 37.4786 68.9425 33.0933C68.9425 28.708 65.3855 25.1531 60.9977 25.1531C56.6098 25.1531 53.0528 28.708 53.0528 33.0933C53.0528 37.4786 56.6098 41.0335 60.9977 41.0335Z" fill="#7B5EA7"/>
<path d="M91.4983 20.204C89.825 16.2611 87.4442 12.7261 84.4105 9.69414C81.3767 6.66217 77.8397 4.28282 73.8944 2.61048C69.7996 0.883757 65.4598 0 60.9977 0C56.5355 0 52.1957 0.883757 48.1009 2.61048C44.1557 4.28282 40.6186 6.66217 37.5848 9.69414C34.5511 12.7261 32.1704 16.2611 30.4971 20.204C28.7693 24.2965 27.8851 28.6337 27.8851 33.0933C27.8851 34.7792 28.0075 36.4652 28.266 38.1103C29.2999 44.8949 27.4905 51.761 23.3276 56.9547C23.0148 57.3354 22.7155 57.7433 22.4434 58.1512C21.2326 59.9595 18.3077 63.8073 16.7296 65.8195L16.7024 65.8467C16.2127 66.4857 15.7093 67.1112 15.1787 67.791C11.6008 72.3321 7.54678 77.4715 4.48584 83.9977C2.58125 88.0494 1.28885 92.3458 0.635853 96.7646C-0.0171478 101.238 -0.00354363 105.725 0.676666 110.116C1.39769 114.739 2.83973 119.144 4.97559 123.196C7.2611 127.533 10.2676 131.367 13.9272 134.617C18.2125 138.41 23.1644 141.238 28.6605 143.046C33.0002 144.46 37.5304 145.181 42.115 145.181C42.9993 145.181 43.9108 145.154 44.7951 145.099C50.2912 144.773 55.5968 143.427 60.5487 141.129C65.7727 138.695 70.3437 135.31 74.1529 131.054C76.0167 128.974 77.6764 126.704 79.1048 124.311C82.1386 119.185 83.9888 113.393 84.7506 106.581C85.3084 101.578 85.1995 96.819 85.1043 92.6177L85.0499 89.4634C84.8594 81.0201 84.669 72.2777 84.288 63.6033C84.2608 63.0459 84.2336 62.4612 84.2064 61.8766C84.0704 58.9262 85.0091 56.0302 86.8592 53.7324C87.2402 53.2566 87.6211 52.7535 87.9748 52.2504C91.9744 46.6216 94.0967 40.0002 94.0967 33.0797C94.0967 28.6337 93.226 24.2965 91.4983 20.204ZM82.8596 61.9446C82.8868 62.5292 82.914 63.1003 82.9412 63.6713C83.3085 72.3321 83.5126 81.0609 83.7031 89.5042L83.7711 92.6313C83.8663 96.7782 83.9751 101.496 83.4174 106.404C82.6827 113.012 80.887 118.641 77.9485 123.59C76.5745 125.901 74.9556 128.104 73.1598 130.116C69.4731 134.236 65.0517 137.513 59.9909 139.865C55.1887 142.095 50.0599 143.4 44.727 143.712C43.8564 143.767 42.9857 143.794 42.1286 143.794C37.6937 143.794 33.2995 143.101 29.0958 141.727C23.7766 139.987 18.9879 137.241 14.8386 133.583C11.3015 130.456 8.39024 126.744 6.18636 122.557C4.11853 118.627 2.7309 114.372 2.02348 109.899C1.37048 105.643 1.35688 101.292 1.99627 96.9549C2.63567 92.6585 3.88726 88.4981 5.72382 84.5687C8.71674 78.1921 12.73 73.1071 16.2535 68.6339C16.784 67.9677 17.2874 67.3287 17.7907 66.6761L17.8043 66.6625C19.3824 64.6366 22.3481 60.7481 23.5725 58.9126C23.831 58.5319 24.1031 58.1648 24.3752 57.8113C28.7829 52.332 30.6875 45.0716 29.5992 37.92C29.3543 36.3428 29.2319 34.7249 29.2319 33.1069C29.2319 28.8241 30.0753 24.6772 31.735 20.7479C33.3403 16.9681 35.6258 13.5827 38.5371 10.6731C41.4484 7.76347 44.8359 5.47929 48.6178 3.87493C52.5495 2.20259 56.7123 1.35963 60.9977 1.35963C65.283 1.35963 69.4323 2.20259 73.3639 3.86134C77.1458 5.4657 80.5333 7.74987 83.4446 10.6595C86.3559 13.5691 88.6414 16.9545 90.2467 20.7343C91.9064 24.65 92.7498 28.8105 92.7498 33.0933C92.7498 39.7283 90.7228 46.0777 86.8864 51.4754C86.5463 51.9649 86.179 52.4408 85.8117 52.9031C83.7575 55.4592 82.71 58.6679 82.8596 61.9446Z" fill="#231F20"/>
<path d="M60.9977 17.3488C52.3182 17.3488 45.244 24.4053 45.244 33.0933C45.244 39.6603 49.3797 45.5883 55.5288 47.8588C55.8417 47.9812 56.0321 48.3075 55.9641 48.6338C55.8961 48.9329 55.8689 49.2185 55.8689 49.5176C55.7873 56.3429 55.76 62.9643 55.7192 69.3681C55.6784 78.3553 55.6376 86.8393 55.4744 95.908C55.4335 98.2194 55.1343 101.741 53.9235 105.385C52.7807 108.852 51.1074 111.517 48.9716 113.298C46.4004 115.432 43.2578 116.221 39.6255 115.636C34.2926 114.766 29.9937 111.217 28.6605 106.581C28.0347 104.392 27.8851 101.918 28.266 99.6198C28.6741 97.0501 29.6808 94.8475 31.1773 93.2432C31.3813 93.0256 31.7214 92.9576 31.9935 93.1072C33.0546 93.6511 34.0205 94.4804 34.9456 95.337C33.9389 91.5572 32.5241 83.9705 34.8776 77.0364C36.0748 73.5422 36.102 70.7821 35.9387 69.1778C33.7485 72.2641 30.4562 76.479 30.4154 76.5198C29.8849 77.1996 29.3543 77.8658 28.8237 78.5456C25.5315 82.7197 22.4298 86.6626 20.2123 91.3805C17.8588 96.3975 17.0153 102.108 17.8452 107.465C18.7294 113.107 21.355 118.016 25.4499 121.646C30.157 125.806 36.1564 127.859 42.1559 127.859C49.2164 127.859 56.277 125.031 61.2153 119.498C62.3309 118.247 63.324 116.901 64.1674 115.473C68.1127 108.824 67.9222 100.803 67.7453 93.0392L67.6773 89.9121C67.4869 81.5504 67.2964 72.8896 66.9291 64.3919C66.7386 60.0139 66.4938 54.8337 66.1128 49.5992C66.0856 49.3 66.0448 49.0145 65.9768 48.7154C65.8952 48.3755 66.072 48.0356 66.3985 47.9132C72.5748 45.6562 76.7377 39.7147 76.7377 33.1341C76.7377 24.4053 69.6771 17.3488 60.9977 17.3488ZM60.9977 42.3796C55.8689 42.3796 51.6924 38.2055 51.6924 33.0797C51.6924 27.9539 55.8689 23.7799 60.9977 23.7799C66.1264 23.7799 70.3029 27.9539 70.3029 33.0797C70.3029 38.2055 66.1264 42.3796 60.9977 42.3796Z" fill="#F9F4DA"/>
<path d="M60.9977 15.9892C51.57 15.9892 43.8836 23.6575 43.8836 33.0933C43.8836 36.6555 44.9719 40.0682 47.0262 42.9778C48.9307 45.6562 51.5155 47.7093 54.5357 48.9329C54.5085 49.1233 54.5085 49.3136 54.4949 49.504C54.4132 56.3293 54.386 62.9507 54.3452 69.3545C54.3044 78.3417 54.2636 86.8257 54.1003 95.8808C53.9507 104.379 50.8897 109.912 48.0873 112.251C45.8426 114.127 43.0537 114.807 39.8295 114.29C35.0137 113.502 31.1365 110.334 29.9529 106.2C28.5789 101.415 29.8985 96.9278 31.8031 94.562C32.7418 95.1466 33.6668 96.0168 34.5647 96.8462C34.9864 97.2405 35.4218 97.6484 35.8571 98.0155C36.0884 98.2058 36.4149 98.233 36.6734 98.0698C36.9454 97.8931 37.0543 97.5668 36.9454 97.2677C36.9046 97.1589 33.0546 86.513 36.1428 77.4579C38.2242 71.3532 36.9999 67.3695 36.9454 67.2063C36.8638 66.9616 36.6462 66.7712 36.3877 66.744C36.1292 66.7033 35.8707 66.8256 35.7211 67.0432C33.7485 69.9936 29.3543 75.6224 29.3135 75.6904C28.7829 76.3702 28.2524 77.0364 27.7354 77.7026C24.5384 81.7543 21.2326 85.942 18.9607 90.8094C16.4847 96.0712 15.6005 102.067 16.4711 107.669C17.3962 113.624 20.1851 118.818 24.5248 122.652C29.4903 127.043 35.8163 129.192 42.1286 129.192C49.5701 129.192 56.998 126.214 62.2084 120.395C63.3784 119.076 64.4259 117.648 65.3238 116.153C69.4731 109.178 69.269 100.572 69.0922 92.9984L69.0241 89.8713C68.8337 81.496 68.6432 72.8352 68.2759 64.3239C68.0854 59.9323 67.8406 54.7386 67.446 49.4768C67.4324 49.3 67.4188 49.1369 67.3916 48.9601C73.7992 46.3633 78.0709 40.0682 78.0709 33.1069C78.0981 23.6575 70.4254 15.9892 60.9977 15.9892ZM66.3985 47.8724C66.072 47.9948 65.8816 48.3347 65.9768 48.6746C66.0448 48.9601 66.0992 49.2593 66.1128 49.5584C66.5074 54.7929 66.7522 59.9731 66.9291 64.3511C67.2964 72.8488 67.4869 81.496 67.6773 89.8713L67.7453 92.9984C67.9222 100.762 68.1127 108.784 64.1674 115.432C63.324 116.86 62.3309 118.219 61.2153 119.457C56.2634 124.99 49.2164 127.818 42.1559 127.818C36.1564 127.818 30.1433 125.779 25.4499 121.605C21.355 117.975 18.7158 113.08 17.8452 107.424C17.0153 102.081 17.8588 96.3703 20.2123 91.3397C22.4298 86.6218 25.5451 82.6789 28.8237 78.5048C29.3543 77.8386 29.8849 77.1588 30.4154 76.479C30.4562 76.4246 33.7485 72.2097 35.9387 69.137C36.0884 70.7414 36.0748 73.5014 34.8776 76.9956C32.5105 83.9297 33.9389 91.5028 34.9456 95.2962C34.0069 94.4396 33.041 93.6103 31.9935 93.0664C31.7214 92.9305 31.3949 92.9848 31.1773 93.2024C29.6808 94.8067 28.6741 97.0229 28.266 99.579C27.8987 101.89 28.0347 104.365 28.6605 106.54C29.9937 111.177 34.2926 114.739 39.6255 115.595C43.2578 116.194 46.414 115.405 48.9716 113.257C51.1074 111.476 52.7807 108.811 53.9235 105.344C55.1207 101.7 55.4335 98.1786 55.4744 95.8672C55.6376 86.7985 55.6784 78.3145 55.7192 69.3273C55.7464 62.9235 55.7873 56.3021 55.8689 49.4768C55.8689 49.1913 55.9097 48.8922 55.9641 48.593C56.0321 48.2667 55.8553 47.9268 55.5288 47.8181C49.3797 45.5475 45.244 39.6059 45.244 33.0525C45.244 24.3781 52.3046 17.308 60.9977 17.308C69.6907 17.308 76.7513 24.3645 76.7513 33.0525C76.7377 39.6739 72.5884 45.6155 66.3985 47.8724Z" fill="#231F33"/>
<path d="M60.9977 23.7935C55.8689 23.7935 51.6924 27.9675 51.6924 33.0933C51.6924 38.2191 55.8689 42.3931 60.9977 42.3931C66.1264 42.3931 70.3029 38.2191 70.3029 33.0933C70.3029 27.9675 66.1264 23.7935 60.9977 23.7935ZM60.9977 41.0199C56.6171 41.0199 53.0528 37.4577 53.0528 33.0797C53.0528 28.7017 56.6171 25.1395 60.9977 25.1395C65.3782 25.1395 68.9425 28.7017 68.9425 33.0797C68.9289 37.4713 65.3782 41.0199 60.9977 41.0199Z" fill="#231F20"/>
</svg>