<svg width="150" height="102" viewBox="0 0 150 102" fill="none" xmlns="http://www.w3.org/2000/svg">
<path d="M141.435 52.7316C139.046 50.7758 136.445 49.1006 133.682 47.7384C133.061 48.9612 132.235 50.0659 131.241 51.0035C129.555 52.5679 127.584 53.3841 125.499 53.3841C125.31 53.3841 125.12 53.3776 124.93 53.3632C122.306 53.1784 119.861 51.7241 117.998 49.2543C117.478 50.0506 116.863 50.7785 116.165 51.4214C114.489 52.957 112.535 53.7562 110.469 53.7562C110.259 53.7562 110.049 53.7484 109.836 53.7313C107.166 53.5217 104.691 51.9979 102.834 49.4312C102.311 50.5861 101.606 51.6479 100.748 52.5757C99.0363 54.41 96.9163 55.3757 94.616 55.3757C91.8489 55.3757 89.1803 53.9606 87.103 51.3913C85.0647 48.8704 83.8328 45.5267 83.6318 41.976C83.3945 37.7636 84.6381 33.8736 87.0421 31.3016C88.7537 29.4673 90.8738 28.5017 93.1741 28.5017C95.9412 28.5017 98.6097 29.9167 100.687 32.4861C100.883 32.7284 101.068 32.9813 101.25 33.2381C101.919 31.6816 102.901 30.2828 104.134 29.1306C105.981 27.4391 108.17 26.6411 110.463 26.8206C113.056 27.0237 115.454 28.461 117.288 30.8823C117.787 30.1223 118.373 29.4252 119.035 28.8056C119.448 28.4206 119.893 28.0725 120.365 27.7653C120.334 27.6733 120.322 27.5753 120.333 27.4784C120.352 27.2976 120.722 23.1206 114.915 22.1589C114.667 22.117 114.423 22.0512 114.187 21.9623C114.137 21.9603 114.089 21.9524 114.041 21.9387C113.974 21.9191 108.882 20.4975 101.541 22.3685C101.489 22.3825 101.436 22.3896 101.382 22.3895C101.224 22.3896 101.071 22.3313 100.952 22.2254C100.834 22.1196 100.757 21.9736 100.738 21.8149C100.719 21.6562 100.757 21.4958 100.847 21.3639C100.936 21.232 101.07 21.1378 101.224 21.0989C105.609 19.9786 109.193 19.976 111.512 20.1935L111.49 20.1752C110.762 19.5738 110.011 18.9514 109.156 18.5046C105.006 16.3192 100.428 14.8924 95.5301 14.2648C93.3049 13.9919 91.0595 13.9266 88.8224 14.0695C83.9106 14.3617 71.6441 14.0053 63.8433 4.40794C62.8202 3.15144 60.8973 1.07735 59.5085 1.32367C58.8265 1.44422 58.4323 2.18449 58.2209 2.78326C57.0215 6.20033 58.4089 13.4079 61.9968 17.5809C62.3022 17.934 62.5104 18.362 62.6006 18.822C62.6907 19.2819 62.6597 19.7578 62.5105 20.2018C62.3613 20.6458 62.0992 21.0425 61.7505 21.3519C61.4019 21.6613 60.9788 21.8728 60.5238 21.9649C55.7261 22.9384 46.8854 24.2159 41.5924 21.8339C40.4785 21.3334 39.6538 21.2496 39.4905 21.6191C39.2143 22.2493 39.7667 24.0534 41.3369 26.1564C43.0913 28.5056 45.5304 30.4971 48.0291 31.6187C48.4929 31.8212 48.8897 32.1536 49.1726 32.5767C49.4555 32.9997 49.6128 33.4957 49.6257 34.0061C49.6387 34.5165 49.5068 35.02 49.2457 35.4571C48.9846 35.8943 48.6052 36.2468 48.1522 36.4731C44.9028 38.1082 41.8193 39.0097 38.9886 39.1538C37.3198 39.2376 36.3006 39.6857 36.3279 40.3225C36.359 41.0392 37.4547 42.2878 39.79 43.3452C42.3198 44.489 45.5459 45.0734 48.9147 45.0066C51.0698 39.2992 53.7733 34.3177 56.9541 30.201C59.5746 26.8115 62.5298 23.9906 65.7209 21.8156C67.8869 20.3237 70.2422 19.1338 72.7229 18.278C74.4994 17.6831 75.5976 17.5521 75.643 17.5469C75.8139 17.5272 75.9856 17.577 76.1202 17.6853C76.2548 17.7935 76.3413 17.9513 76.3607 18.124C76.3802 18.2967 76.3309 18.4702 76.2238 18.6062C76.1167 18.7422 75.9605 18.8296 75.7896 18.8492C75.7636 18.8492 74.725 18.9803 73.0665 19.545C70.6951 20.372 68.4446 21.5178 66.3757 22.9515C63.3052 25.0479 60.4668 27.7771 57.9473 31.054C54.7886 35.1537 52.1123 40.1312 49.9883 45.8516C49.8781 46.284 48.9238 49.8845 46.853 53.3055C43.903 58.1756 40.118 60.2602 35.909 59.3326C31.7247 58.4154 27.5481 54.0563 23.5077 49.8413C17.9773 44.0763 12.7543 38.6231 8.10964 41.9799C5.3218 43.9924 4.3078 46.8553 5.25696 50.0404C6.54326 54.3642 11.4706 58.95 17.8347 59.9523C19.0017 60.0322 19.7797 60.1344 19.8899 60.1514C20.0619 60.1662 20.221 60.2494 20.3322 60.3827C20.4435 60.516 20.4978 60.6885 20.4832 60.8622C20.4685 61.036 20.3862 61.1967 20.2543 61.3092C20.1224 61.4216 19.9517 61.4764 19.7797 61.4617C19.1259 61.4377 18.4739 61.3764 17.8269 61.2782C14.4971 61.0529 7.65711 60.9952 4.70199 63.9485C3.58555 65.0661 3.14598 66.489 3.37419 68.2984C3.76319 71.4521 5.18953 73.6782 7.59876 74.9151C10.69 76.5004 16.4667 76.6092 22.4029 73.276C22.5409 73.1972 22.7028 73.1722 22.8578 73.2059C23.0128 73.2395 23.1502 73.3293 23.2441 73.4584C23.338 73.5875 23.3819 73.7468 23.3673 73.9064C23.3528 74.0659 23.281 74.2145 23.1653 74.3241C23.0772 74.4093 14.4478 82.8537 18.26 88.6331C19.2818 90.1818 20.8534 90.643 22.9436 90.0049C25.1363 89.3341 27.6414 87.4709 29.6448 85.0261C31.7104 82.5026 32.8943 79.8101 32.8943 77.6416C32.8943 77.5329 32.9212 77.4259 32.9724 77.3302C33.0236 77.2346 33.0976 77.1533 33.1876 77.0938C33.2777 77.0342 33.381 76.9983 33.4883 76.9892C33.5955 76.98 33.7033 76.998 33.8019 77.0415C33.8253 77.052 36.241 78.1107 40.415 79.5467C49.8807 82.8052 58.0173 82.1226 58.807 82.0466C59.69 81.7505 69.5059 78.4199 73.1392 75.143C73.2019 75.0819 73.2763 75.0341 73.3577 75.0027C73.4392 74.9712 73.5261 74.9567 73.6132 74.96C73.7003 74.9632 73.7859 74.9842 73.8648 75.0217C73.9438 75.0592 74.0144 75.1123 74.0725 75.178C74.1306 75.2437 74.175 75.3206 74.2031 75.404C74.2311 75.4874 74.2422 75.5757 74.2357 75.6636C74.2292 75.7514 74.2052 75.8371 74.1651 75.9154C74.1251 75.9936 74.0699 76.0629 74.0027 76.1191C70.0129 79.7197 59.585 83.1695 59.1429 83.3136H59.1338C56.2811 84.1705 48.5957 87.1368 47.2511 90.5198C46.9334 91.3204 46.9917 92.0921 47.4378 92.8782C49.1572 95.9193 51.8374 96.1774 53.2806 96.0595C55.5446 95.876 57.7684 94.5199 58.3376 92.9739C58.4258 92.7393 58.6903 92.0253 59.3633 91.9047C60.1296 91.7737 60.7326 92.4799 61.4963 93.3814C62.404 94.4505 63.5295 95.7804 64.9234 95.8105C65.8791 95.8341 66.9307 95.2288 68.0484 94.0194C71.1202 90.6928 72.7709 90.7989 74.1998 91.192C74.6459 91.3138 74.7185 91.3112 74.8028 91.2418C74.9895 91.0963 75.3214 90.6246 75.822 89.1965C76.3225 87.7684 76.7115 86.6927 76.9475 86.0441C77.0551 85.748 77.1277 85.5554 77.1731 85.4362C77.2026 85.3579 77.2391 85.2824 77.282 85.2108C77.9044 83.4564 79.8209 78.6178 82.6697 76.4742C82.7378 76.4226 82.8153 76.385 82.8978 76.3637C82.9803 76.3423 83.0661 76.3376 83.1504 76.3498C83.2347 76.3619 83.3158 76.3908 83.389 76.4346C83.4623 76.4784 83.5263 76.5364 83.5774 76.6052C83.6285 76.6741 83.6656 76.7524 83.6868 76.8357C83.7079 76.9191 83.7126 77.0058 83.7005 77.091C83.6885 77.1761 83.66 77.2581 83.6166 77.3321C83.5732 77.4061 83.5158 77.4708 83.4477 77.5224C80.9438 79.4065 79.1453 83.8875 78.5333 85.5829C82.1238 86.4319 99.0285 90.0219 108.44 84.8256C111.033 83.3974 114.03 82.8209 117.121 83.1616C121.112 83.6031 123.794 82.5668 125.106 80.0839C123.077 79.3192 120.981 78.7511 118.846 78.3871C114.985 77.7124 108.975 77.2984 102.269 79.1562C97.6787 80.4272 93.7913 79.8035 90.7143 77.301C90.649 77.2467 90.5944 77.1805 90.5535 77.1057C90.3285 77.3244 90.1249 77.5644 89.9453 77.8224C89.5112 78.447 89.2129 79.1575 89.0701 79.907C89.0491 80.064 88.9725 80.208 88.8545 80.3123C88.7365 80.4166 88.585 80.4742 88.4282 80.4743C88.3987 80.4741 88.3693 80.4719 88.3401 80.4678C88.2557 80.4562 88.1744 80.4279 88.1008 80.3845C88.0273 80.3412 87.9629 80.2836 87.9113 80.2151C87.8598 80.1466 87.8221 80.0685 87.8005 79.9853C87.7788 79.9021 87.7736 79.8154 87.7851 79.7301C87.7916 79.6777 88.5696 74.4159 94.4085 74.4159C94.5804 74.4159 94.7454 74.4849 94.8669 74.6077C94.9885 74.7306 95.0568 74.8972 95.0568 75.071C95.0568 75.2447 94.9885 75.4113 94.8669 75.5342C94.7454 75.6571 94.5804 75.7261 94.4085 75.7261C93.3297 75.7261 92.3973 75.9327 91.6116 76.3458C94.3346 78.5142 97.8019 79.0344 101.927 77.8919C108.883 75.9645 115.112 76.3995 119.113 77.1057C122.942 77.7805 125.466 78.7999 126.093 79.0711C127 79.0226 131.968 78.6951 136.998 77.1529C140.208 76.1689 142.808 74.8902 144.726 73.3533C147.06 71.4836 148.379 69.2195 148.644 66.6213C148.915 63.9812 148.291 61.3451 146.788 58.7862C145.565 56.7042 143.764 54.6721 141.435 52.7316ZM78.8238 34.3806C78.7962 34.531 78.7175 34.6669 78.6012 34.7648C78.4849 34.8626 78.3384 34.9163 78.1871 34.9165C78.1471 34.9164 78.1071 34.9125 78.0678 34.9047C77.8988 34.8729 77.7492 34.7746 77.6519 34.6313C77.5547 34.4881 77.5177 34.3117 77.5491 34.1409C78.4568 29.2262 81.5247 26.742 83.9443 25.5235C85.5263 24.7241 87.2407 24.2266 89.0014 24.0561C89.1733 24.0458 89.3422 24.105 89.471 24.2206C89.5998 24.3362 89.6778 24.4988 89.688 24.6725C89.6981 24.8463 89.6395 25.017 89.5251 25.1471C89.4107 25.2772 89.2498 25.356 89.0779 25.3663C87.4768 25.5327 85.9189 25.9913 84.4799 26.7198C81.3704 28.2973 79.4669 30.8758 78.8238 34.3806ZM97.5062 60.6559C96.5608 60.8188 95.6036 60.9029 94.6445 60.9074C90.2475 60.9074 88.4542 58.9238 88.366 58.8229C88.2511 58.6931 88.192 58.5225 88.2016 58.3487C88.2112 58.1748 88.2888 58.0119 88.4172 57.8959C88.5457 57.7798 88.7145 57.7201 88.8865 57.7298C89.0586 57.7395 89.2197 57.8179 89.3346 57.9476C89.3735 57.9909 91.5895 60.3191 97.2936 59.3588C97.4633 59.3303 97.6373 59.3711 97.7772 59.4722C97.9172 59.5733 98.0116 59.7264 98.0398 59.8979C98.068 60.0694 98.0277 60.2452 97.9276 60.3866C97.8275 60.528 97.676 60.6235 97.5062 60.6519V60.6559ZM118.505 58.2555C116.149 59.48 113.539 60.1196 110.891 60.1213C108.865 60.1213 107.531 59.7426 107.423 59.7112C107.258 59.6627 107.119 59.5499 107.036 59.3976C106.953 59.2452 106.933 59.0658 106.981 58.8989C107.029 58.7319 107.141 58.591 107.291 58.5072C107.442 58.4234 107.62 58.4036 107.785 58.4521C107.859 58.473 112.664 59.8055 117.913 57.0894C118.066 57.0102 118.244 56.9957 118.408 57.049C118.572 57.1023 118.708 57.2191 118.786 57.3738C118.864 57.5284 118.879 57.7082 118.826 57.8735C118.773 58.0389 118.658 58.1763 118.505 58.2555Z" fill="#FCBA28"/>
<path d="M142.26 51.7201C139.788 49.69 137.093 47.9547 134.228 46.5487C134.975 44.6538 135.365 42.6346 135.378 40.595C135.424 37.0378 134.424 33.6155 132.564 30.9583C130.67 28.2488 128.105 26.649 125.346 26.4551C124.075 26.362 122.8 26.58 121.63 27.0905C121.57 25.6493 120.863 21.8248 115.125 20.8748C114.18 20.7176 113.31 20.0009 112.312 19.1716C111.534 18.5282 110.73 17.8613 109.762 17.353C105.483 15.0954 100.751 13.6227 95.6987 12.9755C93.3943 12.6928 91.0691 12.6248 88.7524 12.7724C84.0403 13.0515 72.2743 12.7187 64.8508 3.58643C62.7165 0.95288 60.8467 -0.226321 59.2907 0.0357236C58.5749 0.166746 57.5972 0.667252 57.0059 2.34827C56.7361 3.17465 56.5816 4.03502 56.5469 4.90452C55.9841 5.20718 55.3942 5.80595 54.9909 6.96419C54.3426 8.82864 54.3426 11.719 55.022 14.6945C55.5267 16.9842 56.4082 19.1721 57.6296 21.167C52.8514 21.9466 46.2565 22.4969 42.1331 20.6429C39.5073 19.4637 38.6178 20.4189 38.3209 21.0937C37.8955 22.0593 38.2845 23.4691 38.9925 24.8488C37.2213 24.3758 36.5522 25.1422 36.3019 25.7096C35.6536 27.1875 36.9062 29.7044 38.2975 31.5676C39.8822 33.6756 41.8723 35.4382 44.1481 36.7495C42.3133 37.385 40.5459 37.7545 38.9238 37.837C35.3229 38.0191 35.0027 39.6713 35.0338 40.371C35.0649 41.0706 35.4617 41.8122 36.1658 42.5171C33.2573 42.8801 32.9812 44.3449 33.011 44.9948C33.0719 46.436 34.6513 47.9873 37.2381 49.156C39.825 50.3248 43.0732 50.9524 46.4769 50.9393C46.3978 51.2013 46.2993 51.5053 46.18 51.8564C46.0348 52.1185 45.8826 52.3805 45.7236 52.6425C43.0537 57.0383 39.8406 58.8596 36.1749 58.0538C32.3743 57.2192 28.3352 53.0055 24.4296 48.932C18.7618 43.0176 12.8996 36.9041 7.3472 40.9108C5.1234 42.5158 3.85396 44.6593 3.64001 47.0505C1.70797 49.2491 1.10372 52.0608 1.98805 55.0298C2.6675 57.3122 4.14831 59.516 6.22558 61.3726C5.32329 61.7669 4.49779 62.3206 3.78783 63.0077C2.62082 64.1778 2.02565 65.6478 2.02046 67.3852C1.93488 67.4625 1.8506 67.5411 1.76891 67.6223C0.365907 69.0256 -0.207222 70.8573 0.0663759 73.0676C0.505948 76.6275 2.20848 79.2637 4.99374 80.6905C8.47012 82.4737 13.0422 82.1187 17.0398 80.7796C16.726 81.4926 16.4739 82.2317 16.2865 82.9886C16.2177 83.1 16.149 83.2127 16.0829 83.3267C13.6296 87.4801 13.3119 91.1592 15.1623 93.9644C16.4991 95.9913 18.6801 96.6648 21.3007 95.8629C23.7281 95.12 26.4667 93.101 28.6256 90.4609C30.358 88.3435 31.5224 86.0847 31.9684 84.0316C32.1215 83.794 32.2671 83.556 32.4054 83.3175C33.5219 83.7682 35.4254 84.5085 37.9811 85.3864C41.1572 86.475 44.4328 87.2404 47.7593 87.6714C46.9813 88.4025 46.3758 89.1899 46.0438 90.0298C45.7575 90.7209 45.6785 91.4818 45.8169 92.2179C45.0052 92.9699 44.3685 93.781 44.0262 94.6444C43.5581 95.8236 43.6463 97.0028 44.2856 98.1361C45.6886 100.618 48.0018 102 50.7015 102C50.9176 102 51.1368 101.991 51.3589 101.972C54.174 101.745 56.7699 100.091 57.5298 98.0418C57.5557 97.9737 57.5791 97.9213 57.5985 97.8807C57.9185 98.1786 58.2163 98.5 58.4893 98.8424C59.5059 100.043 60.8998 101.687 62.8734 101.725C64.2323 101.755 65.5731 101.032 66.9735 99.5158C69.7691 96.4905 70.9633 96.8194 71.836 97.0592C73.2429 97.4522 73.9963 97.1404 75.0206 94.2409C75.3461 93.3237 75.595 92.6201 75.787 92.0868C75.9588 91.8995 76.1089 91.6929 76.2343 91.471C79.7974 92.3022 83.4115 92.8914 87.0525 93.2346C95.6857 94.0207 102.408 93.135 107.03 90.584C109.385 89.283 112.124 88.7602 114.948 89.072C119.635 89.5882 122.887 88.1745 124.385 84.9789C125.775 84.895 130.461 84.5164 135.332 83.0266C138.703 81.9955 141.452 80.6407 143.501 79.0016C145.921 77.0664 147.37 74.7316 147.819 72.0574C149.003 70.5272 149.736 68.6901 149.932 66.7576C150.469 61.5377 147.815 56.3387 142.26 51.7201ZM124.786 27.743C124.943 27.743 125.101 27.743 125.259 27.7601C130.211 28.1099 134.171 33.8592 134.085 40.5767C134.036 44.4366 132.68 47.8851 130.365 50.0378C128.8 51.4948 126.952 52.1918 125.023 52.0556C122.544 51.88 120.313 50.3523 118.715 48.0253C119.752 46.0036 120.335 43.6046 120.389 41.0457C120.455 37.7833 119.64 34.6256 118.087 32.0681C118.585 31.2209 119.2 30.4497 119.913 29.7778C121.349 28.4414 123.025 27.743 124.786 27.743ZM104.158 41.9066C104.025 39.3464 103.322 36.8495 102.102 34.6021C102.75 32.8136 103.737 31.2675 105.004 30.1067C106.43 28.7965 108.097 28.1112 109.836 28.1112C110.01 28.1112 110.186 28.1178 110.355 28.1322C115.304 28.5252 119.219 34.302 119.082 41.0182C119.003 44.8768 117.62 48.3149 115.289 50.4518C113.712 51.8931 111.859 52.5783 109.931 52.4264C107.319 52.222 104.996 50.5147 103.404 47.9611C104.029 46.0087 104.285 43.9547 104.158 41.9066ZM99.8053 51.6821C98.3452 53.2439 96.5506 54.0707 94.6186 54.0707C89.6536 54.0707 85.3071 48.6136 84.9298 41.9066C84.712 38.0532 85.8271 34.5169 87.9874 32.2109C89.4474 30.6491 91.242 29.8224 93.1741 29.8224C98.139 29.8224 102.485 35.2794 102.863 41.9865C103.081 45.8346 101.964 49.3709 99.8053 51.6821ZM148.644 66.6187C148.385 69.2169 147.06 71.4809 144.726 73.3506C142.808 74.8862 140.208 76.165 136.998 77.1503C131.968 78.6924 126.994 79.02 126.093 79.0685C125.469 78.8064 122.942 77.7818 119.113 77.1031C115.112 76.3995 108.883 75.9645 101.927 77.8893C97.8019 79.0318 94.3333 78.5116 91.6116 76.3432C92.3965 75.9318 93.3288 75.7252 94.4085 75.7234C94.5804 75.7234 94.7454 75.6544 94.8669 75.5316C94.9885 75.4087 95.0568 75.2421 95.0568 75.0683C95.0568 74.8946 94.9885 74.728 94.8669 74.6051C94.7454 74.4822 94.5804 74.4132 94.4085 74.4132C88.5735 74.4132 87.7955 79.6751 87.7851 79.7275C87.7736 79.8128 87.7788 79.8995 87.8005 79.9827C87.8221 80.0659 87.8598 80.144 87.9113 80.2125C87.9629 80.281 88.0273 80.3386 88.1008 80.3819C88.1744 80.4253 88.2557 80.4536 88.3401 80.4652C88.3693 80.4693 88.3987 80.4715 88.4282 80.4717C88.585 80.4715 88.7365 80.414 88.8545 80.3097C88.9725 80.2054 89.0491 80.0614 89.0701 79.9044C89.2129 79.1549 89.5112 78.4444 89.9453 77.8198C90.1249 77.5618 90.3285 77.3218 90.5535 77.1031C90.5944 77.1779 90.649 77.2441 90.7143 77.2983C93.7952 79.8074 97.6852 80.4311 102.269 79.1602C108.975 77.3023 114.985 77.7189 118.846 78.3911C120.977 78.7519 123.069 79.3161 125.094 80.076C123.782 82.5654 121.101 83.5953 117.109 83.1537C114.018 82.8131 111.015 83.3896 108.428 84.8177C99.0169 90.0141 82.1057 86.4241 78.5216 85.575C79.1337 83.8796 80.9322 79.3986 83.436 77.5145C83.5736 77.4103 83.6645 77.2551 83.6889 77.0831C83.7132 76.9111 83.6689 76.7364 83.5657 76.5974C83.4625 76.4584 83.3089 76.3665 83.1387 76.3419C82.9685 76.3173 82.7956 76.3621 82.658 76.4664C79.8054 78.6099 77.8928 83.4485 77.2704 85.2029C77.2274 85.2746 77.1909 85.35 77.1614 85.4283C77.116 85.5475 77.0434 85.7401 76.9358 86.0362C76.6998 86.6848 76.3212 87.7395 75.8103 89.1886C75.2994 90.6377 74.9778 91.0885 74.7911 91.2339C74.7016 91.3033 74.6342 91.306 74.1882 91.1841C72.7618 90.791 71.1086 90.6849 68.0367 94.0116C66.919 95.2209 65.8674 95.8262 64.9118 95.8026C63.5178 95.7725 62.391 94.4426 61.4846 93.3735C60.7209 92.4721 60.118 91.7606 59.3516 91.8969C58.6786 92.0174 58.4141 92.7315 58.326 92.966C57.7528 94.5121 55.529 95.8682 53.2689 96.0516C51.8257 96.1695 49.1455 95.9114 47.4261 92.8704C46.9826 92.0842 46.9217 91.3177 47.2394 90.512C48.584 87.1237 56.2733 84.1574 59.1221 83.3057H59.1312C59.5733 83.1616 70.0012 79.7118 73.9911 76.1113C74.0582 76.0551 74.1135 75.9858 74.1535 75.9075C74.1935 75.8292 74.2175 75.7436 74.224 75.6557C74.2305 75.5678 74.2194 75.4796 74.1914 75.3961C74.1633 75.3127 74.1189 75.2358 74.0608 75.1702C74.0027 75.1045 73.9321 75.0513 73.8532 75.0138C73.7742 74.9764 73.6887 74.9554 73.6015 74.9521C73.5144 74.9488 73.4275 74.9634 73.346 74.9948C73.2646 75.0263 73.1902 75.074 73.1275 75.1352C69.4968 78.4107 59.6784 81.7426 58.7953 82.0387C58.0057 82.1147 49.8729 82.7974 40.4033 79.5388C36.2306 78.0976 33.8149 77.0494 33.7903 77.0337C33.6916 76.9902 33.5838 76.9722 33.4766 76.9813C33.3693 76.9904 33.266 77.0264 33.176 77.0859C33.0859 77.1454 33.0119 77.2267 32.9607 77.3223C32.9095 77.418 32.8827 77.525 32.8826 77.6338C32.8826 79.8022 31.6987 82.4947 29.6331 85.0182C27.6298 87.4683 25.1246 89.3314 22.9319 89.997C20.8456 90.6351 19.2701 90.1739 18.2483 88.6252C14.4387 82.8419 23.0733 74.3988 23.1614 74.3137C23.2771 74.204 23.3489 74.0554 23.3635 73.8959C23.378 73.7364 23.3341 73.577 23.2402 73.4479C23.1464 73.3188 23.0089 73.229 22.8539 73.1954C22.6989 73.1617 22.537 73.1867 22.399 73.2655C16.4628 76.5987 10.6861 76.4899 7.59487 74.9046C5.18176 73.6703 3.7606 71.4429 3.3703 68.2892C3.14727 66.4798 3.58166 65.0569 4.6981 63.9393C7.65322 60.986 14.4932 61.0437 17.823 61.2691C18.47 61.3672 19.122 61.4285 19.7758 61.4525C19.9478 61.4673 20.1185 61.4124 20.2504 61.3C20.3823 61.1876 20.4647 61.0268 20.4793 60.8531C20.4939 60.6793 20.4396 60.5068 20.3283 60.3735C20.2171 60.2402 20.058 60.157 19.886 60.1423C19.7693 60.1252 18.9965 60.023 17.8308 59.9431C11.4615 58.9342 6.53419 54.3498 5.25307 50.0313C4.30391 46.8461 5.31791 43.9833 8.10576 41.9708C12.7504 38.6179 17.9734 44.0671 23.5038 49.8321C27.5442 54.0471 31.7208 58.4049 35.9052 59.3234C40.1142 60.2484 43.8992 58.1638 46.8491 53.2963C48.9238 49.8753 49.8742 46.2748 49.9844 45.8425C52.1071 40.122 54.7821 35.1445 57.9434 31.0448C60.4693 27.7692 63.3078 25.0414 66.3718 22.9424C68.4407 21.5086 70.6912 20.3628 73.0626 19.5358C74.725 18.9724 75.7636 18.8427 75.7857 18.8401C75.9566 18.8204 76.1128 18.733 76.2199 18.597C76.327 18.461 76.3763 18.2876 76.3568 18.1149C76.3374 17.9422 76.2509 17.7843 76.1163 17.6761C75.9817 17.5678 75.8101 17.5181 75.6391 17.5377C75.5938 17.5377 74.4955 17.6687 72.719 18.2688C70.2383 19.1247 67.883 20.3146 65.717 21.8064C62.5194 23.9775 59.5708 26.7984 56.9502 30.1918C53.7642 34.3138 51.0607 39.2953 48.9108 44.9974C45.5394 45.0642 42.3159 44.4733 39.7861 43.336C37.4521 42.28 36.3551 41.03 36.324 40.3133C36.2967 39.6766 37.3159 39.2285 38.9848 39.1446C41.8154 39.0005 44.8989 38.0964 48.1483 36.4639C48.5979 36.2373 48.9743 35.8861 49.2337 35.4514C49.4932 35.0168 49.6249 34.5165 49.6134 34.009C49.602 33.5015 49.448 33.0078 49.1692 32.5855C48.8905 32.1631 48.4987 31.8297 48.0394 31.6239C45.5407 30.5024 43.1017 28.5108 41.3473 26.1616C39.777 24.0587 39.2246 22.2545 39.5008 21.6243C39.6642 21.2548 40.4889 21.3387 41.6027 21.8392C46.8919 24.2146 55.7365 22.9371 60.5342 21.9702C60.9877 21.8768 61.409 21.665 61.7563 21.3557C62.1035 21.0465 62.3644 20.6507 62.513 20.2078C62.6617 19.7649 62.6928 19.2904 62.6034 18.8316C62.514 18.3727 62.3071 17.9456 62.0033 17.5927C58.4154 13.4157 57.028 6.20819 58.2274 2.78719C58.4388 2.18842 58.8329 1.44815 59.515 1.3276C60.9037 1.08128 62.8267 3.16192 63.8498 4.41187C71.6506 14.0093 83.9171 14.3696 88.8289 14.0735C91.066 13.9305 93.3114 13.9959 95.5366 14.2687C100.434 14.8963 105.019 16.3231 109.162 18.5086C110.011 18.9554 110.762 19.5777 111.496 20.1791L111.518 20.1975C109.2 19.98 105.616 19.9826 101.23 21.1028C101.077 21.1417 100.943 21.236 100.853 21.3678C100.764 21.4997 100.725 21.6601 100.744 21.8188C100.764 21.9775 100.84 22.1235 100.959 22.2294C101.077 22.3352 101.23 22.3935 101.388 22.3934C101.442 22.3935 101.496 22.3865 101.548 22.3724C108.888 20.4975 113.98 21.923 114.048 21.9427C114.095 21.9564 114.144 21.9643 114.193 21.9663C114.429 22.0551 114.673 22.121 114.922 22.1628C120.732 23.1245 120.359 27.3015 120.339 27.4823C120.329 27.5792 120.34 27.6772 120.372 27.7692C119.899 28.0765 119.454 28.4245 119.041 28.8096C118.38 29.4291 117.793 30.1263 117.295 30.8863C115.45 28.4676 113.049 27.0263 110.463 26.8259C108.17 26.6451 105.981 27.4443 104.134 29.1358C102.901 30.2881 101.919 31.6869 101.25 33.2434C101.068 32.9813 100.883 32.7337 100.687 32.4913C98.6123 29.9219 95.9412 28.5069 93.1741 28.5069C90.8738 28.5069 88.7537 29.4752 87.0421 31.3069C84.6381 33.8788 83.3945 37.7689 83.6318 41.9812C83.8328 45.532 85.0582 48.8756 87.103 51.3965C89.1777 53.9659 91.8489 55.3809 94.616 55.3809C96.9163 55.3809 99.0363 54.4127 100.748 52.581C101.607 51.6517 102.312 50.588 102.836 49.4312C104.691 51.9979 107.166 53.5217 109.838 53.7313C110.05 53.7484 110.26 53.7562 110.47 53.7562C112.532 53.7562 114.49 52.957 116.167 51.4214C116.864 50.7785 117.479 50.0506 117.999 49.2543C119.862 51.7241 122.308 53.1784 124.931 53.3632C125.122 53.3776 125.311 53.3841 125.5 53.3841C127.585 53.3841 129.56 52.5679 131.242 51.0035C132.236 50.0663 133.062 48.962 133.683 47.7397C136.447 49.1019 139.048 50.7771 141.436 52.7329C143.77 54.6695 145.566 56.7056 146.789 58.7862C148.29 61.3437 148.915 63.9747 148.644 66.62V66.6187Z" fill="#231F20"/>
<path d="M118.083 32.0681C119.639 34.6296 120.451 37.7833 120.385 41.0457C120.332 43.6046 119.744 46.0036 118.711 48.0253C120.31 50.351 122.54 51.88 125.019 52.0556C126.949 52.1866 128.796 51.4948 130.361 50.0378C132.676 47.8851 134.032 44.4366 134.082 40.5767C134.167 33.8592 130.207 28.1099 125.255 27.7601C125.097 27.7496 124.939 27.743 124.782 27.743C123.025 27.743 121.349 28.4414 119.913 29.7778C119.198 30.4494 118.582 31.2206 118.083 32.0681ZM125.106 42.3429C124.098 42.2708 123.291 41.1244 123.313 39.7788C123.335 38.4332 124.161 37.402 125.168 37.4728C126.176 37.5435 126.984 38.6926 126.962 40.0369C126.939 41.3812 126.113 42.4136 125.106 42.3429Z" fill="#F9F4DA"/>
<path d="M125.175 37.4728C124.167 37.402 123.337 38.4345 123.319 39.7788C123.301 41.123 124.105 42.2682 125.112 42.3429C126.12 42.4175 126.951 41.3812 126.968 40.0369C126.985 38.6926 126.176 37.5448 125.175 37.4728Z" fill="#231F20"/>
<path d="M109.937 52.4237C111.866 52.5757 113.719 51.8996 115.295 50.4492C117.629 48.3149 119.009 44.8768 119.088 41.0156C119.226 34.2994 115.311 28.5187 110.361 28.1296C110.186 28.1151 110.01 28.1086 109.843 28.1086C108.104 28.1086 106.443 28.7925 105.01 30.1041C103.743 31.2649 102.758 32.811 102.108 34.5994C103.329 36.8469 104.032 39.3438 104.165 41.9039C104.293 43.9508 104.04 46.0039 103.416 47.9559C105.002 50.5121 107.326 52.2193 109.937 52.4237ZM110.197 37.8436C111.204 37.9235 111.998 39.0765 111.971 40.4208C111.943 41.7651 111.104 42.791 110.097 42.7124C109.089 42.6337 108.296 41.4794 108.323 40.1351C108.35 38.7908 109.192 37.7702 110.199 37.8436H110.197Z" fill="#F9F4DA"/>
<path d="M110.1 42.7124C111.107 42.791 111.945 41.7664 111.973 40.4208C112.002 39.0752 111.207 37.9235 110.199 37.8436C109.192 37.7636 108.354 38.7908 108.326 40.1351C108.297 41.4794 109.096 42.6337 110.1 42.7124Z" fill="#231F20"/>
<path d="M93.1741 29.8171C91.2394 29.8171 89.4448 30.6439 87.9874 32.2057C85.8271 34.5169 84.712 38.0532 84.9298 41.9013C85.3071 48.6084 89.6536 54.0654 94.6186 54.0654C96.5532 54.0654 98.3478 53.2387 99.8053 51.6769C101.966 49.3657 103.081 45.8294 102.863 41.9812C102.483 35.2808 98.139 29.8171 93.1741 29.8171ZM94.0325 44.375C93.0224 44.375 92.1419 43.2862 92.0667 41.9446C91.9915 40.6029 92.7475 39.5128 93.7524 39.5128C94.7573 39.5128 95.6429 40.6016 95.7181 41.9446C95.7933 43.2875 95.0426 44.375 94.0325 44.375Z" fill="#F9F4DA"/>
<path d="M93.7576 39.5128C92.7475 39.5128 91.9902 40.6016 92.0719 41.9446C92.1536 43.2875 93.0275 44.375 94.0376 44.375C95.0478 44.375 95.805 43.2862 95.7233 41.9446C95.6416 40.6029 94.7677 39.5128 93.7576 39.5128Z" fill="#231F20"/>
<path d="M97.2962 59.3627C91.5908 60.3231 89.3761 57.9948 89.3372 57.9516C89.2229 57.8218 89.0622 57.7432 88.8905 57.7331C88.7188 57.7231 88.5502 57.7823 88.4218 57.8979C88.2933 58.0134 88.2155 58.1758 88.2056 58.3492C88.1956 58.5227 88.2542 58.6931 88.3686 58.8229C88.4568 58.9238 90.2501 60.9074 94.6471 60.9074C95.6062 60.9029 96.5634 60.8188 97.5088 60.6559C97.6786 60.6274 97.8301 60.5319 97.9302 60.3905C98.0303 60.2491 98.0706 60.0733 98.0424 59.9018C98.0142 59.7304 97.9198 59.5772 97.7798 59.4761C97.6399 59.375 97.4659 59.3342 97.2962 59.3627Z" fill="#231F20"/>
<path d="M117.913 57.0894C112.664 59.8055 107.859 58.473 107.785 58.4521C107.62 58.4036 107.442 58.4234 107.291 58.5072C107.141 58.591 107.029 58.7319 106.981 58.8989C106.933 59.0658 106.953 59.2452 107.036 59.3976C107.119 59.5499 107.258 59.6627 107.423 59.7112C107.531 59.7426 108.865 60.1213 110.891 60.1213C113.539 60.1196 116.149 59.48 118.505 58.2555C118.658 58.1763 118.773 58.0389 118.826 57.8735C118.879 57.7082 118.864 57.5284 118.786 57.3738C118.708 57.2191 118.572 57.1023 118.408 57.049C118.244 56.9957 118.066 57.0102 117.913 57.0894Z" fill="#231F20"/>
<path d="M89.0792 25.3637C89.2511 25.3534 89.412 25.2746 89.5264 25.1445C89.6408 25.0144 89.6994 24.8437 89.6893 24.6699C89.6791 24.4962 89.6011 24.3336 89.4723 24.218C89.3436 24.1024 89.1746 24.0432 89.0027 24.0534C87.242 24.2239 85.5276 24.7214 83.9456 25.5209C81.526 26.7394 78.4529 29.2236 77.5504 34.1382C77.519 34.309 77.556 34.4855 77.6532 34.6287C77.7505 34.7719 77.9001 34.8703 78.0691 34.9021C78.1084 34.9099 78.1484 34.9138 78.1884 34.9139C78.3397 34.9137 78.4862 34.86 78.6025 34.7621C78.7188 34.6643 78.7975 34.5284 78.8251 34.378C79.4734 30.8732 81.3717 28.2946 84.4825 26.7145C85.9213 25.9871 87.4787 25.5294 89.0792 25.3637Z" fill="#231F20"/>
</svg>
