<svg width="952" height="944" viewBox="0 0 952 944" fill="none" xmlns="http://www.w3.org/2000/svg">
<g clip-path="url(#clip0_1_857)">
<path d="M586.07 429.58C569.78 372.7 538.5 302.77 498 232.67C457.5 162.56 412.54 100.53 371.4 58.01C351.12 37.04 332.76 21.86 316.82 12.88C298.63 2.63 283.78 0.680001 272.68 7.08C261.59 13.49 255.86 27.33 255.66 48.21C255.48 66.5 259.46 89.99 267.5 118.03C283.79 174.9 315.07 244.84 355.57 314.94C388.32 371.63 423.99 423.04 458.2 463.13C459.95 459.93 462.44 457.13 465.63 455.06C469.21 452.74 473.17 451.61 477.26 451.07C443.33 411.72 407.68 360.53 374.9 303.78C335.28 235.21 304.76 167.06 288.96 111.89C281.52 85.92 277.83 64.57 277.99 48.44C278.13 34.61 281.24 27.94 283.86 26.42C286.48 24.9 293.82 25.55 305.86 32.34C319.92 40.26 336.57 54.12 355.35 73.54C395.25 114.78 439.04 175.27 478.66 243.84C518.28 312.41 548.8 380.56 564.6 435.73C572.04 461.7 575.73 483.05 575.57 499.18C575.43 513.01 572.33 519.68 569.7 521.2C567.08 522.72 559.74 522.08 547.7 515.28C538.9 510.32 529.09 503.03 518.37 493.51C518.57 500.3 516.86 507.5 512.1 512.49C511.18 513.46 510.18 514.29 509.13 515.02C518.98 523.32 528.21 529.92 536.74 534.73C547.95 541.05 557.89 544.21 566.47 544.21C571.81 544.21 576.62 542.98 580.88 540.52C591.97 534.11 597.7 520.27 597.9 499.39C598.08 481.11 594.1 457.61 586.07 429.57V429.58Z" fill="#7B5EA7"/>
<path d="M566.47 547.22C557.39 547.22 546.89 543.9 535.27 537.35C526.65 532.49 517.2 525.75 507.2 517.32L504.21 514.8L507.42 512.57C508.37 511.91 509.19 511.21 509.93 510.44C514.94 505.19 515.49 497.65 515.37 493.61L515.17 486.67L520.36 491.28C530.9 500.64 540.6 507.84 549.17 512.68C561.48 519.62 567.31 519.13 568.2 518.61C569.09 518.1 572.43 513.29 572.57 499.16C572.73 483.32 569.07 462.26 561.71 436.56C545.97 381.61 515.55 313.7 476.06 245.34C436.56 176.97 392.92 116.7 353.19 75.62C334.61 56.41 318.18 42.72 304.38 34.95C292.07 28.01 286.24 28.5 285.35 29.02C284.46 29.53 281.12 34.34 280.98 48.47C280.82 64.31 284.48 85.37 291.84 111.07C307.58 166.01 338 233.92 377.49 302.29C410.14 358.8 445.42 409.57 479.53 449.12L483.15 453.32L477.65 454.05C473.4 454.62 470.1 455.74 467.25 457.59C464.56 459.33 462.4 461.69 460.82 464.59L458.73 468.41L455.9 465.1C421.31 424.57 385.72 373.17 352.96 316.47C312.34 246.16 280.96 175.98 264.6 118.88C256.49 90.56 252.47 66.78 252.65 48.2C252.87 26.18 259.1 11.48 271.17 4.5C283.25 -2.47 299.1 -0.530001 318.28 10.28C334.46 19.4 353.06 34.76 373.54 55.94C414.84 98.63 459.96 160.87 500.58 231.18C541.2 301.49 572.58 371.66 588.94 428.77C597.05 457.1 601.07 480.88 600.89 499.45C600.67 521.47 594.44 536.17 582.37 543.15C577.67 545.86 572.32 547.24 566.46 547.24L566.47 547.22ZM513.83 515.02C522.52 522.14 530.71 527.89 538.22 532.12C555.32 541.76 569.28 543.77 579.38 537.93C589.49 532.09 594.71 519.12 594.91 499.37C595.09 481.38 591.14 458.17 583.19 430.4C566.96 373.75 535.79 304.06 495.4 234.16C455.02 164.26 410.21 102.44 369.24 60.09C349.16 39.33 331.03 24.32 315.35 15.49C298.15 5.79 284.3 3.84 274.19 9.68C264.08 15.52 258.86 28.5 258.66 48.24C258.48 66.24 262.43 89.44 270.38 117.21C286.61 173.85 317.78 243.55 358.17 313.45C389.93 368.43 424.36 418.37 457.9 458.15C459.62 455.95 461.69 454.05 464 452.55C466.28 451.07 468.81 449.95 471.67 449.15C438.36 409.91 404.08 360.28 372.31 305.29C332.57 236.51 301.95 168.12 286.08 112.72C278.56 86.47 274.83 64.83 274.99 48.41C275.12 35.42 277.8 26.46 282.35 23.83C286.91 21.2 296.01 23.35 307.33 29.73C321.63 37.79 338.52 51.83 357.5 71.46C397.56 112.88 441.51 173.56 481.25 242.35C520.98 311.12 551.61 379.51 567.48 434.92C575 461.17 578.73 482.81 578.57 499.23C578.44 512.22 575.76 521.18 571.21 523.81C566.66 526.44 557.55 524.29 546.23 517.91C538.57 513.59 530.11 507.52 521.02 499.81C520.17 505.71 517.86 510.82 514.27 514.59C514.12 514.74 513.97 514.9 513.82 515.05L513.83 515.02Z" fill="#231F20"/>
<path d="M426.44 356.05C345.61 356.05 269.55 348.17 212.24 333.87C183.94 326.81 161.6 318.51 145.85 309.21C127.87 298.59 118.74 286.71 118.74 273.9C118.74 261.09 127.85 249.21 145.83 238.57C161.57 229.26 183.9 220.95 212.2 213.87C269.59 199.51 345.79 191.59 426.75 191.56H427.11C507.94 191.56 583.99 199.44 641.31 213.74C669.62 220.81 691.95 229.1 707.7 238.4C725.68 249.02 734.8 260.9 734.81 273.71C734.82 286.52 725.7 298.41 707.72 309.04C691.98 318.35 669.65 326.66 641.35 333.74C583.96 348.1 507.76 356.02 426.8 356.05H426.44ZM427.12 213.89H426.76C347.57 213.91 273.29 221.6 217.62 235.53C191.41 242.09 171.08 249.58 157.19 257.79C145.29 264.83 141.07 270.86 141.07 273.89C141.07 276.92 145.3 282.95 157.2 289.98C171.09 298.18 191.43 305.66 217.64 312.2C273.24 326.08 347.38 333.72 426.44 333.72H426.8C505.99 333.7 580.27 326.01 635.94 312.08C662.15 305.52 682.48 298.03 696.37 289.82C708.27 282.78 712.49 276.75 712.49 273.72C712.49 270.69 708.26 264.66 696.36 257.63C682.47 249.43 662.14 241.95 635.92 235.4C580.32 221.52 506.18 213.88 427.12 213.88V213.89Z" fill="#7B5EA7"/>
<path d="M426.8 359.05H426.44C345.38 359.05 269.04 351.14 211.51 336.78C182.93 329.65 160.32 321.24 144.33 311.79C125.37 300.59 115.75 287.84 115.75 273.9C115.75 259.96 125.35 247.2 144.31 235.99C160.3 226.54 182.9 218.12 211.48 210.96C269.1 196.54 345.56 188.58 426.76 188.56H427.12C508.18 188.56 584.51 196.47 642.05 210.83C670.64 217.97 693.25 226.38 709.24 235.82C728.2 247.02 737.82 259.77 737.82 273.71C737.82 287.66 728.21 300.41 709.26 311.62C693.27 321.08 670.67 329.5 642.09 336.65C584.47 351.07 508.01 359.02 426.81 359.05H426.8ZM426.75 194.56C346.02 194.58 270.09 202.47 212.92 216.78C184.9 223.79 162.84 231.99 147.35 241.15C130.35 251.2 121.73 262.22 121.74 273.89C121.74 285.56 130.37 296.58 147.37 306.62C162.87 315.77 184.94 323.96 212.96 330.95C270.03 345.2 345.85 353.05 426.44 353.05H426.8C507.52 353.03 583.46 345.14 640.63 330.83C668.65 323.82 690.71 315.62 706.2 306.46C723.2 296.41 731.82 285.39 731.81 273.72C731.81 262.05 723.18 251.04 706.18 240.99C690.69 231.84 668.62 223.65 640.59 216.66C583.51 202.41 507.69 194.56 427.11 194.56H426.75ZM426.79 336.72H426.43C347.14 336.72 272.73 329.05 216.91 315.11C190.42 308.5 169.81 300.91 155.67 292.56C144.48 285.95 138.06 279.15 138.06 273.89C138.06 268.63 144.47 261.82 155.66 255.21C169.79 246.85 190.39 239.25 216.89 232.62C272.79 218.63 347.33 210.91 426.76 210.89H427.12C506.41 210.89 580.82 218.56 636.64 232.5C663.14 239.12 683.74 246.7 697.88 255.05C709.07 261.66 715.49 268.46 715.49 273.72C715.49 278.98 709.08 285.79 697.9 292.4C683.76 300.76 663.16 308.36 636.67 314.99C580.77 328.98 506.23 336.7 426.8 336.72H426.79ZM426.76 216.89C347.8 216.91 273.79 224.57 218.35 238.44C192.42 244.93 172.36 252.31 158.72 260.37C146.55 267.56 144.07 272.86 144.07 273.88C144.07 274.9 146.56 280.2 158.73 287.39C172.37 295.45 192.44 302.81 218.37 309.29C273.73 323.11 347.62 330.72 426.44 330.72H426.8C505.75 330.7 579.77 323.04 635.21 309.17C661.14 302.68 681.2 295.3 694.84 287.24C707 280.05 709.49 274.75 709.49 273.72C709.49 272.7 707 267.4 694.83 260.22C681.19 252.16 661.12 244.8 635.19 238.32C579.83 224.5 505.93 216.89 427.12 216.89H426.76Z" fill="#231F20"/>
<path d="M287.23 544.3C281.9 544.3 277.09 543.07 272.84 540.62C261.74 534.22 256.01 520.38 255.79 499.5C255.6 481.21 259.57 457.72 267.59 429.67C283.85 372.79 315.09 302.84 355.55 232.71C396.01 162.58 440.93 100.53 482.05 57.98C502.32 37 520.68 21.81 536.6 12.82C554.79 2.56 569.64 0.6 580.73 7C591.83 13.4 597.56 27.24 597.78 48.12C597.97 66.4 594 89.9 585.99 117.95C569.73 174.83 538.49 244.78 498.03 314.91C457.57 385.04 412.64 447.09 371.53 489.64C351.26 510.62 332.91 525.81 316.98 534.8C305.76 541.13 295.82 544.3 287.24 544.3H287.23ZM566.27 25.66C562.48 25.66 556.25 27.36 547.56 32.26C533.51 40.19 516.87 54.06 498.09 73.49C458.21 114.76 414.45 175.27 374.88 243.86C335.3 312.46 304.82 380.62 289.05 435.8C281.62 461.78 277.95 483.13 278.11 499.26C278.25 513.09 281.37 519.76 283.99 521.27C286.61 522.78 293.95 522.14 305.99 515.34C320.04 507.41 336.68 493.54 355.46 474.11C395.34 432.84 439.1 372.33 478.67 303.74C518.25 235.15 548.73 166.98 564.5 111.8C571.93 85.82 575.6 64.47 575.44 48.34C575.3 34.51 572.18 27.84 569.56 26.33C568.83 25.91 567.73 25.65 566.27 25.65V25.66Z" fill="#7B5EA7"/>
<path d="M287.23 547.3C281.38 547.3 276.03 545.93 271.34 543.22C259.26 536.25 253.02 521.55 252.79 499.53C252.6 480.96 256.6 457.17 264.7 428.84C281.02 371.73 312.36 301.54 352.94 231.2C393.52 160.87 438.6 98.6 479.88 55.88C500.35 34.69 518.94 19.32 535.11 10.19C554.29 -0.63 570.13 -2.59 582.22 4.38C594.3 11.35 600.54 26.05 600.77 48.07C600.96 66.64 596.96 90.42 588.86 118.75C572.54 175.86 541.2 246.05 500.62 316.39C460.04 386.72 414.96 448.98 373.68 491.7C353.21 512.88 334.63 528.26 318.45 537.39C306.82 543.95 296.32 547.28 287.23 547.28V547.3ZM566.31 6.32C558.27 6.32 548.82 9.36 538.07 15.43C522.4 24.27 504.27 39.29 484.2 60.06C443.25 102.44 398.49 164.28 358.15 234.2C317.81 304.12 286.67 373.83 270.48 430.49C262.54 458.26 258.61 481.47 258.8 499.47C259.01 519.22 264.24 532.19 274.35 538.02C284.45 543.85 298.42 541.83 315.51 532.19C331.19 523.34 349.31 508.32 369.38 487.56C410.32 445.18 455.09 383.34 495.43 313.42C535.77 243.5 566.91 173.79 583.1 117.13C591.04 89.36 594.97 66.15 594.78 48.16C594.58 28.41 589.35 15.44 579.23 9.6C575.44 7.42 571.13 6.32 566.31 6.32ZM287.33 524.97C285.4 524.97 283.77 524.61 282.5 523.88C277.94 521.25 275.25 512.29 275.12 499.3C274.95 482.88 278.67 461.24 286.17 434.98C302.01 379.57 332.59 311.17 372.28 242.36C411.98 173.56 455.89 112.84 495.93 71.4C514.91 51.76 531.78 37.71 546.08 29.64C556.32 23.86 562.71 22.65 566.26 22.65C568.2 22.65 569.82 23.01 571.06 23.73C575.61 26.35 578.3 35.31 578.43 48.31C578.6 64.73 574.88 86.37 567.38 112.63C551.54 168.04 520.96 236.45 481.27 305.25C441.57 374.05 397.66 434.76 357.62 476.21C338.65 495.85 321.77 509.9 307.47 517.97C299.32 522.57 292.31 524.98 287.33 524.98V524.97ZM566.27 28.66C564.4 28.66 558.98 29.27 549.04 34.88C535.24 42.67 518.83 56.36 500.26 75.58C460.55 116.68 416.95 176.98 377.49 245.37C338.03 313.76 307.65 381.69 291.95 436.64C284.61 462.34 280.96 483.4 281.13 499.24C281.28 513.37 284.62 518.17 285.51 518.69C286.4 519.2 292.23 519.69 304.53 512.75C318.33 504.96 334.74 491.27 353.31 472.05C393.02 430.95 436.62 370.65 476.08 302.26C515.54 233.87 545.92 165.94 561.62 110.99C568.97 85.29 572.61 64.23 572.44 48.39C572.29 34.26 568.95 29.46 568.06 28.95C568.04 28.94 567.57 28.67 566.27 28.67V28.66Z" fill="#231F20"/>
<path d="M863.1 674.34C626.59 720.88 392.72 808.13 171.97 931.31C128.75 955.43 74.52 930.84 64 882.48L63.66 880.9C56.35 847.3 73.21 813.1 104.31 798.45C347.39 683.93 599.61 610.8 849.26 582.84C880.1 579.39 905.44 606.82 899.46 637.27L899.28 638.19C895.69 656.47 881.39 670.74 863.1 674.34Z" fill="#231F20"/>
<path d="M136.18 943.71C125.48 943.71 114.74 941.43 104.57 936.84C82.1499 926.72 66.2899 907.14 61.0699 883.11L60.7299 881.53C57.0499 864.62 59.2399 846.76 66.8899 831.24C74.5399 815.72 87.3799 803.11 103.03 795.73C224.23 738.63 348.87 691.38 473.49 655.3C598.29 619.16 724.61 593.78 848.93 579.86C864.62 578.1 879.74 583.75 890.42 595.35C901.07 606.92 905.44 622.41 902.41 637.85L902.23 638.77C898.39 658.32 883.26 673.44 863.69 677.29C627.61 723.75 395.38 810.1 173.44 933.94C161.78 940.45 149.01 943.73 136.19 943.73L136.18 943.71ZM854.53 585.54C852.9 585.54 851.25 585.63 849.6 585.82C725.61 599.71 599.63 625.02 475.16 661.06C350.85 697.05 226.51 744.19 105.59 801.16C75.5799 815.3 59.5399 847.83 66.5899 880.26L66.9299 881.84C71.7499 903.99 86.3699 922.05 107.04 931.38C127.65 940.68 150.78 939.7 170.51 928.7C392.98 804.56 625.84 717.98 862.53 671.4C879.7 668.02 892.97 654.76 896.34 637.61L896.52 636.69C899.18 623.15 895.35 609.56 886.01 599.41C877.76 590.45 866.5 585.54 854.54 585.54H854.53Z" fill="#231F20"/>
<path d="M863.1 674.34C626.59 720.88 392.72 808.13 171.97 931.31C128.75 955.43 74.52 930.84 64 882.48L63.66 880.9C56.35 847.3 73.21 813.1 104.31 798.45C347.39 683.93 599.61 610.8 849.26 582.84C880.1 579.39 905.44 606.82 899.46 637.27L899.28 638.19C895.69 656.47 881.39 670.74 863.1 674.34Z" fill="#FCBA2B"/>
<path d="M136.18 943.71C125.48 943.71 114.74 941.43 104.57 936.84C82.1499 926.72 66.2899 907.14 61.0699 883.11L60.7299 881.53C57.0499 864.62 59.2399 846.76 66.8899 831.24C74.5399 815.72 87.3799 803.11 103.03 795.73C224.23 738.63 348.87 691.38 473.49 655.3C598.29 619.16 724.61 593.78 848.93 579.86C864.62 578.1 879.74 583.75 890.42 595.35C901.07 606.92 905.44 622.41 902.41 637.85L902.23 638.77C898.39 658.32 883.26 673.44 863.69 677.29C627.61 723.75 395.38 810.1 173.44 933.94C161.78 940.45 149.01 943.73 136.19 943.73L136.18 943.71ZM854.53 585.54C852.9 585.54 851.25 585.63 849.6 585.82C725.61 599.71 599.63 625.02 475.16 661.06C350.85 697.05 226.51 744.19 105.59 801.16C75.5799 815.3 59.5399 847.83 66.5899 880.26L66.9299 881.84C71.7499 903.99 86.3699 922.05 107.04 931.38C127.65 940.68 150.78 939.7 170.51 928.7C392.98 804.56 625.84 717.98 862.53 671.4C879.7 668.02 892.97 654.76 896.34 637.61L896.52 636.69C899.18 623.15 895.35 609.56 886.01 599.41C877.76 590.45 866.5 585.54 854.54 585.54H854.53Z" fill="#231F20"/>
<path d="M297.58 825.44C296.52 825.92 294.91 825.53 294.44 824.62C289.13 815.33 283.75 805.98 278.29 796.57C279.54 807.33 280.78 818.09 282.03 828.85C282.26 830.81 280.94 833.06 279.27 833.84C278.42 834.23 277.57 834.63 276.72 835.02C275.05 835.8 273.37 834.92 273.13 832.96C270.76 813.24 268.39 793.53 266.02 773.81C265.78 771.84 267.14 769.62 268.87 768.9C269.6 768.6 270.33 768.29 271.05 767.99C272.23 767.5 273.82 767.97 274.31 768.89C279.83 778.36 285.28 787.77 290.65 797.12C289.47 786.42 288.29 775.72 287.11 765.03C286.89 763.09 288.18 760.93 290.01 760.19C290.86 759.84 291.71 759.5 292.56 759.15C294.38 758.41 296.01 759.37 296.21 761.31C298.27 780.74 300.33 800.17 302.4 819.6C302.61 821.54 301.36 823.72 299.6 824.52C298.92 824.83 298.25 825.13 297.57 825.44H297.58Z" fill="#231F20"/>
<path d="M334.07 742.75C335.9 742.05 337.5 743 337.66 744.9C337.73 745.75 337.81 746.61 337.88 747.46C338.04 749.36 336.72 751.44 334.9 752.15C330.25 753.97 325.61 755.8 320.97 757.65C321.54 763.64 322.11 769.64 322.68 775.63C326.47 774.07 330.25 772.52 334.04 770.98C335.84 770.25 337.42 771.19 337.59 773.08C337.67 773.93 337.74 774.79 337.82 775.64C337.99 777.54 336.68 779.65 334.89 780.39C331.12 781.95 327.35 783.51 323.58 785.09C324.15 791.12 324.72 797.14 325.3 803.17C329.83 801.21 334.37 799.27 338.91 797.34C340.69 796.59 342.25 797.5 342.41 799.39C342.48 800.24 342.56 801.1 342.63 801.95C342.79 803.84 341.51 805.97 339.74 806.74C333.36 809.49 327 812.28 320.63 815.09C318.86 815.87 317.3 814.96 317.11 813.04C315.2 793.76 313.29 774.47 311.38 755.19C311.19 753.27 312.5 751.15 314.33 750.43C320.91 747.83 327.5 745.26 334.09 742.73L334.07 742.75Z" fill="#231F20"/>
<path d="M384.8 755.23C385.55 745.42 386.31 735.64 387.1 725.88C387.18 724.24 388.67 722.48 390.23 721.93C391.12 721.61 392.01 721.3 392.9 720.98C394.92 720.26 396.59 721.45 396.43 723.57C394.59 743.09 392.84 762.7 391.17 782.4C391 783.99 389.65 785.86 388.14 786.47C387.46 786.75 386.78 787.03 386.09 787.3C384.67 787.88 383.16 787.26 382.79 785.88C380.55 776.66 378.28 767.41 375.99 758.14C375.05 768.66 374.14 779.21 373.26 789.78C373.1 791.38 371.77 793.18 370.35 793.78C369.7 794.05 369.05 794.32 368.4 794.59C366.89 795.22 365.46 794.47 365.08 793.08C360.74 775.46 356.32 757.76 351.81 739.98C351.37 738.01 352.6 735.71 354.71 734.92C355.6 734.59 356.48 734.26 357.37 733.93C358.93 733.35 360.49 734.02 360.89 735.51C363.01 744.45 365.12 753.36 367.2 762.25C368.06 752.17 368.95 742.11 369.86 732.08C370.03 730.49 371.41 728.74 372.88 728.2C373.55 727.95 374.23 727.71 374.9 727.46C376.37 726.92 377.92 727.6 378.3 728.98C380.49 737.75 382.67 746.5 384.82 755.23H384.8Z" fill="#231F20"/>
<path d="M412.54 757.24C412.44 755.42 413.81 753.41 415.62 752.74C416.46 752.42 417.31 752.11 418.15 751.79C419.87 751.15 421.47 752.03 421.56 753.84C421.58 754.23 421.6 754.63 421.62 755.02C421.83 759.37 422.74 761.15 424.05 761.76C425.08 762.38 426.62 761.98 427.88 761.5C431.65 760.07 433.64 757.67 433.44 752.9C433.26 748.67 428.96 746.86 424.36 745.05V745.14C418.17 742.63 411.64 740.01 411.16 730.98C410.6 720.67 415.72 712.84 425.49 709.53C435.45 706.16 440.95 710.61 441.38 721.98C441.4 722.4 441.41 722.82 441.43 723.23C441.5 725.02 440.09 726.96 438.27 727.6C437.42 727.9 436.57 728.2 435.72 728.5C433.9 729.14 432.37 728.22 432.3 726.42C432.28 726 432.26 725.58 432.25 725.16C431.99 719.22 429.95 717.18 425.91 718.57C422.06 719.9 420.05 722.73 420.28 727.45C420.51 732.08 425.15 734.01 429.75 735.84L429.66 735.87C435.87 738.32 442.12 740.71 442.45 749.39C442.83 759.42 437.76 766.78 428.29 770.44C418.47 774.25 413.26 770.37 412.61 758.41C412.59 758.02 412.57 757.62 412.55 757.23L412.54 757.24Z" fill="#231F20"/>
<path d="M482.3 747.25C482.33 749 480.92 750.91 479.13 751.56C472.76 753.86 466.39 756.18 460.02 758.54C458.23 759.2 456.75 758.32 456.69 756.54C456.11 738.71 455.54 720.88 454.96 703.05C454.9 701.27 456.33 699.37 458.18 698.77C459.07 698.48 459.97 698.19 460.86 697.9C462.61 697.33 464.13 698.27 464.18 700.04C464.62 715.92 465.07 731.79 465.51 747.67C469.98 746.06 474.46 744.46 478.94 742.88C480.74 742.24 482.21 743.14 482.25 744.88C482.27 745.67 482.28 746.45 482.3 747.24V747.25Z" fill="#231F20"/>
<path d="M518.39 680.14C520.24 679.59 521.73 680.52 521.73 682.23C521.73 683 521.73 683.77 521.73 684.53C521.73 686.24 520.26 688.04 518.41 688.6C513.71 690.02 509.01 691.45 504.31 692.9C504.36 698.3 504.41 703.71 504.46 709.11C508.3 707.88 512.14 706.66 515.98 705.44C517.81 704.86 519.28 705.77 519.28 707.48C519.28 708.25 519.28 709.02 519.28 709.79C519.28 711.5 517.83 713.33 516.01 713.92C512.18 715.15 508.36 716.4 504.53 717.65C504.58 723.08 504.63 728.52 504.68 733.95C509.29 732.38 513.9 730.83 518.51 729.29C520.32 728.69 521.77 729.57 521.77 731.28C521.77 732.05 521.77 732.82 521.77 733.58C521.77 735.29 520.33 737.14 518.53 737.75C512.05 739.96 505.57 742.2 499.09 744.47C497.29 745.1 495.83 744.22 495.81 742.48C495.58 725.08 495.34 707.68 495.11 690.27C495.09 688.53 496.55 686.69 498.4 686.13C505.06 684.1 511.72 682.1 518.39 680.14Z" fill="#231F20"/>
<path d="M535.98 677.98C535.99 676.29 537.48 674.51 539.33 673.99C547.42 671.69 555.52 669.43 563.62 667.22C565.48 666.71 566.93 667.64 566.9 669.29C566.88 670.06 566.87 670.84 566.85 671.61C566.82 673.27 565.31 675 563.46 675.52C560.93 676.23 558.41 676.94 555.88 677.65C555.65 692.61 555.42 707.57 555.2 722.53C555.17 724.2 553.71 726 551.9 726.58C551.09 726.84 550.27 727.11 549.46 727.37C547.66 727.96 546.23 727.09 546.24 725.41C546.4 710.36 546.57 695.31 546.73 680.26C544.24 680.98 541.74 681.7 539.25 682.43C537.4 682.97 535.94 682.05 535.94 680.36C535.94 679.57 535.94 678.78 535.95 677.99L535.98 677.98Z" fill="#231F20"/>
<path d="M581.39 665.37C581.43 663.73 582.96 662.02 584.81 661.54C592.92 659.41 601.03 657.32 609.14 655.29C611 654.82 612.43 655.74 612.36 657.34L612.26 659.59C612.19 661.2 610.66 662.86 608.81 663.34C606.28 663.99 603.75 664.65 601.22 665.31C600.68 679.81 600.15 694.32 599.61 708.82C599.55 710.44 598.05 712.17 596.24 712.71C595.42 712.96 594.61 713.2 593.8 713.45C591.99 714 590.58 713.14 590.64 711.51C591.12 696.91 591.59 682.32 592.07 667.72C589.57 668.38 587.08 669.05 584.58 669.73C582.73 670.23 581.29 669.32 581.33 667.68C581.35 666.91 581.37 666.15 581.39 665.38V665.37Z" fill="#231F20"/>
<path d="M650.52 645.37C652.38 644.94 653.79 645.84 653.69 647.4C653.65 648.1 653.6 648.8 653.56 649.5C653.46 651.06 651.9 652.65 650.05 653.1C645.32 654.23 640.6 655.37 635.87 656.52C635.6 661.46 635.34 666.41 635.07 671.35C638.93 670.36 642.8 669.37 646.67 668.4C648.51 667.94 649.91 668.82 649.81 670.38C649.77 671.08 649.72 671.78 649.68 672.49C649.58 674.05 648.04 675.68 646.21 676.15C642.36 677.15 638.51 678.15 634.65 679.17C634.38 684.14 634.11 689.11 633.85 694.08C638.49 692.79 643.14 691.52 647.79 690.27C649.61 689.78 650.99 690.63 650.9 692.19C650.86 692.89 650.81 693.59 650.77 694.29C650.67 695.85 649.14 697.49 647.33 698C640.79 699.81 634.26 701.65 627.73 703.52C625.92 704.04 624.53 703.19 624.61 701.6C625.4 685.66 626.18 669.72 626.97 653.78C627.05 652.19 628.6 650.56 630.46 650.11C637.15 648.5 643.85 646.91 650.54 645.36L650.52 645.37Z" fill="#231F20"/>
<path d="M694.17 682.84C694.04 684.34 692.48 685.92 690.66 686.39C689.81 686.61 688.96 686.82 688.11 687.04C686.29 687.51 684.93 686.67 685.05 685.15C685.39 680.93 685.72 676.71 686.06 672.48C686.36 668.69 683.96 667.18 679.46 668.27C678.08 668.6 676.71 668.94 675.33 669.28C674.87 675.53 674.4 681.78 673.94 688.03C673.83 689.56 672.28 691.17 670.55 691.63C669.7 691.86 668.85 692.08 668 692.31C666.18 692.8 664.81 691.95 664.92 690.41C666 674.95 667.07 659.49 668.15 644.03C668.26 642.49 669.83 640.92 671.69 640.51C675.6 639.65 679.51 638.79 683.41 637.95C694.86 635.5 698.47 639.36 697.61 649.43C697.21 654.1 695.88 658.08 692.83 661.09C692.53 661.38 692.34 661.58 692.04 661.87C694.51 663.59 695.54 666.37 695.21 670.29C694.86 674.48 694.5 678.67 694.15 682.87L694.17 682.84ZM675.91 661.55C677.29 661.22 678.67 660.89 680.06 660.57C685.22 659.35 688.06 656.61 688.48 651.46C688.89 646.31 687.67 644.49 682.85 645.56C680.9 645.99 678.95 646.43 677.01 646.87C676.65 651.77 676.28 656.66 675.92 661.56L675.91 661.55Z" fill="#231F20"/>
<path d="M84.05 767.95C76.76 771.3 70.37 770.82 64.81 766.41C59.25 762.01 55.6 755.88 53.89 748.05C37.61 673.22 21.33 598.41 5.05001 523.61C2.47001 509.79 3.08001 497.34 6.98001 486.37C10.88 475.4 16.06 468.86 22.42 466.7C49.49 458.59 76.56 450.93 103.6 443.73C121.97 440.08 138.99 444.39 154.31 456.22C169.63 468.07 180.27 481.52 186.52 496.66C192.77 511.8 196.9 528.21 199.05 545.98C202.5 574.36 198.45 597.16 187.25 614.85C202.78 629.29 213.37 650.87 219.43 679.75C220.84 686.96 219.83 694.33 216.46 701.95C213.09 709.58 207.93 714.8 200.93 717.62C192.49 721.01 184.06 724.45 175.64 727.94C168.29 730.99 162.01 730.37 156.73 726C151.45 721.64 148.11 715.67 146.78 708.1C140.63 685.3 135.01 670.29 129.94 663.11C126.04 666.88 122.16 670.68 118.29 674.5C120.89 688.55 123.48 702.6 126.08 716.65C127.85 724.12 127.17 731.84 124.12 739.87C121.07 747.9 116.09 753.48 109.14 756.59C100.76 760.34 92.39 764.13 84.03 767.97L84.05 767.95ZM122.94 575.79C122.11 571.07 121.28 566.34 120.45 561.62C116.82 543.33 112.25 531.55 106.68 526.27C102.7 524.01 97.46 524.11 90.97 526.65C95.68 552.12 100.39 577.59 105.1 603.06C106.06 602.72 107.02 602.38 107.98 602.04C119.06 593.34 124.08 584.66 122.94 575.78V575.79Z" fill="#12B5E5"/>
<path d="M75.01 773.16C70.66 773.16 66.63 771.69 62.94 768.77C56.84 763.94 52.8 757.18 50.96 748.7C34.68 673.87 18.4 599.06 2.11998 524.26C-0.580019 509.8 0.10998 496.75 4.15998 485.38C8.34998 473.59 14.17 466.35 21.46 463.88L21.57 463.85C48.52 455.78 75.86 448.04 102.84 440.85L103.03 440.81C122.15 437.01 140.02 441.41 156.15 453.87C171.7 465.9 182.85 479.91 189.3 495.53C195.56 510.7 199.85 527.56 202.03 545.64C205.39 573.21 201.7 596.32 191.07 614.37C206.1 629.19 216.34 650.41 222.36 679.15C223.89 686.92 222.82 694.99 219.2 703.18C215.51 711.52 209.74 717.32 202.05 720.42C193.61 723.81 185.12 727.28 176.79 730.73C168.36 734.23 160.97 733.42 154.82 728.33C149.01 723.54 145.32 716.96 143.86 708.77C138.61 689.33 133.76 675.6 129.38 667.86C126.76 670.41 124.13 672.98 121.54 675.53L129.03 716.04C130.9 724 130.19 732.37 126.94 740.94C123.6 749.72 118.03 755.91 110.38 759.33C101.96 763.1 93.52 766.92 85.3 770.7C81.71 772.35 78.27 773.18 75.01 773.18V773.16ZM23.34 469.56C17.9 471.44 13.35 477.43 9.80998 487.38C6.11998 497.75 5.51998 509.75 7.99998 523.07C24.26 597.78 40.54 672.6 56.82 747.42C58.36 754.51 61.68 760.11 66.67 764.06C71.34 767.77 76.46 768.14 82.79 765.23C91.02 761.44 99.48 757.61 107.92 753.84C114.15 751.05 118.53 746.13 121.32 738.8C124.19 731.25 124.79 724.23 123.16 717.34L123.13 717.19L115.05 673.48L116.18 672.36C120.03 668.56 123.96 664.72 127.85 660.95L130.37 658.51L132.39 661.37C137.72 668.93 143.38 683.96 149.67 707.31L149.73 707.57C150.92 714.37 153.92 719.79 158.63 723.67C163.06 727.33 168.09 727.8 174.48 725.15C182.83 721.69 191.34 718.21 199.8 714.82C206.08 712.29 210.63 707.68 213.71 700.72C216.87 693.58 217.77 686.9 216.48 680.31C210.5 651.74 200.26 631.03 185.21 617.03L183.39 615.33L184.72 613.23C195.57 596.08 199.39 573.57 196.08 546.33C193.96 528.79 189.81 512.46 183.76 497.79C177.71 483.15 167.19 469.96 152.48 458.58C137.81 447.25 121.59 443.23 104.29 446.64C77.42 453.8 50.19 461.5 23.35 469.55L23.34 469.56ZM102.78 607.07L87.56 524.76L89.87 523.86C97.2 521 103.35 520.93 108.16 523.67L108.48 523.85L108.74 524.1C114.8 529.86 119.59 541.94 123.38 561.04L125.9 575.41C127.17 585.27 121.76 595.03 109.82 604.41L109.43 604.72L102.77 607.07H102.78ZM94.38 528.64L107.34 598.72C116.76 591 120.89 583.64 119.97 576.25L117.49 562.15C114.07 544.93 109.83 533.67 104.88 528.72C102.21 527.35 98.69 527.32 94.38 528.64Z" fill="#231F20"/>
<path d="M201.13 466.34C199.8 453.5 201.44 442.1 206.15 432.26C210.86 422.42 216.43 416.75 222.78 415.15C270.29 404.94 317.67 396.14 364.87 388.78C370 388.41 374.29 390.05 377.71 393.67C381.13 397.29 382.99 401.72 383.32 406.97C383.84 415.38 384.37 423.79 384.89 432.19C385.22 437.45 383.96 442.39 381.14 447.07C378.32 451.74 374.45 454.78 369.53 456.15C341.16 461.62 312.74 467.61 284.29 474.12C285.62 486.89 286.94 499.67 288.27 512.44C310.56 506.87 332.83 501.63 355.09 496.71C360 496.06 364.12 497.49 367.44 500.97C370.75 504.45 372.58 508.83 372.95 514.13C373.24 518.37 373.54 522.61 373.83 526.85C374.2 532.15 373.03 537.21 370.37 542.08C367.7 546.94 364.01 550.2 359.29 551.83C337.58 557.33 315.87 563.14 294.17 569.27C295.5 582.05 296.82 594.82 298.15 607.6C324.88 599.44 351.64 591.77 378.41 584.57C383.12 583.74 387.06 585 390.22 588.34C393.38 591.67 395.1 595.96 395.43 601.21C395.95 609.62 396.48 618.03 397 626.44C397.33 631.7 396.2 636.79 393.64 641.75C391.08 646.71 387.56 650.12 383.06 651.96C341.19 665.05 299.41 679.34 257.78 694.82C252.16 696.68 246.26 694.35 239.97 687.76C233.68 681.17 229.44 671.55 227.34 658.92C218.61 594.72 209.88 530.53 201.15 466.34H201.13Z" fill="#12B5E5"/>
<path d="M253.98 698.44C248.68 698.44 243.25 695.56 237.77 689.83C231.05 682.79 226.54 672.56 224.35 659.41L198.14 466.65C196.75 453.23 198.53 441.22 203.44 430.96C208.51 420.36 214.77 414.06 222.04 412.23L222.14 412.21C269.44 402.04 317.31 393.16 364.39 385.81L364.64 385.78C370.69 385.35 375.82 387.31 379.88 391.6C383.77 395.72 385.93 400.83 386.3 406.78L387.87 432C388.23 437.82 386.83 443.41 383.69 448.61C380.47 453.95 375.97 457.45 370.31 459.03L370.07 459.09C342.72 464.36 314.96 470.2 287.52 476.45L290.87 508.69C311.98 503.44 333.34 498.43 354.42 493.77L354.67 493.73C360.56 492.95 365.58 494.69 369.58 498.9C373.36 502.87 375.49 507.93 375.91 513.92L376.79 526.64C377.19 532.47 375.91 538.15 372.97 543.52C369.94 549.05 365.65 552.8 360.24 554.67L360 554.74C339.22 560 318.17 565.63 297.39 571.47L300.73 603.66C326.25 595.92 352.09 588.52 377.6 581.66L377.86 581.6C383.52 580.6 388.54 582.21 392.37 586.26C396 590.09 398.03 595.05 398.4 601.01L399.97 626.24C400.33 631.99 399.09 637.67 396.29 643.11C393.4 648.71 389.33 652.62 384.18 654.72L383.94 654.81C342.28 667.83 300.18 682.23 258.81 697.62L258.71 697.66C257.15 698.17 255.58 698.43 253.99 698.43L253.98 698.44ZM204.11 465.98L230.29 658.51C232.26 670.36 236.25 679.53 242.12 685.68C247.54 691.36 252.33 693.42 256.77 691.98C298.18 676.58 340.32 662.17 382.02 649.13C385.81 647.55 388.73 644.68 390.95 640.37C393.28 635.84 394.27 631.35 393.98 626.62L392.41 601.39C392.12 596.81 390.69 593.22 388.01 590.39C385.56 587.8 382.7 586.88 379.03 587.49C352.47 594.63 325.54 602.36 299 610.46L295.52 611.52L290.91 567.06L293.34 566.37C314.92 560.28 336.81 554.42 358.41 548.94C362.37 547.54 365.42 544.82 367.72 540.62C370.13 536.22 371.15 531.78 370.82 527.04L369.94 514.32C369.62 509.7 368.09 506 365.25 503.02C362.63 500.27 359.47 499.17 355.59 499.65C333.49 504.53 311.08 509.81 288.98 515.33L285.63 516.17L281.02 471.77L283.61 471.18C311.92 464.7 340.59 458.65 368.82 453.21C372.96 452.02 376.14 449.5 378.56 445.5C381.09 441.31 382.17 437.01 381.89 432.36L380.32 407.14C380.03 402.56 378.47 398.82 375.53 395.71C372.76 392.77 369.38 391.48 365.2 391.74C318.28 399.07 270.6 407.92 223.46 418.05C218.02 419.44 213.1 424.65 208.85 433.54C204.43 442.77 202.84 453.68 204.1 465.97L204.11 465.98Z" fill="#231F20"/>
<path d="M481.45 564.62C481.42 575.5 481.4 586.39 481.38 597.28C481.53 603.7 479.51 610.04 475.36 616.4C471.21 622.76 465.62 626.93 458.53 628.88C449.99 631.24 441.45 633.65 432.92 636.11C425.47 638.26 419.49 637.3 414.92 633.13C410.35 628.97 408.03 623.48 408.02 616.69C407.45 566.6 407.03 516.69 406.76 466.96C408.62 435.09 415.43 412.03 427.22 397.99C438.99 383.93 456.01 375.74 477.92 373.4C484.21 372.73 490.49 372.08 496.77 371.45C518.65 369.29 535.77 373.8 547.91 384.28C560.07 394.8 567.63 414.12 570.68 442.23C572.31 487.03 573.81 531.64 575.17 576.07C575.42 582.06 573.34 587.95 568.97 593.83C564.6 599.72 558.7 603.53 551.25 605.27C542.7 607.26 534.15 609.31 525.6 611.4C518.51 613.14 512.81 612.03 508.46 607.95C504.11 603.88 501.87 598.66 501.78 592.32C501.35 581.69 500.91 571.05 500.48 560.41C494.13 561.79 487.79 563.19 481.44 564.62H481.45ZM483.54 464.74C483.09 480.25 482.65 495.79 482.23 511.34C487.39 510.36 492.55 509.4 497.71 508.45C496.71 493.31 495.69 478.16 494.65 462.98C493.93 455.13 493.33 448.89 492.86 444.27C492.39 439.66 491.25 436.78 489.45 435.63C488.86 435.71 488.27 435.8 487.67 435.88C485.92 437.53 484.9 440.73 484.6 445.48C484.3 450.23 483.95 456.65 483.53 464.74H483.54Z" fill="#12B5E5"/>
<path d="M425.74 640.22C420.75 640.22 416.45 638.59 412.89 635.34C407.67 630.59 405.02 624.32 405.02 616.68C404.45 566.91 404.03 516.52 403.76 466.97V466.78C405.67 434.3 412.78 410.5 424.92 396.05C437.13 381.47 454.86 372.84 477.6 370.4C483.9 369.72 490.25 369.07 496.47 368.45C518.93 366.24 536.89 370.79 549.87 381.99C562.53 392.94 570.54 413.09 573.66 441.89L573.68 442.1C575.3 486.61 576.81 531.65 578.17 575.96C578.45 582.54 576.16 589.16 571.38 595.6C566.59 602.05 560.04 606.28 551.93 608.18C543.42 610.16 534.8 612.22 526.31 614.3C518.18 616.29 511.49 614.89 506.4 610.12C501.44 605.49 498.88 599.51 498.77 592.34C498.39 582.97 498 573.53 497.62 564.08C493.23 565.04 488.81 566.02 484.43 567C484.4 577.08 484.38 587.17 484.36 597.26C484.52 604.14 482.33 611.14 477.85 618.01C473.3 624.98 467.06 629.6 459.31 631.75C450.82 634.1 442.21 636.53 433.73 638.97C430.9 639.79 428.22 640.2 425.73 640.2L425.74 640.22ZM409.76 467.04C410.03 516.55 410.45 566.89 411.02 616.65C411.02 622.64 412.96 627.29 416.93 630.91C420.68 634.33 425.63 635.09 432.08 633.23C440.58 630.78 449.21 628.35 457.72 625.99C464.11 624.22 469.05 620.55 472.83 614.76C476.69 608.84 478.5 603.15 478.36 597.35C478.38 586.38 478.4 575.49 478.43 564.61V562.22L480.77 561.69C487.09 560.27 493.5 558.85 499.83 557.48L503.32 556.72L503.47 560.28C503.91 570.92 504.34 581.56 504.77 592.19C504.85 597.81 506.73 602.22 510.5 605.75C514.06 609.09 518.76 609.98 524.88 608.48C533.39 606.4 542.03 604.33 550.56 602.34C557.35 600.76 562.58 597.38 566.56 592.03C570.56 586.65 572.39 581.47 572.17 576.19C570.81 531.89 569.3 486.9 567.68 442.44C564.72 415.26 557.4 396.45 545.94 386.54C534.26 376.46 517.81 372.38 497.05 374.43C490.85 375.05 484.51 375.7 478.23 376.37C457.08 378.63 440.69 386.55 429.51 399.91C418.23 413.34 411.58 435.92 409.75 467.04H409.76ZM479.12 514.99L479.22 511.27C479.64 495.71 480.08 480.18 480.53 464.66V464.59C480.95 456.54 481.3 450.05 481.6 445.3C481.95 439.71 483.26 435.92 485.61 433.71L486.3 433.06L490.12 432.52L491.05 433.11C493.69 434.79 495.26 438.35 495.84 443.98C496.33 448.77 496.94 455.08 497.63 462.73C498.67 477.98 499.69 493.13 500.69 508.27L500.87 510.94L498.24 511.42C493.09 512.36 487.94 513.32 482.78 514.3L479.12 514.99ZM486.52 464.87C486.11 479.13 485.7 493.42 485.31 507.71C488.38 507.13 491.45 506.56 494.52 506C493.57 491.75 492.61 477.49 491.64 463.2C490.95 455.65 490.35 449.36 489.86 444.59C489.6 442.04 489.16 440.49 488.76 439.55C488.26 440.7 487.77 442.59 487.58 445.67C487.28 450.39 486.93 456.85 486.52 464.86V464.87Z" fill="#231F20"/>
<path d="M585.72 462.42C586.46 447.91 589.29 433.03 594.32 417.94C599.34 402.86 607.74 389.96 619.57 379.5C631.39 369.03 646.22 363.18 663.83 361.87C676.4 361.57 688.95 361.38 701.47 361.3C713.76 361.74 724.3 363.85 733.08 367.47C741.85 371.1 748.42 376.19 752.79 382.68C757.16 389.18 759.22 398.09 759.04 409.44C758.46 415.13 757.89 420.81 757.31 426.5C755.2 435.89 749.43 441.1 739.98 442.2C725.32 442.86 710.64 443.66 695.93 444.62C686.37 444.56 681.33 439.67 680.82 429.83C681.4 423.99 681.05 420.49 679.77 419.32C676.8 417.19 673.88 417.34 671.01 419.81C668.44 423.68 666.48 429.01 665.11 435.77C663.74 442.53 662.67 449.34 661.89 456.16C661.24 467.24 660.59 478.33 659.94 489.41C659.92 496.16 660.18 502.83 660.73 509.41C661.27 515.99 662.55 521 664.56 524.43C667.03 526.39 669.82 526.01 672.95 523.32C674.33 521.91 675.13 518.31 675.33 512.5C677.1 502.46 682.74 496.58 692.21 494.92C706.62 493.44 721.01 492.11 735.39 490.93C744.53 490.86 749.19 495.51 749.36 504.76C748.78 510.45 748.21 516.13 747.63 521.82C745.54 533.29 741.84 542.51 736.53 549.59C731.22 556.67 724.22 562.6 715.53 567.44C706.83 572.28 696.85 575.92 685.54 578.34C674.08 580.27 662.62 582.29 651.16 584.4C635.2 586.46 622.23 583.78 612.06 575.92C601.9 568.08 594.79 557.18 590.82 543.26C586.85 529.35 584.79 515.11 584.77 500.7C585.08 487.93 585.4 475.16 585.71 462.39L585.72 462.42Z" fill="#12B5E5"/>
<path d="M641.15 588.11C628.88 588.11 618.69 584.88 610.22 578.33C599.55 570.1 592.06 558.59 587.93 544.12C583.86 529.87 581.79 515.28 581.77 500.74L582.72 462.27C583.48 447.36 586.42 432.12 591.47 416.99C596.68 401.34 605.46 387.97 617.58 377.25C629.8 366.42 645.29 360.24 663.61 358.87H663.76C676.35 358.56 689.03 358.37 701.46 358.29H701.59C714.05 358.74 725.03 360.89 734.24 364.69C743.5 368.52 750.59 374.01 755.29 381C759.97 387.97 762.24 397.55 762.05 409.49V409.74L760.25 427.16C757.88 437.71 751 443.94 740.34 445.19L740.13 445.21C725.57 445.86 710.77 446.68 696.14 447.63H695.93C684.69 447.57 678.44 441.47 677.85 430V429.55C678.42 423.88 677.91 422.02 677.72 421.55C676.15 420.54 674.86 420.63 673.3 421.85C671.07 425.36 669.31 430.25 668.08 436.39C666.75 442.97 665.68 449.72 664.91 456.45L662.97 489.54C662.95 496.13 663.21 502.75 663.75 509.2C664.22 514.95 665.28 519.4 666.89 522.43C667.58 522.84 668.69 523.04 670.89 521.2C671.12 520.89 672.13 519.17 672.37 512.43L672.41 512.01C674.39 500.78 681.08 493.86 691.73 492L691.94 491.97C706.3 490.5 720.84 489.15 735.17 487.97H735.39C735.46 487.97 735.54 487.96 735.61 487.96C746.24 487.96 752.19 493.91 752.38 504.74V504.92L750.6 522.39C748.45 534.21 744.53 543.98 738.95 551.42C733.44 558.77 726.06 565.05 717 570.09C708.04 575.07 697.67 578.84 686.17 581.3L686.04 581.32C674.67 583.23 663.12 585.27 651.71 587.37L651.55 587.4C647.93 587.87 644.47 588.1 641.17 588.1L641.15 588.11ZM588.71 462.54L587.77 500.81C587.79 514.71 589.79 528.76 593.7 542.47C597.46 555.68 604.26 566.15 613.89 573.58C623.31 580.86 635.34 583.44 650.69 581.47C662.08 579.37 673.61 577.34 684.97 575.43C695.86 573.09 705.65 569.54 714.07 564.85C722.38 560.22 729.13 554.49 734.13 547.82C739.13 541.15 742.67 532.27 744.66 521.43L746.36 504.67C746.18 497.27 742.85 493.96 735.6 493.96H735.53C721.31 495.13 706.88 496.47 692.64 497.93C684.59 499.37 679.91 504.26 678.33 512.86C678.08 519.55 677.08 523.44 675.1 525.46L674.91 525.63C669.17 530.55 664.8 528.48 662.7 526.81L662.26 526.46L661.98 525.98C659.72 522.11 658.34 516.78 657.75 509.69C657.2 503.04 656.93 496.23 656.95 489.44V489.27L658.92 455.85C659.71 448.93 660.81 441.98 662.18 435.2C663.61 428.09 665.75 422.36 668.52 418.17L668.75 417.82L669.06 417.55C672.98 414.17 677.41 413.94 681.53 416.89L681.8 417.11C683.9 419.02 684.51 422.85 683.84 429.9C684.32 437.92 688.03 441.55 695.85 441.63C710.45 440.68 725.22 439.87 739.74 439.22C747.84 438.24 752.49 434.05 754.35 426.02L756.05 409.27C756.21 398.64 754.27 390.26 750.31 384.35C746.28 378.36 740.1 373.61 731.95 370.24C723.43 366.72 713.16 364.72 701.44 364.29C689.09 364.37 676.49 364.57 663.99 364.86C647.04 366.14 632.77 371.82 621.57 381.74C610.26 391.75 602.05 404.25 597.18 418.89C592.31 433.49 589.47 448.18 588.73 462.54H588.71Z" fill="#231F20"/>
<path d="M799.96 542.35C805.56 499.84 811.17 457.32 816.77 414.81C805.82 414.67 794.84 414.62 783.85 414.65C779.07 414.34 775.36 412.6 772.72 409.4C770.07 406.2 768.97 402.52 769.42 398.38C770.14 391.76 770.85 385.14 771.57 378.52C772.02 374.38 773.93 370.72 777.34 367.59C780.74 364.46 784.93 362.82 789.88 362.67C838.66 364.46 887.01 367.91 934.86 373.03C939.63 373.84 943.23 375.82 945.67 378.94C948.11 382.06 948.97 385.39 948.27 388.95C947.15 394.65 946.03 400.36 944.91 406.06C944.21 409.63 942.11 412.67 938.63 415.24C935.14 417.81 931.01 419.09 926.21 419.07C915.39 418.36 904.56 417.74 893.7 417.2C886.91 457.02 880.11 496.83 873.32 536.64C872.56 541.11 869.7 545.42 864.79 549.64C859.88 553.86 853.91 556.3 846.85 556.94C838.16 557.72 829.47 558.55 820.77 559.43C813.7 560.15 808.32 558.73 804.61 555.06C800.89 551.39 799.34 547.14 799.96 542.36V542.35Z" fill="#12B5E5"/>
<path d="M817.39 562.6C811.14 562.6 806.14 560.78 802.5 557.18C798.09 552.83 796.23 547.7 796.99 541.96L813.36 417.77C803.52 417.66 793.62 417.62 783.87 417.65H783.67C778.04 417.28 773.58 415.15 770.42 411.31C767.25 407.47 765.91 403.01 766.45 398.06L768.6 378.2C769.13 373.31 771.39 369 775.32 365.39C779.24 361.77 784.12 359.85 789.81 359.68H790.01C838.69 361.46 887.54 364.96 935.2 370.06L935.38 370.09C940.87 371.02 945.14 373.38 948.05 377.11C951.03 380.92 952.1 385.11 951.23 389.55L947.87 406.66C947.03 410.95 944.52 414.65 940.42 417.67C936.45 420.6 931.71 422.08 926.35 422.08H926.03C916.15 421.42 906.13 420.84 896.22 420.34L876.28 537.15C875.4 542.34 872.28 547.17 866.75 551.92C861.36 556.55 854.76 559.25 847.12 559.93C838.53 560.7 829.77 561.54 821.08 562.42C819.81 562.55 818.58 562.62 817.4 562.62L817.39 562.6ZM790.3 411.64C799.1 411.64 807.99 411.7 816.81 411.81L820.19 411.85L802.94 542.74C802.43 546.57 803.67 549.9 806.72 552.91C809.76 555.92 814.25 557.07 820.46 556.43C829.18 555.54 837.97 554.7 846.58 553.93C853.03 553.35 858.35 551.2 862.83 547.35C867.19 543.6 869.72 539.82 870.36 536.12L891.19 414.06L893.85 414.19C904.62 414.72 915.55 415.35 926.32 416.06H926.34C930.45 416.06 933.89 415 936.85 412.82C939.74 410.69 941.42 408.28 941.97 405.48L945.33 388.37C945.86 385.68 945.2 383.2 943.31 380.79C941.33 378.27 938.43 376.7 934.45 376.01C886.99 370.93 838.35 367.45 789.88 365.68C785.66 365.82 782.22 367.17 779.38 369.8C776.51 372.44 774.93 375.4 774.56 378.85L772.41 398.71C772.05 402.04 772.91 404.92 775.04 407.5C777.12 410.03 780.04 411.39 783.96 411.66C786.07 411.66 788.19 411.66 790.31 411.66L790.3 411.64Z" fill="#231F20"/>
</g>
<defs>
<clipPath id="clip0_1_857">
<rect width="952" height="944" fill="white"/>
</clipPath>
</defs>
</svg>
