<svg width="741" height="306" viewBox="0 0 741 306" fill="none" xmlns="http://www.w3.org/2000/svg">
<path d="M526.491 142.132L555.93 116.934C556.374 116.555 556.945 116.358 557.528 116.383C558.111 116.408 558.664 116.653 559.074 117.068L586.257 144.622C586.404 144.773 586.532 144.943 586.636 145.126C586.712 145.264 586.817 145.384 586.943 145.478C587.069 145.572 587.214 145.638 587.368 145.672C587.522 145.705 587.681 145.705 587.834 145.672C587.988 145.638 588.133 145.572 588.259 145.478L623.857 94.6976C622.522 93.4389 621.135 92.2279 619.696 91.0648C607.381 84.2609 593.542 80.6989 579.475 80.7126C532.681 80.7126 494.744 119.41 494.744 167.14C494.747 170.367 494.923 173.591 495.271 176.798C500.487 192.516 510.506 206.195 523.911 215.903C537.316 225.61 553.43 230.855 569.975 230.896H570.035C613.418 230.859 648.701 195.513 648.701 152.095C648.702 146.517 648.112 140.954 646.939 135.5L585.203 194.161L534.082 156.02L537.031 153.498L526.643 145.746C526.365 145.539 526.137 145.271 525.976 144.963C525.815 144.655 525.726 144.315 525.714 143.968C525.703 143.621 525.769 143.275 525.909 142.958C526.049 142.64 526.259 142.358 526.523 142.132H526.491Z" fill="#11B5E5"/>
<path d="M312.494 142.132L341.934 116.934C342.378 116.555 342.949 116.358 343.532 116.383C344.115 116.408 344.667 116.653 345.078 117.068L372.261 144.622C372.408 144.772 372.534 144.942 372.636 145.126C372.718 145.277 372.834 145.406 372.976 145.503C373.117 145.6 373.279 145.663 373.449 145.686C373.592 145.707 373.737 145.699 373.877 145.664C374.017 145.628 374.148 145.565 374.263 145.478L410.119 94.3043C408.061 92.3856 405.9 90.5797 403.647 88.8944C392.409 83.4977 380.102 80.7014 367.638 80.7126C320.839 80.7126 282.907 119.41 282.907 167.14C282.905 172.476 283.386 177.801 284.345 183.05C290.428 197.214 300.515 209.289 313.365 217.79C326.214 226.291 341.266 230.846 356.668 230.896H356.728C400.11 230.859 435.398 195.513 435.398 152.095C435.398 146.327 434.766 140.575 433.512 134.945L371.156 194.161L320.058 156.02L323.003 153.498L312.615 145.746C312.336 145.539 312.108 145.271 311.948 144.963C311.787 144.655 311.697 144.315 311.686 143.968C311.674 143.621 311.741 143.275 311.881 142.958C312.021 142.64 312.23 142.358 312.494 142.132Z" fill="#11B5E5"/>
<path d="M98.4795 142.132L127.919 116.934C128.363 116.555 128.934 116.358 129.517 116.383C130.1 116.408 130.653 116.653 131.063 117.068L158.246 144.622C158.393 144.772 158.519 144.942 158.621 145.126C158.704 145.276 158.82 145.405 158.962 145.502C159.103 145.599 159.265 145.662 159.434 145.686C159.577 145.707 159.722 145.699 159.862 145.664C160.002 145.628 160.133 145.565 160.248 145.478L196.474 93.7813C193.999 91.5115 191.381 89.4016 188.638 87.4645C178.25 82.9988 167.06 80.7013 155.754 80.7126C108.96 80.7126 71.0279 119.41 71.0279 167.14C71.0229 174.247 71.8767 181.328 73.5705 188.229C80.2377 201.001 90.2645 211.706 102.568 219.188C114.871 226.671 128.983 230.646 143.379 230.684H143.443C186.821 230.651 222.109 195.3 222.109 151.887C222.111 145.988 221.45 140.108 220.14 134.357L157.16 194.161L106.043 156.02L108.988 153.498L98.5997 145.746C98.3215 145.539 98.0936 145.271 97.9328 144.963C97.772 144.655 97.6825 144.315 97.671 143.968C97.6594 143.621 97.7261 143.275 97.8661 142.958C98.0061 142.64 98.2157 142.358 98.4795 142.132Z" fill="#11B5E5"/>
<path d="M17.5531 99.2328C8.84633 119.837 5.37235 142.279 7.44138 164.554C9.51041 186.83 17.058 208.246 29.4103 226.89C41.7626 245.534 58.535 260.826 78.23 271.4C97.9249 281.974 119.929 287.502 142.278 287.489H571.126C593.465 287.473 615.453 281.927 635.132 271.345C654.811 260.763 671.57 245.474 683.916 226.838C696.263 208.203 703.813 186.8 705.896 164.536C707.978 142.272 704.528 119.839 695.851 99.2328C694.839 96.8264 693.748 94.4616 692.615 92.1292L650.851 131.807C652.512 138.442 653.35 145.256 653.347 152.095C653.347 198.058 615.988 235.487 570.072 235.524H570.007C548.662 235.485 528.144 227.26 512.671 212.541C497.199 197.822 487.949 177.727 486.825 156.39C486.751 154.974 486.714 153.535 486.714 152.109C486.714 150.684 486.751 149.245 486.825 147.824C487.949 126.489 497.197 106.397 512.666 91.6778C528.136 76.9588 548.651 68.7323 569.993 68.6898H570.058C591.015 68.693 611.195 76.6279 626.552 90.9029L657.096 47.305C632.889 27.3554 602.5 16.4632 571.145 16.4982H500.796L522.33 32.1353C522.604 32.335 522.831 32.5927 522.995 32.89C523.158 33.1874 523.255 33.5171 523.277 33.8558C523.299 34.1945 523.246 34.534 523.122 34.8501C522.999 35.1661 522.807 35.4511 522.561 35.6848L518.271 39.7572L527.027 46.1342L437.409 131.284C439.163 138.087 440.049 145.084 440.044 152.109C440.044 198.072 402.685 235.501 356.765 235.538H356.7C334.716 235.497 313.636 226.774 298.042 211.263C282.447 195.752 273.597 174.707 273.416 152.702V152.47C273.416 152.341 273.416 152.216 273.416 152.086C273.416 151.957 273.416 151.832 273.416 151.702V151.471C273.595 129.467 282.442 108.423 298.034 92.9117C313.626 77.4006 334.704 68.6762 356.686 68.6342H356.751C377.507 68.6359 397.51 76.4187 412.819 90.4494L464.671 16.4427H286.781L308.283 32.1353C308.557 32.335 308.784 32.5927 308.947 32.89C309.111 33.1874 309.207 33.5171 309.229 33.8558C309.251 34.1945 309.199 34.534 309.075 34.8501C308.951 35.1661 308.76 35.4511 308.514 35.6848L304.224 39.7572L312.98 46.1342L223.977 130.692C225.794 137.61 226.712 144.734 226.709 151.887C226.709 197.85 189.35 235.279 143.429 235.311H143.365C122.02 235.272 101.501 227.047 86.0286 212.328C70.5563 197.609 61.3067 177.514 60.1822 156.177C60.1129 154.761 60.0759 153.322 60.0759 151.896C60.0759 150.471 60.1129 149.027 60.1822 147.611C61.3066 126.276 70.5542 106.184 86.0236 91.4649C101.493 76.7459 122.008 68.5194 143.351 68.4769H143.42C164.017 68.4804 183.877 76.1447 199.146 89.9819L250.633 16.4751H142.278C124.174 16.4371 106.249 20.0573 89.5756 27.1188C57.1267 40.8868 31.2988 66.7475 17.5531 99.2328Z" fill="#ED203D"/>
<path d="M705.093 80.2637L741 46.1342L732.244 39.7572L736.534 35.6848C736.78 35.4511 736.972 35.1662 737.095 34.8501C737.219 34.534 737.272 34.1945 737.25 33.8558C737.228 33.5171 737.131 33.1874 736.968 32.89C736.804 32.5927 736.577 32.335 736.303 32.1353L692.754 0.43535C692.506 0.257099 692.226 0.129654 691.929 0.0603704C691.632 -0.00891295 691.324 -0.0186712 691.023 0.031659C690.722 0.0819891 690.434 0.191418 690.176 0.353629C689.918 0.515839 689.694 0.727628 689.518 0.976793L661.063 41.5944C635.686 20.8251 603.905 9.49588 571.126 9.53346H491.258L478.776 0.43535C478.529 0.257099 478.248 0.129654 477.951 0.0603704C477.654 -0.00891295 477.346 -0.0186712 477.045 0.031659C476.745 0.0819891 476.457 0.191418 476.198 0.353629C475.94 0.515839 475.716 0.727628 475.54 0.976793L469.53 9.53346H277.244L264.761 0.43535C264.514 0.257099 264.233 0.129654 263.936 0.0603704C263.639 -0.00891295 263.331 -0.0186712 263.031 0.031659C262.73 0.0819891 262.442 0.191418 262.184 0.353629C261.925 0.515839 261.701 0.727628 261.525 0.976793L255.515 9.53346H142.278C109.445 9.54753 77.627 20.9232 52.2141 41.7332C26.8011 62.5431 9.35639 91.5075 2.83564 123.719C-3.6851 155.93 1.1191 189.408 16.4343 218.479C31.7495 247.551 56.6338 270.428 86.8711 283.236C88.6325 283.981 90.4031 284.68 92.183 285.346C114.203 298.89 139.549 306.04 165.394 306H594.241C620.409 306.014 646.057 298.685 668.274 284.844C690.491 271.003 708.386 251.204 719.93 227.696C731.473 204.188 736.202 177.911 733.579 151.849C730.957 125.786 721.088 100.981 705.093 80.2498V80.2637ZM731.356 34.2409L578.953 179.015L531.715 143.765L557.317 121.849L582.79 147.676C583.25 148.397 583.864 149.005 584.589 149.457C585.314 149.91 586.131 150.194 586.979 150.289C587.828 150.384 588.687 150.289 589.494 150.009C590.301 149.729 591.036 149.272 591.643 148.671C591.741 148.574 591.831 148.468 591.911 148.356L691.954 5.56287L731.356 34.2409ZM89.5756 27.1374C106.249 20.0758 124.174 16.4556 142.278 16.4936H250.633L199.146 89.9634C183.877 76.1262 164.017 68.4619 143.42 68.4584H143.351C122.008 68.5009 101.493 76.7274 86.0236 91.4464C70.5542 106.165 61.3066 126.258 60.1822 147.593C60.1129 149.009 60.0759 150.453 60.0759 151.878C60.0759 153.303 60.1129 154.742 60.1822 156.159C61.3067 177.496 70.5563 197.59 86.0286 212.309C101.501 227.029 122.02 235.254 143.365 235.293H143.429C189.35 235.26 226.709 197.808 226.709 151.869C226.712 144.715 225.794 137.592 223.977 130.674L312.989 46.1342L304.233 39.7572L308.523 35.6848C308.769 35.4511 308.961 35.1662 309.084 34.8501C309.208 34.534 309.261 34.1945 309.239 33.8558C309.217 33.5171 309.12 33.1874 308.957 32.89C308.793 32.5927 308.566 32.335 308.292 32.1353L286.781 16.4751H464.648L412.796 90.4818C397.487 76.4511 377.484 68.6683 356.728 68.6666H356.663C334.681 68.7086 313.603 77.433 298.011 92.944C282.419 108.455 273.572 129.499 273.393 151.503V151.734C273.393 151.864 273.393 151.989 273.393 152.118C273.393 152.248 273.393 152.373 273.393 152.503V152.734C273.574 174.74 282.424 195.784 298.018 211.295C313.613 226.806 334.693 235.53 356.677 235.57H356.741C402.662 235.533 440.021 198.086 440.021 152.142C440.025 145.116 439.14 138.119 437.386 131.317L527.004 46.1666L518.248 39.7896L522.538 35.7172C522.784 35.4835 522.975 35.1985 523.099 34.8825C523.223 34.5664 523.275 34.2269 523.253 33.8882C523.231 33.5495 523.135 33.2197 522.971 32.9224C522.808 32.6251 522.581 32.3674 522.307 32.1677L500.796 16.5075H571.126C602.481 16.4725 632.871 27.3647 657.078 47.3143L626.533 90.9121C611.177 76.6371 590.996 68.7022 570.04 68.699H569.975C548.632 68.7415 528.117 76.9681 512.648 91.687C497.178 106.406 487.931 126.499 486.806 147.833C486.732 149.254 486.695 150.693 486.695 152.118C486.695 153.544 486.732 154.983 486.806 156.399C487.931 177.736 497.18 197.831 512.653 212.55C528.125 227.269 548.644 235.494 569.989 235.533H570.054C615.97 235.496 653.328 198.049 653.328 152.105C653.332 145.265 652.493 138.451 650.832 131.817L692.601 92.1385C693.748 94.4523 694.839 96.8356 695.837 99.242C704.541 119.845 708.012 142.284 705.942 164.557C703.872 186.829 696.326 208.243 683.975 226.885C671.625 245.527 654.856 260.818 635.164 271.393C615.473 281.968 593.472 287.498 571.126 287.489H142.278C111.047 287.473 80.7807 276.65 56.608 256.854C32.4353 237.057 15.8423 209.505 9.6401 178.864C3.43787 148.224 8.00778 116.379 22.5756 88.7247C37.1435 61.0707 60.8135 39.308 89.5756 27.1235V27.1374ZM98.5997 145.746L108.988 153.498L106.043 156.02L157.16 194.161L220.117 134.357C221.428 140.111 222.088 145.995 222.086 151.896C222.086 195.309 186.798 230.66 143.42 230.693H143.355C128.963 230.65 114.855 226.672 102.556 219.188C90.2573 211.704 80.2346 200.999 73.5705 188.229C71.8767 181.328 71.0229 174.247 71.0279 167.14C71.0279 119.41 108.96 80.7126 155.754 80.7126C167.06 80.7013 178.25 82.9988 188.638 87.4645C191.381 89.4016 193.999 91.5115 196.474 93.7813L160.248 145.478C160.133 145.565 160.002 145.628 159.862 145.664C159.722 145.699 159.577 145.707 159.434 145.686C159.265 145.662 159.103 145.599 158.962 145.502C158.82 145.405 158.704 145.276 158.621 145.126C158.519 144.942 158.393 144.772 158.246 144.622L131.063 117.068C130.653 116.653 130.1 116.408 129.517 116.383C128.934 116.358 128.363 116.555 127.919 116.934L98.4795 142.132C98.2157 142.358 98.0061 142.64 97.8661 142.958C97.7261 143.275 97.6594 143.621 97.671 143.968C97.6825 144.315 97.772 144.655 97.9328 144.963C98.0936 145.271 98.3215 145.539 98.5997 145.746ZM312.624 145.746L323.012 153.498L320.067 156.02L371.156 194.161L433.493 134.926C434.747 140.557 435.38 146.308 435.38 152.077C435.38 195.494 400.092 230.841 356.709 230.878H356.649C341.249 230.829 326.199 226.277 313.35 217.779C300.501 209.282 290.412 197.211 284.326 183.05C283.367 177.801 282.886 172.476 282.888 167.14C282.888 119.41 320.797 80.7126 367.62 80.7126C380.084 80.7013 392.391 83.4977 403.628 88.8944C405.882 90.5797 408.042 92.3856 410.101 94.3042L374.263 145.478C374.148 145.565 374.017 145.628 373.877 145.664C373.737 145.699 373.592 145.707 373.449 145.686C373.279 145.663 373.117 145.6 372.976 145.503C372.834 145.406 372.718 145.277 372.636 145.126C372.534 144.942 372.408 144.772 372.261 144.622L345.078 117.068C344.667 116.653 344.115 116.408 343.532 116.383C342.949 116.358 342.378 116.555 341.934 116.934L312.494 142.132C312.23 142.358 312.021 142.64 311.881 142.958C311.741 143.275 311.674 143.621 311.686 143.968C311.697 144.315 311.787 144.655 311.948 144.963C312.108 145.271 312.336 145.539 312.615 145.746H312.624ZM526.638 145.746L537.026 153.498L534.077 156.02L585.203 194.161L646.958 135.5C648.13 140.954 648.721 146.517 648.719 152.095C648.719 195.513 613.436 230.859 570.054 230.896H569.993C553.448 230.855 537.334 225.61 523.929 215.903C510.524 206.195 500.506 192.516 495.29 176.798C494.941 173.591 494.765 170.367 494.763 167.14C494.763 119.41 532.699 80.7126 579.494 80.7126C593.56 80.6989 607.399 84.2609 619.714 91.0648C621.138 92.2249 622.525 93.4358 623.875 94.6976L588.278 145.478C588.152 145.572 588.007 145.638 587.853 145.672C587.699 145.705 587.54 145.705 587.386 145.672C587.232 145.638 587.088 145.572 586.961 145.478C586.835 145.384 586.731 145.264 586.655 145.126C586.55 144.943 586.423 144.773 586.276 144.622L559.092 117.068C558.682 116.653 558.13 116.408 557.547 116.383C556.964 116.358 556.393 116.555 555.949 116.934L526.491 142.132C526.227 142.358 526.017 142.64 525.877 142.958C525.737 143.275 525.67 143.621 525.682 143.968C525.694 144.315 525.783 144.655 525.944 144.963C526.105 145.271 526.333 145.539 526.611 145.746H526.638ZM517.351 34.2178L364.938 179.015L317.7 143.765L343.302 121.849L368.775 147.676C369.236 148.396 369.851 149.003 370.577 149.454C371.302 149.905 372.119 150.188 372.968 150.282C373.817 150.376 374.676 150.279 375.482 149.997C376.288 149.716 377.022 149.258 377.628 148.657C377.726 148.56 377.816 148.454 377.897 148.342L477.949 5.56287L517.351 34.2178ZM303.336 34.2178L150.923 179.015L103.685 143.765L129.288 121.849L154.761 147.676C155.221 148.396 155.837 149.003 156.562 149.454C157.288 149.905 158.105 150.188 158.953 150.282C159.802 150.376 160.661 150.279 161.467 149.997C162.274 149.716 163.007 149.258 163.614 148.657C163.712 148.56 163.801 148.454 163.882 148.342L263.925 5.54899L303.336 34.2178Z" fill="#231F20"/>
<path d="M263.925 5.56287L163.882 148.356C163.801 148.468 163.712 148.574 163.614 148.671C163.006 149.272 162.272 149.729 161.465 150.009C160.658 150.289 159.799 150.384 158.95 150.289C158.101 150.194 157.284 149.91 156.56 149.457C155.835 149.005 155.22 148.397 154.761 147.676L129.288 121.849L103.685 143.765L150.923 179.015L303.327 34.2409L263.925 5.56287Z" fill="#FCBA28"/>
<path d="M477.949 5.56287L377.897 148.356C377.816 148.468 377.726 148.574 377.628 148.671C377.021 149.272 376.287 149.729 375.48 150.009C374.673 150.289 373.813 150.384 372.965 150.289C372.116 150.194 371.299 149.91 370.574 149.457C369.849 149.005 369.235 148.397 368.775 147.676L343.302 121.849L317.7 143.765L364.938 179.015L517.342 34.2409L477.949 5.56287Z" fill="#FCBA28"/>
<path d="M591.911 148.356C591.831 148.468 591.741 148.574 591.643 148.671C591.036 149.272 590.301 149.729 589.494 150.009C588.687 150.289 587.828 150.384 586.979 150.289C586.131 150.194 585.314 149.91 584.589 149.457C583.864 149.005 583.25 148.397 582.79 147.676L557.317 121.849L531.715 143.765L578.953 179.015L731.356 34.2409L691.954 5.54899L591.911 148.356Z" fill="#FCBA28"/>
</svg>
