<svg width="145" height="100" viewBox="0 0 145 100" fill="none" xmlns="http://www.w3.org/2000/svg">
<path d="M142.052 58.5807C142.035 58.4754 141.993 58.3757 141.93 58.2896L98.9003 0.415222C98.8825 0.391 98.8628 0.368228 98.8414 0.347129L98.824 0.331107C98.8069 0.313693 98.7885 0.297628 98.769 0.283047L98.7516 0.267025C98.7274 0.249765 98.7023 0.233721 98.6765 0.218957H98.6631C98.6408 0.206818 98.6175 0.196547 98.5935 0.18825L98.5734 0.180242C98.5461 0.171552 98.5184 0.164418 98.4903 0.158879C98.4651 0.153359 98.4396 0.149787 98.4139 0.148198C97.1475 0.0493994 95.8596 2.1823e-09 94.5852 2.1823e-09H48.5807C38.9723 -9.08807e-05 29.5796 2.83847 21.5905 8.15671C13.6014 13.4749 7.37471 21.034 3.69781 29.878C0.0209065 38.7219 -0.941027 48.4535 0.933642 57.8421C2.80831 67.2308 7.43539 75.8547 14.2297 82.6233C15.9185 84.307 17.728 85.8661 19.6438 87.2882C28.4824 95.4889 40.121 100.033 52.199 99.9998H98.2035C109.116 99.9949 119.7 96.2822 128.208 89.4747C136.717 82.6673 142.64 73.1723 145 62.558L142.052 58.5807ZM123.546 64.9492C123.459 64.9089 123.365 64.888 123.269 64.8877H101.983C104.633 60.026 106.065 54.5984 106.158 49.0667H113.347C117.272 52.6675 121.746 55.625 126.602 57.829C125.868 60.3145 124.841 62.7046 123.542 64.9492H123.546ZM20.3982 66.2215H41.9525C43.4165 68.6344 45.1693 70.8612 47.1722 72.853C51.3193 77.0036 56.4616 80.0302 62.1117 81.6461H48.5807C44.1966 81.6579 39.8536 80.8033 35.8033 79.1317C31.7529 77.4602 28.0755 75.0048 24.9841 71.9077C23.2525 70.1841 21.7148 68.2774 20.3982 66.2215ZM15.2187 49.0653H37.0102C37.1031 54.5971 38.5356 60.0246 41.186 64.8864H19.9011C19.8053 64.8869 19.7107 64.9078 19.6237 64.9478C16.832 60.11 15.3165 54.6462 15.2187 49.0667V49.0653ZM19.5915 31.9092C19.6049 31.9092 19.6183 31.9092 19.633 31.9092H41.186C38.5358 36.7705 37.1033 42.1976 37.0102 47.7289H15.2187C15.3169 42.1731 16.821 36.7318 19.5915 31.9092ZM48.117 71.9091C46.3845 70.1854 44.8463 68.2782 43.5298 66.2215H62.0809C62.4769 68.3655 62.991 70.4862 63.6207 72.574C64.9126 76.7836 66.514 79.8049 68.2923 81.4725C60.6579 80.7096 53.5265 77.3287 48.117 71.9077V71.9091ZM98.8132 2.55006L139.712 57.7342C132.744 56.6124 126.1 54.0094 120.232 50.1023C114.363 46.1952 109.407 41.0754 105.701 35.0907C99.7748 25.5125 97.3214 14.2002 98.7502 3.03872L98.8132 2.55006ZM106.156 47.7329C106.101 44.7519 105.662 41.7903 104.848 38.9212C106.876 42.1146 109.258 45.0704 111.95 47.7329H106.156ZM79.7221 66.2215C79.3429 68.234 78.8557 70.2249 78.2627 72.1855C76.4268 78.1654 73.9945 81.6087 71.5823 81.6461C69.1701 81.6087 66.7364 78.1654 64.9005 72.1855C64.309 70.2246 63.8228 68.2338 63.4438 66.2215H79.7221ZM63.1999 64.8864C62.3731 60.1014 61.9188 54.6995 61.8853 49.0653H81.2806C81.2471 54.6995 80.7928 60.1014 79.966 64.8864H63.1999ZM63.4438 30.574C63.8232 28.5621 64.31 26.5718 64.9018 24.6114C66.7378 18.6315 69.1714 15.1882 71.5836 15.1508C73.9958 15.1882 76.4281 18.6315 78.264 24.6114C78.8566 26.5716 79.3433 28.562 79.7221 30.574H63.4438ZM79.966 31.9092C80.7928 36.6942 81.2471 42.0961 81.2806 47.7289H61.8853C61.9188 42.0961 62.3731 36.6942 63.1999 31.9092H79.966ZM82.6207 47.7289C82.5886 42.1121 82.1396 36.7142 81.3248 31.9092H100.445C103.215 36.732 104.718 42.1733 104.816 47.7289H82.6207ZM95.0502 24.8878C96.7815 26.6118 98.3191 28.5184 99.6361 30.574H81.085C80.6904 28.4297 80.1763 26.309 79.5452 24.2216C78.2533 20.012 76.6532 16.9906 74.8749 15.3217C82.5094 16.0872 89.6404 19.4692 95.0502 24.8905V24.8878ZM63.6207 24.2203C62.9908 26.3084 62.4768 28.4296 62.0809 30.574H43.5298C44.8468 28.5181 46.3849 26.6114 48.117 24.8878C53.5274 19.4683 60.6585 16.0881 68.2923 15.3244C66.514 16.9933 64.9126 20.0146 63.6207 24.2242V24.2203ZM61.8424 31.9092C61.0262 36.7156 60.5787 42.1121 60.5452 47.7289H38.3503C38.4482 42.1734 39.9513 36.7323 42.7204 31.9092H61.8424ZM60.5452 49.064C60.5787 54.6821 61.0262 60.08 61.8424 64.8851H42.7204C39.9511 60.0616 38.448 54.62 38.3503 49.064H60.5452ZM79.5452 72.5753C80.1762 70.4874 80.6903 68.3662 81.085 66.2215H99.6361C98.3195 68.277 96.7818 70.1832 95.0502 71.9064C89.6407 77.3276 82.5094 80.7089 74.8749 81.4725C76.6546 79.8063 78.2533 76.7849 79.5452 72.5753ZM81.3248 64.8864C82.1396 60.08 82.5886 54.6835 82.6207 49.0653H104.816C104.719 54.6214 103.215 60.0632 100.445 64.8864H81.3248ZM97.9073 20.4886C98.4807 23.3725 99.2454 26.2155 100.196 28.9986C98.9584 27.1875 97.5527 25.4961 95.9977 23.9466C91.8504 19.7963 86.7081 16.7697 81.0582 15.1535H94.5852C95.4161 15.1535 96.2416 15.1833 97.0617 15.243C97.2761 16.9813 97.5602 18.7369 97.9073 20.4886ZM47.1722 23.9466C45.1695 25.9371 43.4168 28.1625 41.9525 30.574H20.3982C21.7152 28.5184 23.2528 26.6118 24.9841 24.8878C28.076 21.7917 31.7535 19.3372 35.8039 17.6663C39.8542 15.9954 44.1969 15.1413 48.5807 15.1535H62.1091C56.4599 16.7698 51.3185 19.7964 47.1722 23.9466ZM95.9977 72.853C97.9989 70.8607 99.7502 68.6339 101.213 66.2215H122.768C121.451 68.2773 119.914 70.1836 118.182 71.9064C115.091 75.0038 111.413 77.4595 107.363 79.1313C103.312 80.8032 98.9694 81.6579 94.5852 81.6461H81.0568C86.7074 80.0303 91.8501 77.0036 95.9977 72.853ZM96.9358 1.39386C96.4573 5.1602 96.4573 9.45258 96.9143 13.8958C96.1437 13.8464 95.3692 13.8184 94.5892 13.8184H48.5807C39.3754 13.8184 30.547 17.4616 24.0379 23.9465C17.5287 30.4314 13.8719 39.2268 13.8719 48.3978C13.8719 52.9388 14.7697 57.4354 16.514 61.6307C18.2582 65.8261 20.8149 69.6381 24.0379 72.8491C30.547 79.334 39.3754 82.9772 48.5807 82.9772H94.5852C102.044 82.9734 109.304 80.5791 115.292 76.148C121.28 71.717 125.679 65.4843 127.837 58.3711C131.7 60.0016 135.752 61.1479 139.898 61.7836C136.991 71.5089 131.011 80.0397 122.846 86.1072C114.682 92.1748 104.771 95.4552 94.5852 95.4604H48.5807C39.2381 95.4598 30.1055 92.6993 22.3376 87.528C14.5697 82.3566 8.51532 75.0067 4.93998 66.4075C1.36465 57.8083 0.42892 48.346 2.25111 39.217C4.0733 30.088 8.57157 21.7023 15.1772 15.1201C19.5535 10.7361 24.7593 7.26039 30.493 4.89418C36.2267 2.52798 42.3746 1.31828 48.5807 1.33511H94.5852C95.3651 1.33511 96.1505 1.35514 96.9317 1.39386H96.9358Z" fill="#231F20"/>
<path d="M15.1772 15.1201C8.57223 21.7025 4.07452 30.0882 2.2527 39.217C0.430879 48.3457 1.36674 57.8077 4.94197 66.4067C8.51719 75.0056 14.5712 82.3554 22.3387 87.5268C30.1062 92.6983 39.2384 95.4592 48.5807 95.4604H94.5852C104.771 95.4546 114.683 92.1736 122.847 86.1052C131.01 80.0369 136.99 71.5054 139.897 61.7796C135.75 61.1439 131.699 59.9976 127.836 58.3671C125.679 65.4816 121.281 71.7159 115.293 76.1484C109.305 80.581 102.045 82.9766 94.5852 82.9812H48.5807C39.3754 82.9812 30.547 79.338 24.0379 72.8531C17.5287 66.3682 13.8719 57.5728 13.8719 48.4018C13.8719 39.2308 17.5287 30.4354 24.0379 23.9505C30.547 17.4656 39.3754 13.8224 48.5807 13.8224H94.5852C95.3652 13.8224 96.1397 13.8504 96.9103 13.8998C96.4533 9.45659 96.4533 5.16421 96.9317 1.39786C96.1505 1.35914 95.3652 1.33912 94.5852 1.33912H48.5807C42.3748 1.32177 36.2271 2.53084 30.4934 4.89635C24.7597 7.26186 19.5539 10.7368 15.1772 15.1201Z" fill="#F9F4DA"/>
<path d="M37.0102 47.7316C37.1028 42.1994 38.5354 36.7713 41.186 31.9092H19.633C19.6183 31.9092 19.6049 31.9092 19.5915 31.9092C16.8203 36.733 15.3162 42.1757 15.2187 47.7329L37.0102 47.7316Z" fill="#ED203D"/>
<path d="M41.186 64.8864C38.5356 60.0246 37.1031 54.5971 37.0102 49.0653H15.2187C15.3154 54.6471 16.8309 60.1133 19.6237 64.9532C19.7106 64.9132 19.8052 64.8922 19.901 64.8917L41.186 64.8864Z" fill="#ED203D"/>
<path d="M74.8749 15.3244C76.6532 16.9933 78.2533 20.0146 79.5452 24.2242C80.1762 26.3108 80.6903 28.4306 81.085 30.574H99.6361C98.3191 28.5184 96.7815 26.6118 95.0502 24.8878C89.6396 19.4685 82.5087 16.0884 74.8749 15.3244Z" fill="#ED203D"/>
<path d="M81.0582 15.1535C86.7081 16.7697 91.8504 19.7963 95.9977 23.9466C97.5527 25.4961 98.9584 27.1875 100.196 28.9986C99.2454 26.2155 98.4807 23.3725 97.9073 20.4886C97.5562 18.7369 97.2761 16.9813 97.0617 15.243C96.2416 15.1842 95.4161 15.1544 94.5852 15.1535H81.0582Z" fill="#ED203D"/>
<path d="M24.9841 24.8905C23.253 26.6136 21.7153 28.5194 20.3982 30.574H41.9525C43.4168 28.1625 45.1695 25.9371 47.1722 23.9466C51.3185 19.7964 56.4599 16.7698 62.1091 15.1535H48.5807C44.1967 15.1417 39.8539 15.9962 35.8035 17.6675C31.7532 19.3389 28.0758 21.7939 24.9841 24.8905Z" fill="#ED203D"/>
<path d="M62.1091 81.6461C56.4599 80.0298 51.3185 77.0032 47.1722 72.853C45.1693 70.8612 43.4165 68.6344 41.9525 66.2215H20.3982C21.7148 68.277 23.2525 70.1832 24.9841 71.9064C28.0755 75.0035 31.7529 77.4588 35.8033 79.1304C39.8536 80.802 44.1966 81.6566 48.5807 81.6447L62.1091 81.6461Z" fill="#ED203D"/>
<path d="M48.117 24.8905C46.3851 26.6132 44.847 28.519 43.5298 30.574H62.0809C62.4768 28.43 62.9908 26.3093 63.6207 24.2216C64.9126 20.012 66.514 16.9906 68.2923 15.3217C60.6577 16.0869 53.5266 19.4691 48.117 24.8905Z" fill="#ED203D"/>
<path d="M38.3503 47.7316H60.5451C60.5786 42.1147 61.0262 36.7169 61.8424 31.9118H42.7204C39.9513 36.7349 38.4482 42.1761 38.3503 47.7316Z" fill="#ED203D"/>
<path d="M94.5852 81.6461C98.9693 81.6581 103.312 80.8036 107.363 79.132C111.413 77.4604 115.09 75.0049 118.182 71.9078C119.914 70.1845 121.452 68.2777 122.768 66.2215H101.213C99.7502 68.6335 97.9988 70.8598 95.9977 72.8517C91.8501 77.0023 86.7074 80.0289 81.0568 81.6447L94.5852 81.6461Z" fill="#ED203D"/>
<path d="M42.7204 64.8864H61.8424C61.0262 60.08 60.5786 54.6835 60.5451 49.0653H38.3503C38.448 54.6213 39.951 60.0629 42.7204 64.8864Z" fill="#ED203D"/>
<path d="M111.945 47.7316C109.253 45.0691 106.871 42.1132 104.842 38.9198C105.656 41.789 106.096 44.7506 106.15 47.7316H111.945Z" fill="#ED203D"/>
<path d="M63.6207 72.5753C62.9909 70.4871 62.4769 68.366 62.0809 66.2215H43.5298C44.8465 68.2773 46.3847 70.1836 48.117 71.9064C53.5261 77.3284 60.6576 80.7102 68.2923 81.4738C66.514 79.8063 64.9126 76.7849 63.6207 72.5753Z" fill="#ED203D"/>
<path d="M104.816 49.0667H82.6207C82.5886 54.6848 82.1396 60.0827 81.3248 64.8877H100.445C103.215 60.0645 104.719 54.6227 104.816 49.0667Z" fill="#ED203D"/>
<path d="M95.0502 71.9078C96.7818 70.1841 98.3195 68.2774 99.6361 66.2215H81.085C80.6902 68.3658 80.1761 70.4865 79.5452 72.574C78.2533 76.7836 76.6532 79.8049 74.8749 81.4725C82.5092 80.7092 89.6405 77.3284 95.0502 71.9078Z" fill="#ED203D"/>
<path d="M61.8853 47.7316H81.2806C81.2471 42.0987 80.7928 36.6969 79.966 31.9118H63.1999C62.3731 36.6969 61.9134 42.0987 61.8853 47.7316Z" fill="#ED203D"/>
<path d="M100.445 31.9092H81.3248C82.1396 36.7156 82.5886 42.1121 82.6207 47.7289H104.816C104.718 42.1733 103.215 36.732 100.445 31.9092Z" fill="#ED203D"/>
<path d="M64.9018 72.1855C66.7378 78.1654 69.1714 81.6087 71.5836 81.6461C73.9958 81.6087 76.4281 78.1654 78.264 72.1855C78.8566 70.2248 79.3433 68.234 79.7221 66.2215H63.4438C63.8232 68.2339 64.3099 70.2247 64.9018 72.1855Z" fill="#ED203D"/>
<path d="M81.2806 49.0667H61.8853C61.9188 54.7008 62.3731 60.1027 63.1999 64.8877H79.966C80.7928 60.1027 81.2471 54.7008 81.2806 49.0667Z" fill="#ED203D"/>
<path d="M71.5836 15.1535C69.1714 15.1909 66.7378 18.6341 64.9018 24.6141C64.31 26.5736 63.8233 28.563 63.4438 30.574H79.7221C79.3427 28.5629 78.8556 26.5734 78.2627 24.6141C76.4281 18.6341 73.9958 15.1909 71.5836 15.1535Z" fill="#ED203D"/>
<path d="M126.599 57.829C121.743 55.625 117.269 52.6675 113.344 49.0667H106.156C106.063 54.5977 104.632 60.0248 101.983 64.8864H123.265C123.361 64.8866 123.455 64.9076 123.542 64.9478C124.84 62.7035 125.866 60.3139 126.599 57.829Z" fill="#ED203D"/>
<path d="M105.701 35.0894C109.407 41.074 114.363 46.1938 120.232 50.101C126.1 54.0081 132.744 56.611 139.712 57.7329L98.8132 2.54873L98.7502 3.03872C97.3218 14.1998 99.775 25.5115 105.701 35.0894Z" fill="#FCBA28"/>
</svg>
