<svg width="429" height="435" viewBox="0 0 429 435" fill="none" xmlns="http://www.w3.org/2000/svg">
<path d="M301.897 54.2619C259.263 49.7141 218.242 42.7594 179.945 33.5847C179.351 62.5563 174.751 92.4653 166.262 122.526C158.233 150.953 146.689 179.69 131.949 207.943C117.831 235.002 101.751 259.939 84.1531 282.05C65.5522 305.439 45.1163 325.844 23.3724 342.739C59.3676 364.367 97.2534 382.697 136.565 397.503C176.336 412.501 217.359 423.956 259.155 431.735C280.198 410.833 300.11 386.016 318.307 357.963C334.407 333.166 349.776 304.907 363.992 273.978C395.08 206.448 415.848 134.652 425.605 60.9823C382.669 60.6972 341.061 58.436 301.897 54.2619ZM290.611 104.329C291.62 98.9988 292.474 94.1279 293.217 89.444C293.283 89.0322 293.509 88.6629 293.846 88.4162C294.183 88.1695 294.604 88.0654 295.017 88.1265C315.037 91.0718 335.508 93.5705 355.827 95.5562C356.044 95.5778 356.255 95.6439 356.445 95.7503C356.636 95.8568 356.802 96.0014 356.934 96.175C357.066 96.3486 357.161 96.5475 357.212 96.7593C357.264 96.9711 357.271 97.1911 357.233 97.4058C356.36 102.381 355.376 107.54 354.23 113.174C354.157 113.532 353.962 113.853 353.678 114.084C353.395 114.315 353.04 114.441 352.674 114.441C352.616 114.444 352.558 114.444 352.5 114.441C332.235 112.196 311.863 109.421 291.931 106.207C291.722 106.173 291.522 106.098 291.343 105.985C291.164 105.873 291.009 105.726 290.887 105.553C290.765 105.38 290.68 105.185 290.635 104.978C290.59 104.772 290.587 104.559 290.627 104.351L290.611 104.329ZM183.91 153.297C193.165 125.643 199.629 98.0423 203.149 71.3003C203.178 71.0791 203.253 70.8664 203.37 70.6762C203.487 70.486 203.643 70.3227 203.828 70.1968C204.013 70.0709 204.222 69.9853 204.442 69.9457C204.662 69.9062 204.888 69.9134 205.105 69.967C227.792 75.5726 251.456 80.4181 277.439 84.7568C277.851 84.8253 278.22 85.0533 278.465 85.3912C278.71 85.7292 278.811 86.1499 278.747 86.562C274.166 115.727 266.819 145.531 256.911 175.155C256.805 175.47 256.603 175.743 256.333 175.937C256.063 176.131 255.739 176.235 255.406 176.235C255.274 176.235 255.143 176.219 255.015 176.188C229.821 169.813 206.883 162.978 184.891 155.286C184.499 155.148 184.177 154.863 183.994 154.491C183.81 154.119 183.78 153.69 183.91 153.297ZM345.058 175.529C345.283 175.564 345.498 175.647 345.689 175.773C345.879 175.899 346.04 176.064 346.16 176.257C346.281 176.45 346.358 176.667 346.387 176.893C346.416 177.119 346.396 177.348 346.328 177.565C344.823 182.395 343.194 187.383 341.359 192.814C341.253 193.128 341.051 193.401 340.781 193.594C340.511 193.788 340.187 193.891 339.854 193.891C339.769 193.891 339.685 193.885 339.6 193.872C316.952 190.249 294.208 185.815 272.013 180.748C271.797 180.699 271.593 180.605 271.415 180.472C271.237 180.339 271.09 180.17 270.981 179.977C270.873 179.783 270.806 179.569 270.786 179.349C270.766 179.128 270.792 178.906 270.864 178.696C272.61 173.543 274.15 168.809 275.569 164.229C275.686 163.85 275.942 163.529 276.285 163.329C276.628 163.129 277.034 163.065 277.423 163.149C299.633 167.969 322.393 172.131 345.058 175.529ZM96.3315 346.676C93.0805 349.881 88.2708 351.588 83.4071 351.588C80.4558 351.609 77.5384 350.959 74.8765 349.688C73.3017 348.941 71.9338 347.821 70.8919 346.426C69.85 345.031 69.1656 343.404 68.8984 341.685C68.6762 340.142 68.8409 338.568 69.3777 337.104C69.9146 335.64 70.8069 334.331 71.9748 333.295C77.302 328.434 86.3405 327.031 92.998 330.027C94.5842 330.731 95.9749 331.809 97.0501 333.168C98.1253 334.528 98.8528 336.128 99.1697 337.831C99.4626 339.424 99.3569 341.065 98.8618 342.608C98.3667 344.151 97.4976 345.548 96.3315 346.676ZM252.212 397.756C252.115 397.941 251.983 398.104 251.823 398.237C251.663 398.371 251.478 398.471 251.279 398.533C251.08 398.595 250.871 398.618 250.663 398.599C250.456 398.58 250.254 398.521 250.069 398.425C245.151 395.85 238.878 395.099 230.89 396.135C229.238 396.351 227.601 396.668 225.989 397.085C222.7 402.098 214.823 404.404 210.204 404.508H210.166C209.832 404.508 209.508 404.404 209.237 404.209C208.967 404.015 208.765 403.741 208.66 403.426C208.554 403.11 208.551 402.77 208.65 402.453C208.75 402.135 208.947 401.857 209.213 401.658C213.61 398.361 218.573 395.892 223.858 394.374C223.931 394.206 223.998 394.035 224.055 393.858C221.76 393.706 219.455 393.541 217.185 393.373C216.901 393.352 216.628 393.254 216.394 393.091C216.161 392.928 215.976 392.705 215.858 392.446C215.741 392.186 215.696 391.9 215.728 391.618C215.76 391.335 215.867 391.066 216.039 390.84C216.064 390.802 216.093 390.767 216.121 390.729C213.493 390.317 210.851 389.893 208.235 389.462C203.508 389.646 199.029 388.854 195.219 387.172C190.215 387.806 185.145 388.379 180.139 388.914C179.729 388.957 179.319 388.839 178.995 388.586C178.671 388.332 178.458 387.963 178.402 387.556C178.345 387.149 178.45 386.737 178.692 386.405C178.935 386.073 179.298 385.849 179.704 385.779C183.618 385.114 186.298 382.45 186.253 380.477C186.203 378.213 182.532 376.677 179.923 376.544C175.987 376.358 172.119 377.61 169.043 380.066C168.883 380.203 168.696 380.307 168.495 380.372C168.294 380.436 168.081 380.46 167.871 380.442C167.66 380.423 167.455 380.363 167.268 380.265C167.081 380.166 166.915 380.032 166.781 379.868C166.647 379.705 166.547 379.517 166.487 379.315C166.427 379.113 166.408 378.9 166.431 378.691C166.454 378.481 166.519 378.278 166.622 378.094C166.725 377.909 166.864 377.748 167.03 377.617C170.715 374.672 175.349 373.166 180.066 373.38C182.13 373.489 184.138 374.087 185.923 375.125C188.145 376.449 189.38 378.324 189.415 380.404C189.414 382.065 188.79 383.664 187.666 384.889C190.206 384.594 192.746 384.287 195.254 383.974C195.551 383.936 195.852 383.983 196.124 384.11C199.616 385.731 203.81 386.485 208.267 386.292C208.373 386.289 208.479 386.296 208.585 386.311C212.112 386.89 215.69 387.464 219.217 388.008C219.478 388.048 219.725 388.153 219.936 388.312C220.146 388.472 220.314 388.681 220.422 388.922C220.531 389.162 220.578 389.426 220.559 389.689C220.54 389.952 220.455 390.206 220.312 390.428C222.217 390.561 224.122 390.691 226.027 390.811C226.44 390.838 226.827 391.025 227.104 391.333C227.381 391.641 227.527 392.045 227.509 392.458C227.497 392.806 227.463 393.153 227.408 393.497C228.436 393.288 229.471 393.114 230.5 392.981C239.157 391.856 246.056 392.714 251.564 395.603C251.748 395.702 251.911 395.837 252.042 395.999C252.173 396.161 252.272 396.348 252.331 396.548C252.39 396.748 252.408 396.958 252.386 397.165C252.363 397.373 252.3 397.573 252.199 397.756H252.212ZM292.592 354.635C289.95 358.571 287.261 362.505 284.595 366.321C284.449 366.531 284.254 366.702 284.028 366.821C283.801 366.939 283.549 367.001 283.293 367.002C283.186 367 283.08 366.989 282.975 366.967C218.845 353.536 158.096 332.877 102.408 305.562C102.194 305.457 102.006 305.306 101.859 305.118C101.711 304.931 101.608 304.713 101.557 304.481C101.506 304.248 101.507 304.007 101.562 303.775C101.618 303.544 101.724 303.327 101.875 303.143C104.291 300.169 106.808 296.97 110.04 292.771C110.262 292.482 110.577 292.278 110.932 292.194C111.287 292.11 111.661 292.15 111.989 292.308C167.246 318.94 227.665 339.097 291.579 352.202C291.834 352.255 292.072 352.369 292.273 352.534C292.473 352.7 292.63 352.912 292.729 353.153C292.828 353.393 292.866 353.654 292.84 353.912C292.813 354.171 292.724 354.419 292.579 354.635H292.592ZM310.078 326.651C307.573 330.876 304.999 335.116 302.459 339.256C302.317 339.486 302.118 339.676 301.881 339.808C301.644 339.94 301.378 340.01 301.107 340.009C301 340.01 300.894 340 300.789 339.981C236.554 327.177 175.942 307.494 120.65 281.48C120.44 281.383 120.254 281.241 120.105 281.065C119.955 280.888 119.847 280.681 119.786 280.458C119.726 280.235 119.715 280.001 119.754 279.774C119.794 279.546 119.883 279.33 120.015 279.14C122.596 275.46 125.177 271.688 127.695 267.932C127.905 267.619 128.22 267.391 128.584 267.288C128.948 267.186 129.336 267.217 129.679 267.375C184.602 292.692 244.923 311.839 309.005 324.292C309.255 324.34 309.489 324.448 309.688 324.605C309.887 324.763 310.045 324.965 310.15 325.197C310.254 325.428 310.301 325.681 310.287 325.934C310.273 326.187 310.198 326.433 310.069 326.651H310.078ZM327.74 294.544C325.517 298.851 323.196 303.263 320.606 308.032C320.47 308.283 320.268 308.493 320.022 308.639C319.776 308.785 319.495 308.862 319.209 308.862C319.111 308.861 319.013 308.853 318.917 308.837C254.469 296.802 193.904 278.247 138.908 253.69C138.703 253.599 138.52 253.465 138.371 253.297C138.222 253.13 138.11 252.933 138.043 252.719C137.975 252.505 137.954 252.28 137.981 252.057C138.008 251.835 138.081 251.621 138.197 251.429C140.572 247.489 142.943 243.467 145.242 239.47C145.437 239.132 145.75 238.877 146.121 238.755C146.493 238.633 146.896 238.652 147.255 238.808C201.949 262.643 262.295 280.613 326.628 292.264C326.872 292.308 327.102 292.408 327.301 292.557C327.499 292.706 327.659 292.899 327.769 293.12C327.879 293.342 327.935 293.586 327.933 293.834C327.931 294.081 327.872 294.324 327.759 294.544H327.74ZM343.969 260.756C341.943 265.291 339.794 269.94 337.403 275.007C337.275 275.278 337.072 275.507 336.818 275.667C336.564 275.828 336.269 275.913 335.969 275.913C335.878 275.913 335.788 275.906 335.699 275.891C270.953 264.752 210.296 247.426 155.445 224.392C155.244 224.307 155.063 224.182 154.912 224.024C154.762 223.866 154.646 223.679 154.572 223.474C154.497 223.269 154.466 223.051 154.48 222.834C154.493 222.616 154.552 222.404 154.652 222.21C156.788 218.062 158.912 213.837 160.963 209.647C161.14 209.286 161.448 209.006 161.824 208.864C162.2 208.721 162.616 208.726 162.989 208.877C217.629 231.151 278.118 247.866 342.778 258.548C343.019 258.587 343.247 258.681 343.446 258.823C343.644 258.964 343.807 259.149 343.922 259.363C344.038 259.578 344.102 259.816 344.11 260.059C344.118 260.302 344.07 260.544 343.969 260.765V260.756ZM358.659 224.098C356.852 228.826 354.922 233.7 352.76 238.983C352.641 239.274 352.437 239.523 352.175 239.699C351.914 239.874 351.605 239.968 351.29 239.968C351.209 239.974 351.127 239.974 351.045 239.968C285.871 229.878 225.008 213.922 170.154 192.539C169.956 192.462 169.775 192.346 169.622 192.197C169.47 192.049 169.349 191.872 169.266 191.676C169.184 191.48 169.142 191.269 169.143 191.057C169.144 190.844 169.188 190.634 169.272 190.439C171.126 186.132 172.957 181.749 174.716 177.41C174.871 177.026 175.171 176.718 175.55 176.552C175.93 176.386 176.36 176.374 176.748 176.52C231.484 197.106 292.265 212.408 357.392 221.966C357.629 221.999 357.855 222.084 358.054 222.215C358.253 222.347 358.42 222.522 358.542 222.726C358.664 222.931 358.739 223.161 358.759 223.399C358.78 223.636 358.747 223.875 358.662 224.098H358.659ZM378.545 156.872C378.455 157.208 378.256 157.505 377.979 157.717C377.702 157.928 377.364 158.043 377.015 158.044C376.957 158.047 376.899 158.047 376.84 158.044C345.709 154.678 314.225 149.883 283.271 143.793C283.058 143.751 282.856 143.665 282.677 143.542C282.499 143.419 282.347 143.261 282.232 143.077C282.117 142.893 282.042 142.688 282.009 142.474C281.977 142.26 281.989 142.041 282.045 141.832C283.442 136.562 284.655 131.739 285.75 127.087C285.843 126.69 286.085 126.344 286.427 126.121C286.769 125.898 287.184 125.815 287.585 125.89C318.628 131.59 350.163 136.008 381.314 139.036C381.541 139.058 381.761 139.128 381.959 139.243C382.157 139.357 382.328 139.513 382.459 139.7C382.591 139.886 382.681 140.099 382.723 140.323C382.764 140.547 382.757 140.778 382.701 140.999C381.371 146.26 379.974 151.612 378.545 156.872Z" fill="#231F20"/>
<path d="M428.605 58.3663C428.457 58.1977 428.275 58.0622 428.071 57.9688C427.867 57.8755 427.645 57.8264 427.421 57.8248C383.955 57.5936 341.839 55.3355 302.234 51.1108C259.022 46.5028 217.48 39.4151 178.761 30.044C178.529 29.9884 178.288 29.9855 178.055 30.0354C177.823 30.0854 177.604 30.187 177.416 30.3327C177.228 30.4784 177.075 30.6644 176.969 30.8771C176.862 31.0897 176.805 31.3234 176.802 31.561C176.386 60.8714 171.811 91.189 163.201 121.668C155.233 149.886 143.772 178.42 129.13 206.48C115.104 233.361 99.1348 258.127 81.6641 280.09C62.7076 303.922 41.8431 324.631 19.6198 341.631C19.4156 341.788 19.2527 341.991 19.1451 342.225C19.0376 342.458 18.9885 342.714 19.0023 342.971C19.016 343.227 19.0921 343.477 19.2241 343.697C19.356 343.918 19.5398 344.103 19.7595 344.237C56.5073 366.488 95.2366 385.306 135.454 400.451C175.661 415.611 217.142 427.163 259.406 434.972C259.501 434.99 259.598 435 259.695 435C260.114 435 260.515 434.835 260.812 434.541C282.223 413.385 302.469 388.186 320.971 359.683C337.162 334.759 352.598 306.367 366.878 275.295C398.352 206.936 419.291 134.224 428.986 59.6236C429.016 59.3991 428.998 59.1706 428.932 58.9537C428.866 58.7368 428.755 58.5365 428.605 58.3663ZM318.307 357.963C300.097 386.016 280.21 410.833 259.155 431.735C217.359 423.956 176.336 412.501 136.565 397.503C97.2534 382.697 59.3676 364.367 23.3724 342.739C45.1163 325.844 65.5522 305.439 84.1499 282.06C101.748 259.939 117.828 235.002 131.946 207.953C146.686 179.7 158.23 150.963 166.259 122.536C174.748 92.4653 179.348 62.5563 179.945 33.5847C218.245 42.7689 259.266 49.7141 301.9 54.2619C341.064 58.436 382.672 60.6972 425.608 60.9823C415.851 134.652 395.083 206.448 363.995 273.978C349.776 304.894 334.407 333.166 318.307 357.963Z" fill="#231F20"/>
<path d="M254.365 172.755C263.809 144.283 270.873 115.657 275.362 87.6198C250.558 83.4362 227.849 78.7997 206.064 73.4665C202.54 99.382 196.27 126.061 187.415 152.819C208.451 160.118 230.386 166.652 254.365 172.755Z" fill="#231F20"/>
<path d="M184.891 155.292C206.883 162.978 229.821 169.813 255.015 176.194C255.143 176.225 255.274 176.241 255.406 176.242C255.739 176.241 256.063 176.137 256.333 175.943C256.603 175.75 256.805 175.476 256.911 175.162C266.819 145.538 274.166 115.733 278.747 86.5683C278.811 86.1563 278.71 85.7356 278.465 85.3976C278.22 85.0596 277.851 84.8316 277.439 84.7632C251.45 80.4149 227.792 75.5789 205.105 69.9733C204.888 69.9197 204.662 69.9125 204.442 69.9521C204.222 69.9917 204.013 70.0772 203.828 70.2031C203.643 70.329 203.487 70.4924 203.37 70.6825C203.253 70.8727 203.178 71.0854 203.149 71.3066C199.629 98.0423 193.165 125.643 183.91 153.297C183.779 153.691 183.808 154.122 183.991 154.495C184.175 154.868 184.498 155.154 184.891 155.292ZM275.372 87.6198C270.88 115.657 263.819 144.283 254.374 172.755C230.395 166.652 208.461 160.118 187.425 152.819C196.279 126.061 202.549 99.382 206.073 73.4665C227.849 78.7997 250.558 83.4362 275.362 87.6198L275.372 87.6198Z" fill="#231F20"/>
<path d="M351.382 111.122C352.277 106.688 353.068 102.543 353.785 98.5395C334.505 96.6394 315.114 94.2578 296.097 91.4835C295.487 95.2491 294.805 99.1476 294.024 103.319C312.92 106.352 332.2 108.975 351.382 111.122Z" fill="#231F20"/>
<path d="M291.916 106.185C311.844 109.412 332.219 112.186 352.484 114.419C352.542 114.422 352.6 114.422 352.658 114.419C353.024 114.419 353.379 114.293 353.662 114.062C353.946 113.831 354.141 113.51 354.214 113.152C355.36 107.518 356.344 102.359 357.217 97.3836C357.252 97.1718 357.243 96.9553 357.191 96.7471C357.139 96.5389 357.045 96.3434 356.915 96.1725C356.785 96.0016 356.621 95.8589 356.434 95.7529C356.247 95.647 356.04 95.5801 355.827 95.5562C335.508 93.5737 315.053 91.075 295.033 88.1265C294.62 88.0654 294.199 88.1695 293.862 88.4162C293.525 88.6629 293.299 89.0322 293.233 89.444C292.49 94.1311 291.646 99.0019 290.627 104.329C290.587 104.536 290.59 104.75 290.635 104.956C290.68 105.163 290.765 105.358 290.887 105.531C291.009 105.704 291.164 105.851 291.343 105.963C291.522 106.075 291.722 106.151 291.931 106.185H291.916ZM353.792 98.5395C353.074 102.543 352.284 106.688 351.388 111.122C332.2 108.975 312.92 106.352 294.03 103.319C294.811 99.1476 295.494 95.2491 296.103 91.4835C315.12 94.2578 334.511 96.6299 353.792 98.5395Z" fill="#231F20"/>
<path d="M288.493 129.262C287.601 133.003 286.63 136.863 285.544 140.996C315.428 146.83 345.785 151.447 375.834 154.738C376.974 150.507 378.094 146.234 379.171 141.997C349.023 139.014 318.536 134.735 288.493 129.262Z" fill="#231F20"/>
<path d="M382.457 139.688C382.325 139.502 382.155 139.346 381.958 139.231C381.761 139.116 381.541 139.045 381.314 139.023C350.163 135.995 318.628 131.574 287.585 125.877C287.184 125.803 286.769 125.886 286.427 126.109C286.086 126.332 285.843 126.677 285.75 127.074C284.655 131.726 283.442 136.55 282.045 141.82C281.989 142.029 281.977 142.247 282.009 142.461C282.042 142.676 282.118 142.881 282.232 143.065C282.347 143.248 282.499 143.407 282.677 143.53C282.856 143.653 283.058 143.738 283.271 143.78C314.225 149.873 345.709 154.668 376.84 158.031C376.899 158.035 376.957 158.035 377.015 158.031C377.364 158.031 377.702 157.916 377.979 157.704C378.256 157.492 378.455 157.195 378.545 156.86C379.974 151.593 381.371 146.247 382.701 140.974C382.754 140.755 382.76 140.526 382.718 140.305C382.676 140.083 382.587 139.873 382.457 139.688ZM285.544 140.996C286.63 136.879 287.601 133.003 288.493 129.262C318.536 134.735 349.023 139.014 379.171 141.997C378.094 146.234 376.974 150.507 375.834 154.738C345.785 151.45 315.428 146.83 285.544 140.996Z" fill="#231F20"/>
<path d="M278.175 166.566C277.026 170.24 275.794 174.028 274.439 178.063C295.582 182.854 317.218 187.047 338.788 190.531C340.226 186.262 341.531 182.259 342.753 178.386C321.111 175.098 299.402 171.127 278.175 166.566Z" fill="#231F20"/>
<path d="M275.575 164.242C274.156 168.821 272.616 173.556 270.87 178.709C270.801 178.917 270.776 179.138 270.797 179.357C270.818 179.576 270.884 179.788 270.991 179.979C271.099 180.171 271.245 180.339 271.421 180.471C271.597 180.603 271.799 180.698 272.013 180.748C294.201 185.815 316.945 190.227 339.604 193.859C339.688 193.872 339.773 193.878 339.858 193.878C340.19 193.879 340.514 193.775 340.784 193.582C341.054 193.389 341.256 193.116 341.362 192.802C343.197 187.367 344.826 182.382 346.331 177.553C346.399 177.335 346.419 177.106 346.39 176.88C346.361 176.654 346.284 176.438 346.164 176.244C346.043 176.051 345.882 175.886 345.692 175.76C345.502 175.635 345.286 175.551 345.061 175.516C322.396 172.118 299.643 167.957 277.439 163.165C277.049 163.078 276.641 163.14 276.296 163.34C275.951 163.54 275.693 163.862 275.575 164.242ZM274.439 178.063C275.794 174.028 277.026 170.24 278.175 166.566C299.402 171.127 321.111 175.098 342.753 178.386C341.531 182.259 340.213 186.262 338.788 190.531C317.218 187.047 295.582 182.854 274.439 178.063Z" fill="#231F20"/>
<path d="M177.088 180.026C175.704 183.412 174.284 186.816 172.846 190.183C226.741 211.05 286.423 226.676 350.315 236.645C352.001 232.49 353.547 228.592 355.008 224.81C290.935 215.284 231.097 200.222 177.088 180.026Z" fill="#231F20"/>
<path d="M357.414 221.966C292.274 212.409 231.494 197.118 176.77 176.52C176.382 176.374 175.952 176.386 175.573 176.552C175.193 176.718 174.893 177.026 174.738 177.41C172.961 181.749 171.126 186.132 169.272 190.439C169.188 190.634 169.144 190.844 169.143 191.057C169.142 191.269 169.184 191.48 169.266 191.676C169.349 191.872 169.47 192.049 169.622 192.197C169.775 192.346 169.956 192.462 170.154 192.539C225.027 213.922 285.871 229.878 351.045 239.971C351.127 239.977 351.209 239.977 351.29 239.971C351.605 239.971 351.914 239.877 352.175 239.702C352.437 239.526 352.641 239.277 352.76 238.986C354.922 233.687 356.852 228.813 358.659 224.101C358.743 223.878 358.777 223.639 358.756 223.402C358.735 223.164 358.661 222.935 358.539 222.73C358.417 222.525 358.25 222.35 358.051 222.218C357.852 222.087 357.625 222.002 357.389 221.97L357.414 221.966ZM172.837 190.183C174.275 186.816 175.694 183.412 177.078 180.026C231.097 200.222 290.935 215.284 354.985 224.81C353.525 228.592 351.979 232.49 350.293 236.645C286.414 226.669 226.731 211.05 172.837 190.183Z" fill="#231F20"/>
<path d="M163.163 212.358C161.557 215.617 159.912 218.891 158.255 222.125C212.14 244.61 271.61 261.557 335.048 272.553C336.902 268.629 338.61 264.93 340.232 261.335C276.642 250.691 217.09 234.22 163.163 212.358Z" fill="#231F20"/>
<path d="M342.778 258.548C278.118 247.866 217.629 231.151 162.989 208.868C162.616 208.716 162.2 208.711 161.824 208.854C161.448 208.997 161.14 209.277 160.963 209.637C158.912 213.827 156.788 218.052 154.652 222.201C154.552 222.395 154.493 222.607 154.48 222.824C154.466 223.042 154.497 223.26 154.572 223.465C154.646 223.669 154.762 223.857 154.912 224.015C155.063 224.173 155.244 224.298 155.445 224.383C210.308 247.416 270.953 264.743 335.699 275.881C335.788 275.896 335.878 275.904 335.969 275.903C336.269 275.903 336.564 275.818 336.818 275.658C337.072 275.498 337.275 275.269 337.404 274.998C339.794 269.949 341.943 265.291 343.969 260.746C344.07 260.525 344.118 260.283 344.11 260.04C344.102 259.797 344.038 259.559 343.922 259.344C343.807 259.13 343.644 258.945 343.446 258.804C343.247 258.662 343.019 258.568 342.778 258.529L342.778 258.548ZM158.255 222.128C159.912 218.894 161.557 215.62 163.163 212.361C217.083 234.213 276.642 250.682 340.232 261.338C338.61 264.933 336.902 268.622 335.048 272.556C271.61 261.557 212.14 244.595 158.255 222.125V222.128Z" fill="#231F20"/>
<path d="M147.283 242.276C145.496 245.367 143.67 248.468 141.838 251.527C195.847 275.476 255.225 293.648 318.355 305.508C320.342 301.838 322.165 298.373 323.927 294.997C260.67 283.4 201.26 265.671 147.283 242.276Z" fill="#231F20"/>
<path d="M326.619 292.264C262.292 280.629 201.946 262.643 147.245 238.808C146.887 238.652 146.483 238.633 146.112 238.755C145.74 238.877 145.427 239.132 145.232 239.47C142.94 243.454 140.578 247.489 138.194 251.429C138.078 251.621 138.005 251.835 137.978 252.058C137.951 252.28 137.972 252.505 138.04 252.719C138.107 252.933 138.219 253.13 138.368 253.297C138.517 253.465 138.7 253.599 138.905 253.69C193.904 278.247 254.466 296.799 318.914 308.837C319.01 308.853 319.108 308.861 319.206 308.862C319.492 308.862 319.773 308.785 320.019 308.639C320.265 308.493 320.466 308.284 320.603 308.032C323.193 303.263 325.527 298.848 327.736 294.544C327.849 294.324 327.909 294.081 327.911 293.834C327.913 293.586 327.856 293.342 327.747 293.12C327.637 292.899 327.476 292.706 327.278 292.557C327.08 292.408 326.85 292.308 326.606 292.264H326.619ZM141.848 251.527C143.68 248.468 145.505 245.367 147.293 242.276C201.264 265.671 260.679 283.4 323.946 294.997C322.196 298.373 320.361 301.838 318.374 305.508C255.225 293.635 195.847 275.476 141.848 251.527Z" fill="#231F20"/>
<path d="M129.59 270.814C127.65 273.696 125.679 276.575 123.704 279.412C177.993 304.774 237.408 324.032 300.335 336.659C302.297 333.466 304.262 330.217 306.199 326.968C243.18 314.553 183.777 295.665 129.59 270.814Z" fill="#231F20"/>
<path d="M309.015 324.292C244.945 311.839 184.612 292.692 129.689 267.375C129.346 267.217 128.957 267.186 128.594 267.288C128.23 267.391 127.915 267.619 127.704 267.932C125.187 271.688 122.606 275.46 120.025 279.14C119.892 279.33 119.803 279.546 119.764 279.774C119.724 280.001 119.735 280.235 119.796 280.458C119.856 280.681 119.965 280.888 120.114 281.065C120.263 281.241 120.45 281.383 120.66 281.48C175.951 307.494 236.564 327.177 300.808 339.981C300.913 340 301.019 340.01 301.126 340.009C301.397 340.01 301.663 339.94 301.9 339.808C302.137 339.676 302.336 339.486 302.478 339.256C305.018 335.116 307.589 330.876 310.097 326.651C310.227 326.433 310.301 326.187 310.315 325.934C310.33 325.681 310.283 325.428 310.178 325.197C310.074 324.965 309.916 324.763 309.717 324.605C309.517 324.448 309.283 324.34 309.034 324.292H309.015ZM123.704 279.412C125.679 276.562 127.65 273.712 129.59 270.814C183.777 295.665 243.18 314.553 306.199 326.968C304.262 330.217 302.297 333.466 300.335 336.659C237.408 324.032 177.993 304.774 123.704 279.412Z" fill="#231F20"/>
<path d="M111.751 295.71C109.402 298.75 107.427 301.265 105.567 303.58C160.236 330.204 219.772 350.404 282.579 363.642C284.595 360.747 286.62 357.789 288.611 354.818C225.754 341.748 166.268 321.869 111.751 295.71Z" fill="#231F20"/>
<path d="M291.579 352.202C227.665 339.097 167.246 318.94 111.967 292.308C111.638 292.15 111.265 292.11 110.91 292.194C110.555 292.278 110.24 292.482 110.018 292.771C106.786 296.976 104.268 300.169 101.846 303.143C101.696 303.327 101.589 303.544 101.534 303.775C101.479 304.007 101.477 304.248 101.528 304.481C101.579 304.713 101.683 304.931 101.83 305.118C101.977 305.306 102.165 305.457 102.379 305.562C158.074 332.877 218.826 353.536 282.953 366.967C283.058 366.989 283.164 367 283.271 367.002C283.527 367.001 283.779 366.939 284.005 366.821C284.232 366.702 284.426 366.531 284.572 366.321C287.239 362.52 289.928 358.571 292.57 354.635C292.714 354.419 292.804 354.171 292.83 353.912C292.856 353.654 292.818 353.393 292.719 353.153C292.62 352.912 292.464 352.7 292.263 352.534C292.063 352.369 291.825 352.255 291.57 352.202L291.579 352.202ZM105.567 303.589C107.427 301.274 109.402 298.76 111.751 295.719C166.268 321.869 225.754 341.748 288.623 354.828C286.62 357.798 284.595 360.756 282.591 363.651C219.772 350.413 160.236 330.23 105.567 303.589Z" fill="#231F20"/>
<path d="M96.0458 338.388C95.8206 337.189 95.306 336.063 94.5465 335.107C93.787 334.152 92.8055 333.395 91.6868 332.903C89.684 332.035 87.5206 331.598 85.3373 331.62C81.2101 331.62 76.9655 333.033 74.1272 335.62C73.3384 336.306 72.7349 337.178 72.3721 338.157C72.0093 339.136 71.8989 340.19 72.0509 341.222C72.2446 342.43 72.7311 343.572 73.4681 344.55C74.205 345.527 75.1702 346.311 76.2797 346.831C82.1467 349.681 89.8105 348.662 94.1092 344.424C94.9043 343.654 95.497 342.701 95.8348 341.648C96.1726 340.595 96.245 339.475 96.0458 338.388Z" fill="#231F20"/>
<path d="M92.998 330.014C86.331 327.019 77.302 328.431 71.9748 333.283C70.8069 334.319 69.9146 335.627 69.3777 337.091C68.8409 338.555 68.6762 340.129 68.8984 341.672C69.1656 343.391 69.85 345.019 70.8919 346.414C71.9338 347.808 73.3017 348.928 74.8765 349.675C77.5384 350.947 80.4558 351.596 83.4071 351.575C88.2708 351.575 93.0805 349.868 96.3315 346.663C97.4956 345.537 98.3635 344.142 98.8586 342.601C99.3536 341.061 99.4605 339.422 99.1697 337.831C98.8547 336.126 98.1281 334.523 97.0528 333.161C95.9774 331.799 94.5857 330.719 92.998 330.014ZM76.2702 346.831C75.1607 346.311 74.1955 345.527 73.4585 344.55C72.7215 343.572 72.2351 342.43 72.0414 341.222C71.8882 340.189 71.9981 339.133 72.3609 338.153C72.7238 337.173 73.3279 336.3 74.1177 335.614C76.956 333.026 81.2006 331.614 85.3278 331.614C87.5147 331.593 89.6815 332.032 91.6868 332.903C92.8043 333.396 93.7846 334.153 94.5429 335.109C95.3013 336.064 95.8149 337.19 96.0394 338.388C96.2375 339.476 96.1635 340.596 95.8241 341.649C95.4846 342.702 94.8901 343.655 94.0933 344.424C89.801 348.662 82.1372 349.694 76.2702 346.831Z" fill="#231F20"/>
<path d="M251.533 395.619C246.015 392.73 239.126 391.872 230.468 392.996C229.44 393.129 228.405 393.313 227.376 393.513C227.431 393.169 227.465 392.822 227.478 392.474C227.495 392.061 227.35 391.657 227.073 391.349C226.796 391.041 226.409 390.854 225.995 390.827C224.09 390.707 222.185 390.577 220.28 390.444C220.423 390.222 220.508 389.968 220.527 389.705C220.546 389.442 220.499 389.178 220.391 388.938C220.282 388.697 220.115 388.488 219.904 388.328C219.694 388.169 219.446 388.064 219.185 388.024C215.658 387.479 212.08 386.906 208.553 386.327C208.448 386.311 208.342 386.305 208.235 386.308C203.791 386.501 199.581 385.747 196.092 384.126C195.821 383.999 195.519 383.952 195.222 383.989C192.708 384.306 190.171 384.623 187.634 384.905C188.758 383.68 189.382 382.08 189.384 380.42C189.336 378.34 188.092 376.465 185.891 375.141C184.106 374.103 182.098 373.504 180.034 373.396C175.317 373.182 170.683 374.688 166.998 377.633C166.832 377.763 166.693 377.925 166.59 378.11C166.487 378.294 166.422 378.497 166.399 378.707C166.376 378.916 166.395 379.128 166.455 379.331C166.515 379.533 166.615 379.721 166.75 379.884C166.884 380.047 167.049 380.182 167.236 380.281C167.423 380.379 167.628 380.439 167.839 380.458C168.05 380.476 168.262 380.452 168.463 380.388C168.664 380.323 168.851 380.219 169.011 380.081C172.088 377.626 175.956 376.374 179.891 376.56C182.501 376.677 186.171 378.229 186.222 380.493C186.266 382.466 183.587 385.13 179.672 385.795C179.266 385.865 178.904 386.089 178.661 386.421C178.418 386.752 178.314 387.165 178.37 387.572C178.426 387.979 178.639 388.348 178.963 388.601C179.287 388.855 179.697 388.973 180.107 388.93C185.114 388.395 190.184 387.809 195.187 387.188C198.997 388.87 203.492 389.661 208.204 389.478C210.82 389.909 213.461 390.333 216.09 390.745C216.061 390.783 216.033 390.817 216.007 390.855C215.835 391.082 215.728 391.351 215.696 391.634C215.664 391.916 215.709 392.202 215.827 392.461C215.944 392.721 216.129 392.944 216.362 393.107C216.596 393.27 216.869 393.367 217.153 393.389C219.423 393.56 221.728 393.706 224.023 393.874C223.966 394.051 223.9 394.222 223.827 394.39C218.541 395.908 213.578 398.377 209.181 401.674C208.915 401.873 208.718 402.151 208.619 402.469C208.519 402.786 208.523 403.126 208.628 403.441C208.733 403.757 208.935 404.031 209.206 404.225C209.476 404.42 209.801 404.524 210.134 404.524H210.172C214.791 404.42 222.668 402.114 225.957 397.101C227.57 396.684 229.207 396.367 230.859 396.151C238.846 395.115 245.12 395.866 250.037 398.44C250.41 398.636 250.846 398.675 251.248 398.55C251.65 398.425 251.986 398.146 252.182 397.774C252.378 397.402 252.417 396.967 252.292 396.566C252.167 396.165 251.887 395.83 251.514 395.634L251.533 395.619Z" fill="#231F20"/>
<path d="M282.897 24.2619C240.263 19.7141 199.242 12.7594 160.945 3.58469C160.351 32.5563 155.751 62.4653 147.262 92.5263C139.233 120.953 127.689 149.69 112.949 177.943C98.8309 205.002 82.7508 229.939 65.1531 252.05C46.5522 275.439 26.1163 295.844 4.37239 312.739C40.3676 334.367 78.2534 352.697 117.565 367.503C157.336 382.501 198.359 393.956 240.155 401.735C261.198 380.833 281.11 356.016 299.307 327.963C315.407 303.166 330.776 274.907 344.992 243.978C376.08 176.448 396.848 104.652 406.605 30.9823C363.669 30.6972 322.061 28.436 282.897 24.2619ZM271.611 74.3288C272.62 68.9988 273.474 64.1279 274.217 59.444C274.283 59.0322 274.509 58.6629 274.846 58.4162C275.183 58.1695 275.604 58.0654 276.017 58.1265C296.037 61.0718 316.508 63.5705 336.827 65.5562C337.044 65.5778 337.255 65.6439 337.445 65.7503C337.636 65.8568 337.802 66.0014 337.934 66.175C338.066 66.3486 338.161 66.5475 338.212 66.7593C338.264 66.9711 338.271 67.1911 338.233 67.4058C337.36 72.3811 336.376 77.5401 335.23 83.1742C335.157 83.5319 334.962 83.8533 334.678 84.0842C334.395 84.315 334.04 84.4411 333.674 84.441C333.616 84.4441 333.558 84.4441 333.5 84.441C313.235 82.1956 292.863 79.4213 272.931 76.2068C272.722 76.1729 272.522 76.0975 272.343 75.9853C272.164 75.873 272.009 75.7261 271.887 75.5532C271.765 75.3802 271.68 75.1848 271.635 74.9783C271.59 74.7719 271.587 74.5586 271.627 74.351L271.611 74.3288ZM164.91 123.297C174.165 95.6426 180.629 68.0423 184.149 41.3003C184.178 41.0791 184.253 40.8664 184.37 40.6762C184.487 40.486 184.643 40.3227 184.828 40.1968C185.013 40.0709 185.222 39.9853 185.442 39.9457C185.662 39.9062 185.888 39.9134 186.105 39.967C208.792 45.5726 232.456 50.4181 258.439 54.7568C258.851 54.8253 259.22 55.0533 259.465 55.3912C259.71 55.7292 259.811 56.1499 259.747 56.562C255.166 85.7268 247.819 115.531 237.911 145.155C237.805 145.47 237.603 145.743 237.333 145.937C237.063 146.131 236.739 146.235 236.406 146.235C236.274 146.235 236.143 146.219 236.015 146.188C210.821 139.813 187.883 132.978 165.891 125.286C165.499 125.148 165.177 124.863 164.994 124.491C164.81 124.119 164.78 123.69 164.91 123.297ZM326.058 145.529C326.283 145.564 326.498 145.647 326.689 145.773C326.879 145.899 327.04 146.064 327.16 146.257C327.281 146.45 327.358 146.667 327.387 146.893C327.416 147.119 327.396 147.348 327.328 147.565C325.823 152.395 324.194 157.383 322.359 162.814C322.253 163.128 322.051 163.401 321.781 163.594C321.511 163.788 321.187 163.891 320.854 163.891C320.769 163.891 320.685 163.885 320.6 163.872C297.952 160.249 275.208 155.815 253.013 150.748C252.797 150.699 252.593 150.605 252.415 150.472C252.237 150.339 252.09 150.17 251.981 149.977C251.873 149.783 251.806 149.569 251.786 149.349C251.766 149.128 251.792 148.906 251.864 148.696C253.61 143.543 255.15 138.809 256.569 134.229C256.686 133.85 256.942 133.529 257.285 133.329C257.628 133.129 258.034 133.065 258.423 133.149C280.633 137.969 303.393 142.131 326.058 145.529ZM77.3315 316.676C74.0805 319.881 69.2708 321.588 64.4071 321.588C61.4558 321.609 58.5384 320.959 55.8765 319.688C54.3017 318.941 52.9338 317.821 51.8919 316.426C50.85 315.031 50.1656 313.404 49.8984 311.685C49.6762 310.142 49.8409 308.568 50.3777 307.104C50.9146 305.64 51.8069 304.331 52.9748 303.295C58.302 298.434 67.3405 297.031 73.998 300.027C75.5842 300.731 76.9749 301.809 78.0501 303.168C79.1253 304.528 79.8528 306.128 80.1697 307.831C80.4626 309.424 80.3569 311.065 79.8618 312.608C79.3667 314.151 78.4976 315.548 77.3315 316.676ZM233.212 367.756C233.115 367.941 232.983 368.104 232.823 368.237C232.663 368.371 232.478 368.471 232.279 368.533C232.08 368.595 231.871 368.618 231.663 368.599C231.456 368.58 231.254 368.521 231.069 368.425C226.151 365.85 219.878 365.099 211.89 366.135C210.238 366.351 208.601 366.668 206.989 367.085C203.7 372.098 195.823 374.404 191.204 374.508H191.166C190.832 374.508 190.508 374.404 190.237 374.209C189.967 374.015 189.765 373.741 189.66 373.426C189.554 373.11 189.551 372.77 189.65 372.453C189.75 372.135 189.947 371.857 190.213 371.658C194.61 368.361 199.573 365.892 204.858 364.374C204.931 364.206 204.998 364.035 205.055 363.858C202.76 363.706 200.455 363.541 198.185 363.373C197.901 363.352 197.628 363.254 197.394 363.091C197.161 362.928 196.976 362.705 196.858 362.446C196.741 362.186 196.696 361.9 196.728 361.618C196.76 361.335 196.867 361.066 197.039 360.84C197.064 360.802 197.093 360.767 197.121 360.729C194.493 360.317 191.851 359.893 189.235 359.462C184.508 359.646 180.029 358.854 176.219 357.172C171.215 357.806 166.145 358.379 161.139 358.914C160.729 358.957 160.319 358.839 159.995 358.586C159.671 358.332 159.458 357.963 159.402 357.556C159.345 357.149 159.45 356.737 159.692 356.405C159.935 356.073 160.298 355.849 160.704 355.779C164.618 355.114 167.298 352.45 167.253 350.477C167.203 348.213 163.532 346.677 160.923 346.544C156.987 346.358 153.119 347.61 150.043 350.066C149.883 350.203 149.696 350.307 149.495 350.372C149.294 350.436 149.081 350.46 148.871 350.442C148.66 350.423 148.455 350.363 148.268 350.265C148.081 350.166 147.915 350.032 147.781 349.868C147.647 349.705 147.547 349.517 147.487 349.315C147.427 349.113 147.408 348.9 147.431 348.691C147.454 348.481 147.519 348.278 147.622 348.094C147.725 347.909 147.864 347.748 148.03 347.617C151.715 344.672 156.349 343.166 161.066 343.38C163.13 343.489 165.138 344.087 166.923 345.125C169.145 346.449 170.38 348.324 170.415 350.404C170.414 352.065 169.79 353.664 168.666 354.889C171.206 354.594 173.746 354.287 176.254 353.974C176.551 353.936 176.852 353.983 177.124 354.11C180.616 355.731 184.81 356.485 189.267 356.292C189.373 356.289 189.479 356.296 189.585 356.311C193.112 356.89 196.69 357.464 200.217 358.008C200.478 358.048 200.725 358.153 200.936 358.312C201.146 358.472 201.314 358.681 201.422 358.922C201.531 359.162 201.578 359.426 201.559 359.689C201.54 359.952 201.455 360.206 201.312 360.428C203.217 360.561 205.122 360.691 207.027 360.811C207.44 360.838 207.827 361.025 208.104 361.333C208.381 361.641 208.527 362.045 208.509 362.458C208.497 362.806 208.463 363.153 208.408 363.497C209.436 363.288 210.471 363.114 211.5 362.981C220.157 361.856 227.056 362.714 232.564 365.603C232.748 365.702 232.911 365.837 233.042 365.999C233.173 366.161 233.272 366.348 233.331 366.548C233.39 366.748 233.408 366.958 233.386 367.165C233.363 367.373 233.3 367.573 233.199 367.756H233.212ZM273.592 324.635C270.95 328.571 268.261 332.505 265.595 336.321C265.449 336.531 265.254 336.702 265.028 336.821C264.801 336.939 264.549 337.001 264.293 337.002C264.186 337 264.08 336.989 263.975 336.967C199.845 323.536 139.096 302.877 83.408 275.562C83.1937 275.457 83.0059 275.306 82.8585 275.118C82.7112 274.931 82.608 274.713 82.5568 274.481C82.5055 274.248 82.5075 274.007 82.5625 273.775C82.6175 273.544 82.7242 273.327 82.8746 273.143C85.2906 270.169 87.8082 266.97 91.0401 262.771C91.2622 262.482 91.5773 262.278 91.9324 262.194C92.2874 262.11 92.6607 262.15 92.9894 262.308C148.246 288.94 208.665 309.097 272.579 322.202C272.834 322.255 273.072 322.369 273.273 322.534C273.473 322.7 273.63 322.912 273.729 323.153C273.828 323.393 273.866 323.654 273.84 323.912C273.813 324.171 273.724 324.419 273.579 324.635H273.592ZM291.078 296.651C288.573 300.876 285.999 305.116 283.459 309.256C283.317 309.486 283.118 309.676 282.881 309.808C282.644 309.94 282.378 310.01 282.107 310.009C282 310.01 281.894 310 281.789 309.981C217.554 297.177 156.942 277.494 101.65 251.48C101.44 251.383 101.254 251.241 101.105 251.065C100.955 250.888 100.847 250.681 100.786 250.458C100.726 250.235 100.715 250.001 100.754 249.774C100.794 249.546 100.883 249.33 101.015 249.14C103.596 245.46 106.177 241.688 108.695 237.932C108.905 237.619 109.22 237.391 109.584 237.288C109.948 237.186 110.336 237.217 110.679 237.375C165.602 262.692 225.923 281.839 290.005 294.292C290.255 294.34 290.489 294.448 290.688 294.605C290.887 294.763 291.045 294.965 291.15 295.197C291.254 295.428 291.301 295.681 291.287 295.934C291.273 296.187 291.198 296.433 291.069 296.651H291.078ZM308.74 264.544C306.517 268.851 304.196 273.263 301.606 278.032C301.47 278.283 301.268 278.493 301.022 278.639C300.776 278.785 300.495 278.862 300.209 278.862C300.111 278.861 300.013 278.853 299.917 278.837C235.469 266.802 174.904 248.247 119.908 223.69C119.703 223.599 119.52 223.465 119.371 223.297C119.222 223.13 119.11 222.933 119.043 222.719C118.975 222.505 118.954 222.28 118.981 222.057C119.008 221.835 119.081 221.621 119.197 221.429C121.572 217.489 123.943 213.467 126.242 209.47C126.437 209.132 126.75 208.877 127.121 208.755C127.493 208.633 127.896 208.652 128.255 208.808C182.949 232.643 243.295 250.613 307.628 262.264C307.872 262.308 308.102 262.408 308.301 262.557C308.499 262.706 308.659 262.899 308.769 263.12C308.879 263.342 308.935 263.586 308.933 263.834C308.931 264.081 308.872 264.324 308.759 264.544H308.74ZM324.969 230.756C322.943 235.291 320.794 239.94 318.403 245.007C318.275 245.278 318.072 245.507 317.818 245.667C317.564 245.828 317.269 245.913 316.969 245.913C316.878 245.913 316.788 245.906 316.699 245.891C251.953 234.752 191.296 217.426 136.445 194.392C136.244 194.307 136.063 194.182 135.912 194.024C135.762 193.866 135.646 193.679 135.572 193.474C135.497 193.269 135.466 193.051 135.48 192.834C135.493 192.616 135.552 192.404 135.652 192.21C137.788 188.062 139.912 183.837 141.963 179.647C142.14 179.286 142.448 179.006 142.824 178.864C143.2 178.721 143.616 178.726 143.989 178.877C198.629 201.151 259.118 217.866 323.778 228.548C324.019 228.587 324.247 228.681 324.446 228.823C324.644 228.964 324.807 229.149 324.922 229.363C325.038 229.578 325.102 229.816 325.11 230.059C325.118 230.302 325.07 230.544 324.969 230.765V230.756ZM339.659 194.098C337.852 198.826 335.922 203.7 333.76 208.983C333.641 209.274 333.437 209.523 333.175 209.699C332.914 209.874 332.605 209.968 332.29 209.968C332.209 209.974 332.127 209.974 332.045 209.968C266.871 199.878 206.008 183.922 151.154 162.539C150.956 162.462 150.775 162.346 150.622 162.197C150.47 162.049 150.349 161.872 150.266 161.676C150.184 161.48 150.142 161.269 150.143 161.057C150.144 160.844 150.188 160.634 150.272 160.439C152.126 156.132 153.957 151.749 155.716 147.41C155.871 147.026 156.171 146.718 156.55 146.552C156.93 146.386 157.36 146.374 157.748 146.52C212.484 167.106 273.265 182.408 338.392 191.966C338.629 191.999 338.855 192.084 339.054 192.215C339.253 192.347 339.42 192.522 339.542 192.726C339.664 192.931 339.739 193.161 339.759 193.399C339.78 193.636 339.747 193.875 339.662 194.098H339.659ZM359.545 126.872C359.455 127.208 359.256 127.505 358.979 127.717C358.702 127.928 358.364 128.043 358.015 128.044C357.957 128.047 357.899 128.047 357.84 128.044C326.709 124.678 295.225 119.883 264.271 113.793C264.058 113.751 263.856 113.665 263.677 113.542C263.499 113.419 263.347 113.261 263.232 113.077C263.117 112.893 263.042 112.688 263.009 112.474C262.977 112.26 262.989 112.041 263.045 111.832C264.442 106.562 265.655 101.739 266.75 97.0868C266.843 96.6901 267.085 96.3443 267.427 96.1214C267.769 95.8984 268.184 95.8154 268.585 95.8896C299.628 101.59 331.163 106.008 362.314 109.036C362.541 109.058 362.761 109.128 362.959 109.243C363.157 109.357 363.328 109.513 363.459 109.7C363.591 109.886 363.681 110.099 363.723 110.323C363.764 110.547 363.757 110.778 363.701 110.999C362.371 116.26 360.974 121.612 359.545 126.872Z" fill="#F9F4DA"/>
<path d="M409.605 28.3663C409.457 28.1977 409.275 28.0622 409.071 27.9688C408.867 27.8755 408.645 27.8264 408.421 27.8248C364.955 27.5936 322.839 25.3355 283.234 21.1108C240.022 16.5028 198.48 9.41511 159.761 0.0440016C159.529 -0.0116159 159.288 -0.0145467 159.055 0.0354264C158.823 0.0853994 158.604 0.186995 158.416 0.332686C158.228 0.478377 158.075 0.664429 157.969 0.877055C157.862 1.08968 157.805 1.32343 157.802 1.56099C157.386 30.8714 152.811 61.189 144.201 91.668C136.233 119.886 124.772 148.42 110.13 176.48C96.1038 203.361 80.1348 228.127 62.6641 250.09C43.7076 273.922 22.8431 294.631 0.619829 311.631C0.415649 311.788 0.252734 311.991 0.145142 312.225C0.0375506 312.458 -0.011486 312.714 0.00226397 312.971C0.0160139 313.227 0.0921374 313.477 0.224066 313.697C0.355994 313.918 0.539764 314.103 0.759518 314.237C37.5073 336.488 76.2366 355.306 116.454 370.451C156.661 385.611 198.142 397.163 240.406 404.972C240.501 404.99 240.598 405 240.695 405C241.114 405 241.515 404.835 241.812 404.541C263.223 383.385 283.469 358.186 301.971 329.683C318.162 304.759 333.598 276.367 347.878 245.295C379.352 176.936 400.291 104.224 409.986 29.6236C410.016 29.3991 409.998 29.1706 409.932 28.9537C409.866 28.7368 409.755 28.5365 409.605 28.3663ZM299.307 327.963C281.097 356.016 261.21 380.833 240.155 401.735C198.359 393.956 157.336 382.501 117.565 367.503C78.2534 352.697 40.3676 334.367 4.37239 312.739C26.1163 295.844 46.5522 275.439 65.1499 252.06C82.7476 229.939 98.8278 205.002 112.946 177.953C127.686 149.7 139.23 120.963 147.259 92.5358C155.748 62.4653 160.348 32.5563 160.945 3.58469C199.245 12.7689 240.266 19.7141 282.9 24.2619C322.064 28.436 363.672 30.6972 406.608 30.9823C396.851 104.652 376.083 176.448 344.995 243.978C330.776 274.894 315.407 303.166 299.307 327.963Z" fill="#231F20"/>
<path d="M235.365 142.755C244.809 114.283 251.873 85.6571 256.362 57.6198C231.558 53.4362 208.849 48.7997 187.064 43.4665C183.54 69.382 177.27 96.0606 168.415 122.819C189.451 130.118 211.386 136.652 235.365 142.755Z" fill="#FCBA28"/>
<path d="M165.891 125.292C187.883 132.978 210.821 139.813 236.015 146.194C236.143 146.225 236.274 146.241 236.406 146.242C236.739 146.241 237.063 146.137 237.333 145.943C237.603 145.75 237.805 145.476 237.911 145.162C247.819 115.538 255.166 85.7331 259.747 56.5683C259.811 56.1563 259.71 55.7356 259.465 55.3976C259.22 55.0596 258.851 54.8316 258.439 54.7632C232.45 50.4149 208.792 45.5789 186.105 39.9733C185.888 39.9197 185.662 39.9125 185.442 39.9521C185.222 39.9917 185.013 40.0772 184.828 40.2031C184.643 40.329 184.487 40.4924 184.37 40.6825C184.253 40.8727 184.178 41.0854 184.149 41.3066C180.629 68.0423 174.165 95.6426 164.91 123.297C164.779 123.691 164.808 124.122 164.991 124.495C165.175 124.868 165.498 125.154 165.891 125.292ZM256.372 57.6198C251.88 85.6571 244.819 114.283 235.374 142.755C211.395 136.652 189.461 130.118 168.425 122.819C177.279 96.0606 183.549 69.382 187.073 43.4665C208.849 48.7997 231.558 53.4362 256.362 57.6198L256.372 57.6198Z" fill="#231F20"/>
<path d="M332.382 81.122C333.277 76.6882 334.068 72.5426 334.785 68.5395C315.505 66.6394 296.114 64.2578 277.097 61.4835C276.487 65.2491 275.805 69.1476 275.024 73.3185C293.92 76.3525 313.2 78.9748 332.382 81.122Z" fill="#7B5EA7"/>
<path d="M272.916 76.1847C292.844 79.4118 313.219 82.1861 333.484 84.4188C333.542 84.422 333.6 84.422 333.658 84.4188C334.024 84.4189 334.379 84.2928 334.662 84.062C334.946 83.8311 335.141 83.5097 335.214 83.152C336.36 77.518 337.344 72.3589 338.217 67.3836C338.252 67.1718 338.243 66.9553 338.191 66.7471C338.139 66.5389 338.045 66.3434 337.915 66.1725C337.785 66.0016 337.621 65.8589 337.434 65.7529C337.247 65.647 337.04 65.5801 336.827 65.5562C316.508 63.5737 296.053 61.075 276.033 58.1265C275.62 58.0654 275.199 58.1695 274.862 58.4162C274.525 58.6629 274.299 59.0322 274.233 59.444C273.49 64.1311 272.646 69.0019 271.627 74.3288C271.587 74.5364 271.59 74.7497 271.635 74.9562C271.68 75.1626 271.765 75.3581 271.887 75.531C272.009 75.7039 272.164 75.8509 272.343 75.9631C272.522 76.0754 272.722 76.1507 272.931 76.1847H272.916ZM334.792 68.5395C334.074 72.5426 333.284 76.6882 332.388 81.122C313.2 78.9748 293.92 76.3525 275.03 73.3185C275.811 69.1476 276.494 65.2491 277.103 61.4835C296.12 64.2578 315.511 66.6299 334.792 68.5395Z" fill="#231F20"/>
<path d="M269.493 99.2625C268.601 103.003 267.63 106.863 266.544 110.996C296.428 116.83 326.785 121.447 356.834 124.738C357.974 120.507 359.094 116.234 360.171 111.997C330.023 109.014 299.536 104.735 269.493 99.2625Z" fill="#7B5EA7"/>
<path d="M363.457 109.688C363.325 109.502 363.155 109.346 362.958 109.231C362.761 109.116 362.541 109.045 362.314 109.023C331.163 105.995 299.628 101.574 268.585 95.877C268.184 95.8028 267.769 95.8858 267.427 96.1087C267.086 96.3317 266.843 96.6774 266.75 97.0741C265.655 101.726 264.442 106.55 263.045 111.82C262.989 112.029 262.977 112.247 263.009 112.461C263.042 112.676 263.118 112.881 263.232 113.065C263.347 113.248 263.499 113.407 263.677 113.53C263.856 113.653 264.058 113.738 264.271 113.78C295.225 119.873 326.709 124.668 357.84 128.031C357.899 128.035 357.957 128.035 358.015 128.031C358.364 128.031 358.702 127.916 358.979 127.704C359.256 127.492 359.455 127.195 359.545 126.86C360.974 121.593 362.371 116.247 363.701 110.974C363.754 110.755 363.76 110.526 363.718 110.305C363.676 110.083 363.587 109.873 363.457 109.688ZM266.544 110.996C267.63 106.879 268.601 103.003 269.493 99.2625C299.536 104.735 330.023 109.014 360.171 111.997C359.094 116.234 357.974 120.507 356.834 124.738C326.785 121.45 296.428 116.83 266.544 110.996Z" fill="#231F20"/>
<path d="M259.175 136.566C258.026 140.24 256.794 144.028 255.439 148.063C276.582 152.854 298.218 157.047 319.788 160.531C321.226 156.262 322.531 152.259 323.753 148.386C302.111 145.098 280.402 141.127 259.175 136.566Z" fill="#7B5EA7"/>
<path d="M256.575 134.242C255.156 138.821 253.616 143.556 251.87 148.709C251.801 148.917 251.776 149.138 251.797 149.357C251.818 149.576 251.884 149.788 251.991 149.979C252.099 150.171 252.245 150.339 252.421 150.471C252.597 150.603 252.799 150.698 253.013 150.748C275.201 155.815 297.945 160.227 320.604 163.859C320.688 163.872 320.773 163.878 320.858 163.878C321.19 163.879 321.514 163.775 321.784 163.582C322.054 163.389 322.256 163.116 322.362 162.802C324.197 157.367 325.826 152.382 327.331 147.553C327.399 147.335 327.419 147.106 327.39 146.88C327.361 146.654 327.284 146.438 327.164 146.244C327.043 146.051 326.882 145.886 326.692 145.76C326.502 145.635 326.286 145.551 326.061 145.516C303.396 142.118 280.643 137.957 258.439 133.165C258.049 133.078 257.641 133.14 257.296 133.34C256.951 133.54 256.693 133.862 256.575 134.242ZM255.439 148.063C256.794 144.028 258.026 140.24 259.175 136.566C280.402 141.127 302.111 145.098 323.753 148.386C322.531 152.259 321.213 156.262 319.788 160.531C298.218 157.047 276.582 152.854 255.439 148.063Z" fill="#231F20"/>
<path d="M158.088 150.026C156.704 153.412 155.284 156.816 153.846 160.183C207.741 181.05 267.423 196.676 331.315 206.645C333.001 202.49 334.547 198.592 336.008 194.81C271.935 185.284 212.097 170.222 158.088 150.026Z" fill="#12B5E5"/>
<path d="M338.414 191.966C273.274 182.409 212.494 167.118 157.77 146.52C157.382 146.374 156.952 146.386 156.573 146.552C156.193 146.718 155.893 147.026 155.738 147.41C153.961 151.749 152.126 156.132 150.272 160.439C150.188 160.634 150.144 160.844 150.143 161.057C150.142 161.269 150.184 161.48 150.266 161.676C150.349 161.872 150.47 162.049 150.622 162.197C150.775 162.346 150.956 162.462 151.154 162.539C206.027 183.922 266.871 199.878 332.045 209.971C332.127 209.977 332.209 209.977 332.29 209.971C332.605 209.971 332.914 209.877 333.175 209.702C333.437 209.526 333.641 209.277 333.76 208.986C335.922 203.687 337.852 198.813 339.659 194.101C339.743 193.878 339.777 193.639 339.756 193.402C339.735 193.164 339.661 192.935 339.539 192.73C339.417 192.525 339.25 192.35 339.051 192.218C338.852 192.087 338.625 192.002 338.389 191.97L338.414 191.966ZM153.837 160.183C155.275 156.816 156.694 153.412 158.078 150.026C212.097 170.222 271.935 185.284 335.985 194.81C334.525 198.592 332.979 202.49 331.293 206.645C267.414 196.669 207.731 181.05 153.837 160.183Z" fill="#231F20"/>
<path d="M144.163 182.358C142.557 185.617 140.912 188.891 139.255 192.125C193.14 214.61 252.61 231.557 316.048 242.553C317.902 238.629 319.61 234.93 321.232 231.335C257.642 220.691 198.09 204.22 144.163 182.358Z" fill="#12B5E5"/>
<path d="M323.778 228.548C259.118 217.866 198.629 201.151 143.989 178.868C143.616 178.716 143.2 178.711 142.824 178.854C142.448 178.997 142.14 179.277 141.963 179.637C139.912 183.827 137.788 188.052 135.652 192.201C135.552 192.395 135.493 192.607 135.48 192.824C135.466 193.042 135.497 193.26 135.572 193.465C135.646 193.669 135.762 193.857 135.912 194.015C136.063 194.173 136.244 194.298 136.445 194.383C191.308 217.416 251.953 234.743 316.699 245.881C316.788 245.896 316.878 245.904 316.969 245.903C317.269 245.903 317.564 245.818 317.818 245.658C318.072 245.498 318.275 245.269 318.404 244.998C320.794 239.949 322.943 235.291 324.969 230.746C325.07 230.525 325.118 230.283 325.11 230.04C325.102 229.797 325.038 229.559 324.922 229.344C324.807 229.13 324.644 228.945 324.446 228.804C324.247 228.662 324.019 228.568 323.778 228.529L323.778 228.548ZM139.255 192.128C140.912 188.894 142.557 185.62 144.163 182.361C198.083 204.213 257.642 220.682 321.232 231.338C319.61 234.933 317.902 238.622 316.048 242.556C252.61 231.557 193.14 214.595 139.255 192.125V192.128Z" fill="#231F20"/>
<path d="M128.283 212.276C126.496 215.367 124.67 218.468 122.838 221.527C176.847 245.476 236.225 263.648 299.355 275.508C301.342 271.838 303.165 268.373 304.927 264.997C241.67 253.4 182.26 235.671 128.283 212.276Z" fill="#12B5E5"/>
<path d="M307.619 262.264C243.292 250.629 182.946 232.643 128.245 208.808C127.887 208.652 127.483 208.633 127.112 208.755C126.74 208.877 126.427 209.132 126.232 209.47C123.94 213.454 121.578 217.489 119.194 221.429C119.078 221.621 119.005 221.835 118.978 222.058C118.951 222.28 118.972 222.505 119.04 222.719C119.107 222.933 119.219 223.13 119.368 223.297C119.517 223.465 119.7 223.599 119.905 223.69C174.904 248.247 235.466 266.799 299.914 278.837C300.01 278.853 300.108 278.861 300.206 278.862C300.492 278.862 300.773 278.785 301.019 278.639C301.265 278.493 301.466 278.284 301.603 278.032C304.193 273.263 306.527 268.848 308.736 264.544C308.849 264.324 308.909 264.081 308.911 263.834C308.913 263.586 308.856 263.342 308.747 263.12C308.637 262.899 308.476 262.706 308.278 262.557C308.08 262.408 307.85 262.308 307.606 262.264H307.619ZM122.848 221.527C124.68 218.468 126.505 215.367 128.293 212.276C182.264 235.671 241.679 253.4 304.946 264.997C303.196 268.373 301.361 271.838 299.374 275.508C236.225 263.635 176.847 245.476 122.848 221.527Z" fill="#231F20"/>
<path d="M110.59 240.814C108.65 243.696 106.679 246.575 104.704 249.412C158.993 274.774 218.408 294.032 281.335 306.659C283.297 303.466 285.262 300.217 287.199 296.968C224.18 284.553 164.777 265.665 110.59 240.814Z" fill="#12B5E5"/>
<path d="M290.015 294.292C225.945 281.839 165.612 262.692 110.689 237.375C110.346 237.217 109.957 237.186 109.594 237.288C109.23 237.391 108.915 237.619 108.704 237.932C106.187 241.688 103.606 245.46 101.025 249.14C100.892 249.33 100.803 249.546 100.764 249.774C100.724 250.001 100.735 250.235 100.796 250.458C100.856 250.681 100.965 250.888 101.114 251.065C101.263 251.241 101.45 251.383 101.66 251.48C156.951 277.494 217.564 297.177 281.808 309.981C281.913 310 282.019 310.01 282.126 310.009C282.397 310.01 282.663 309.94 282.9 309.808C283.137 309.676 283.336 309.486 283.478 309.256C286.018 305.116 288.589 300.876 291.097 296.651C291.227 296.433 291.301 296.187 291.315 295.934C291.33 295.681 291.283 295.428 291.178 295.197C291.074 294.965 290.916 294.763 290.717 294.605C290.517 294.448 290.283 294.34 290.034 294.292H290.015ZM104.704 249.412C106.679 246.562 108.65 243.712 110.59 240.814C164.777 265.665 224.18 284.553 287.199 296.968C285.262 300.217 283.297 303.466 281.335 306.659C218.408 294.032 158.993 274.774 104.704 249.412Z" fill="#231F20"/>
<path d="M92.7513 265.71C90.402 268.75 88.4273 271.265 86.5669 273.58C141.236 300.204 200.772 320.404 263.579 333.642C265.595 330.747 267.62 327.789 269.611 324.818C206.754 311.748 147.268 291.869 92.7513 265.71Z" fill="#12B5E5"/>
<path d="M272.579 322.202C208.665 309.097 148.246 288.94 92.9672 262.308C92.6385 262.15 92.2652 262.11 91.9101 262.194C91.5551 262.278 91.24 262.482 91.0179 262.771C87.786 266.976 85.2684 270.169 82.846 273.143C82.6956 273.327 82.589 273.544 82.5339 273.775C82.4789 274.007 82.4769 274.248 82.5282 274.481C82.5794 274.713 82.6826 274.931 82.83 275.118C82.9773 275.306 83.1651 275.457 83.3794 275.562C139.074 302.877 199.826 323.536 263.953 336.967C264.058 336.989 264.164 337 264.271 337.002C264.527 337.001 264.779 336.939 265.005 336.821C265.232 336.702 265.426 336.531 265.572 336.321C268.239 332.52 270.928 328.571 273.57 324.635C273.714 324.419 273.804 324.171 273.83 323.912C273.856 323.654 273.818 323.393 273.719 323.153C273.62 322.912 273.464 322.7 273.263 322.534C273.063 322.369 272.825 322.255 272.57 322.202L272.579 322.202ZM86.5669 273.589C88.4273 271.274 90.402 268.76 92.7513 265.719C147.268 291.869 206.754 311.748 269.623 324.828C267.62 327.798 265.595 330.756 263.591 333.651C200.772 320.413 141.236 300.23 86.5669 273.589Z" fill="#231F20"/>
<path d="M77.0458 308.388C76.8206 307.189 76.306 306.063 75.5465 305.107C74.787 304.152 73.8055 303.395 72.6868 302.903C70.684 302.035 68.5206 301.598 66.3373 301.62C62.2101 301.62 57.9655 303.033 55.1272 305.62C54.3384 306.306 53.7349 307.178 53.3721 308.157C53.0093 309.136 52.8989 310.19 53.0509 311.222C53.2446 312.43 53.7311 313.572 54.4681 314.55C55.205 315.527 56.1702 316.311 57.2797 316.831C63.1467 319.681 70.8105 318.662 75.1092 314.424C75.9043 313.654 76.497 312.701 76.8348 311.648C77.1726 310.595 77.245 309.475 77.0458 308.388Z" fill="#ED203D"/>
<path d="M73.998 300.014C67.331 297.019 58.302 298.431 52.9748 303.283C51.8069 304.319 50.9146 305.627 50.3777 307.091C49.8409 308.555 49.6762 310.129 49.8984 311.672C50.1656 313.391 50.85 315.019 51.8919 316.414C52.9338 317.808 54.3017 318.928 55.8765 319.675C58.5384 320.947 61.4558 321.596 64.4071 321.575C69.2708 321.575 74.0805 319.868 77.3315 316.663C78.4956 315.537 79.3635 314.142 79.8586 312.601C80.3536 311.061 80.4605 309.422 80.1697 307.831C79.8547 306.126 79.1281 304.523 78.0528 303.161C76.9774 301.799 75.5857 300.719 73.998 300.014ZM57.2702 316.831C56.1607 316.311 55.1955 315.527 54.4585 314.55C53.7215 313.572 53.2351 312.43 53.0414 311.222C52.8882 310.189 52.9981 309.133 53.3609 308.153C53.7238 307.173 54.3279 306.3 55.1177 305.614C57.956 303.026 62.2006 301.614 66.3278 301.614C68.5147 301.593 70.6815 302.032 72.6868 302.903C73.8043 303.396 74.7846 304.153 75.5429 305.109C76.3013 306.064 76.8149 307.19 77.0394 308.388C77.2375 309.476 77.1635 310.596 76.8241 311.649C76.4846 312.702 75.8901 313.655 75.0933 314.424C70.801 318.662 63.1372 319.694 57.2702 316.831Z" fill="#231F20"/>
<path d="M232.533 365.619C227.015 362.73 220.126 361.872 211.468 362.996C210.44 363.129 209.405 363.313 208.376 363.513C208.431 363.169 208.465 362.822 208.478 362.474C208.495 362.061 208.35 361.657 208.073 361.349C207.796 361.041 207.409 360.854 206.995 360.827C205.09 360.707 203.185 360.577 201.28 360.444C201.423 360.222 201.508 359.968 201.527 359.705C201.546 359.442 201.499 359.178 201.391 358.938C201.282 358.697 201.115 358.488 200.904 358.328C200.694 358.169 200.446 358.064 200.185 358.024C196.658 357.479 193.08 356.906 189.553 356.327C189.448 356.311 189.342 356.305 189.235 356.308C184.791 356.501 180.581 355.747 177.092 354.126C176.821 353.999 176.519 353.952 176.222 353.989C173.708 354.306 171.171 354.623 168.634 354.905C169.758 353.68 170.382 352.08 170.384 350.42C170.336 348.34 169.092 346.465 166.891 345.141C165.106 344.103 163.098 343.504 161.034 343.396C156.317 343.182 151.683 344.688 147.998 347.633C147.832 347.763 147.693 347.925 147.59 348.11C147.487 348.294 147.422 348.497 147.399 348.707C147.376 348.916 147.395 349.128 147.455 349.331C147.515 349.533 147.615 349.721 147.75 349.884C147.884 350.047 148.049 350.182 148.236 350.281C148.423 350.379 148.628 350.439 148.839 350.458C149.05 350.476 149.262 350.452 149.463 350.388C149.664 350.323 149.851 350.219 150.011 350.081C153.088 347.626 156.956 346.374 160.891 346.56C163.501 346.677 167.171 348.229 167.222 350.493C167.266 352.466 164.587 355.13 160.672 355.795C160.266 355.865 159.904 356.089 159.661 356.421C159.418 356.752 159.314 357.165 159.37 357.572C159.426 357.979 159.639 358.348 159.963 358.601C160.287 358.855 160.697 358.973 161.107 358.93C166.114 358.395 171.184 357.809 176.187 357.188C179.997 358.87 184.492 359.661 189.204 359.478C191.82 359.909 194.461 360.333 197.09 360.745C197.061 360.783 197.033 360.817 197.007 360.855C196.835 361.082 196.728 361.351 196.696 361.634C196.664 361.916 196.709 362.202 196.827 362.461C196.944 362.721 197.129 362.944 197.362 363.107C197.596 363.27 197.869 363.367 198.153 363.389C200.423 363.56 202.728 363.706 205.023 363.874C204.966 364.051 204.9 364.222 204.827 364.39C199.541 365.908 194.578 368.377 190.181 371.674C189.915 371.873 189.718 372.151 189.619 372.469C189.519 372.786 189.523 373.126 189.628 373.441C189.733 373.757 189.935 374.031 190.206 374.225C190.476 374.42 190.801 374.524 191.134 374.524H191.172C195.791 374.42 203.668 372.114 206.957 367.101C208.57 366.684 210.207 366.367 211.859 366.151C219.846 365.115 226.12 365.866 231.037 368.44C231.41 368.636 231.846 368.675 232.248 368.55C232.65 368.425 232.986 368.146 233.182 367.774C233.378 367.402 233.417 366.967 233.292 366.566C233.167 366.165 232.887 365.83 232.514 365.634L232.533 365.619Z" fill="#231F20"/>
</svg>
